{
  "track_id": "cat_sleep_04",
  "haptic_enabled": true,
  "bpm": 45.0,
  "events": [
    {
      "time": 0,
      "note": 37,
      "velocity": 72
    },
    {
      "time": 2666,
      "note": 39,
      "velocity": 72
    },
    {
      "time": 5333,
      "note": 39,
      "velocity": 72
    },
    {
      "time": 6666,
      "note": 60,
      "velocity": 72
    },
    {
      "time": 10666,
      "note": 60,
      "velocity": 72
    },
    {
      "time": 15999,
      "note": 60,
      "velocity": 72
    },
    {
      "time": 21333,
      "note": 60,
      "velocity": 72
    },
    {
      "time": 26666,
      "note": 60,
      "velocity": 72
    },
    {
      "time": 31999,
      "note": 60,
      "velocity": 72
    },
    {
      "time": 34666,
      "note": 58,
      "velocity": 72
    },
    {
      "time": 37333,
      "note": 58,
      "velocity": 72
    },
    {
      "time": 38666,
      "note": 60,
      "velocity": 72
    },
    {
      "time": 42666,
      "note": 37,
      "velocity": 72
    },
    {
      "time": 45333,
      "note": 39,
      "velocity": 72
    },
    {
      "time": 47999,
      "note": 39,
      "velocity": 72
    },
    {
      "time": 49333,
      "note": 60,
      "velocity": 72
    },
    {
      "time": 53333,
      "note": 60,
      "velocity": 72
    },
    {
      "time": 58666,
      "note": 60,
      "velocity": 72
    },
    {
      "time": 62666,
      "note": 58,
      "velocity": 72
    },
    {
      "time": 63999,
      "note": 60,
      "velocity": 72
    },
    {
      "time": 69333,
      "note": 37,
      "velocity": 72
    },
    {
      "time": 71999,
      "note": 60,
      "velocity": 72
    },
    {
      "time": 74666,
      "note": 58,
      "velocity": 72
    },
    {
      "time": 78666,
      "note": 60,
      "velocity": 72
    },
    {
      "time": 79999,
      "note": 60,
      "velocity": 72
    },
    {
      "time": 81333,
      "note": 60,
      "velocity": 72
    },
    {
      "time": 83999,
      "note": 60,
      "velocity": 72
    },
    {
      "time": 85333,
      "note": 58,
      "velocity": 72
    },
    {
      "time": 89333,
      "note": 60,
      "velocity": 72
    },
    {
      "time": 90666,
      "note": 60,
      "velocity": 72
    },
    {
      "time": 91999,
      "note": 60,
      "velocity": 72
    },
    {
      "time": 94666,
      "note": 60,
      "velocity": 72
    },
    {
      "time": 95999,
      "note": 37,
      "velocity": 72
    },
    {
      "time": 101333,
      "note": 60,
      "velocity": 72
    },
    {
      "time": 106666,
      "note": 37,
      "velocity": 72
    },
    {
      "time": 111999,
      "note": 60,
      "velocity": 72
    },
    {
      "time": 117333,
      "note": 37,
      "velocity": 72
    },
    {
      "time": 122666,
      "note": 37,
      "velocity": 72
    },
    {
      "time": 138666,
      "note": 60,
      "velocity": 72
    },
    {
      "time": 143999,
      "note": 60,
      "velocity": 72
    },
    {
      "time": 149333,
      "note": 60,
      "velocity": 72
    },
    {
      "time": 154666,
      "note": 60,
      "velocity": 72
    },
    {
      "time": 159999,
      "note": 60,
      "velocity": 72
    },
    {
      "time": 162666,
      "note": 55,
      "velocity": 72
    },
    {
      "time": 165333,
      "note": 55,
      "velocity": 72
    },
    {
      "time": 166666,
      "note": 60,
      "velocity": 72
    },
    {
      "time": 170666,
      "note": 56,
      "velocity": 72
    },
    {
      "time": 173333,
      "note": 58,
      "velocity": 72
    },
    {
      "time": 175999,
      "note": 58,
      "velocity": 72
    },
    {
      "time": 177333,
      "note": 60,
      "velocity": 72
    },
    {
      "time": 181333,
      "note": 60,
      "velocity": 72
    },
    {
      "time": 183999,
      "note": 38,
      "velocity": 72
    },
    {
      "time": 186666,
      "note": 38,
      "velocity": 72
    },
    {
      "time": 187999,
      "note": 58,
      "velocity": 72
    },
    {
      "time": 191999,
      "note": 60,
      "velocity": 72
    },
    {
      "time": 197333,
      "note": 58,
      "velocity": 72
    },
    {
      "time": 202666,
      "note": 58,
      "velocity": 72
    },
    {
      "time": 207999,
      "note": 58,
      "velocity": 72
    },
    {
      "time": 213999,
      "note": 58,
      "velocity": 72
    },
    {
      "time": 214666,
      "note": 58,
      "velocity": 72
    },
    {
      "time": 215333,
      "note": 58,
      "velocity": 72
    },
    {
      "time": 215999,
      "note": 46,
      "velocity": 72
    },
    {
      "time": 216666,
      "note": 58,
      "velocity": 72
    },
    {
      "time": 217333,
      "note": 58,
      "velocity": 72
    },
    {
      "time": 217999,
      "note": 58,
      "velocity": 72
    },
    {
      "time": 218666,
      "note": 58,
      "velocity": 72
    },
    {
      "time": 219999,
      "note": 58,
      "velocity": 72
    },
    {
      "time": 223999,
      "note": 39,
      "velocity": 72
    },
    {
      "time": 224666,
      "note": 60,
      "velocity": 72
    },
    {
      "time": 225333,
      "note": 60,
      "velocity": 72
    },
    {
      "time": 225999,
      "note": 60,
      "velocity": 72
    },
    {
      "time": 226666,
      "note": 41,
      "velocity": 72
    },
    {
      "time": 229333,
      "note": 41,
      "velocity": 72
    },
    {
      "time": 230666,
      "note": 58,
      "velocity": 72
    },
    {
      "time": 234666,
      "note": 60,
      "velocity": 72
    },
    {
      "time": 239999,
      "note": 58,
      "velocity": 72
    },
    {
      "time": 243999,
      "note": 58,
      "velocity": 72
    },
    {
      "time": 244333,
      "note": 58,
      "velocity": 72
    },
    {
      "time": 244666,
      "note": 58,
      "velocity": 72
    },
    {
      "time": 244999,
      "note": 58,
      "velocity": 72
    },
    {
      "time": 245333,
      "note": 60,
      "velocity": 72
    },
    {
      "time": 250666,
      "note": 60,
      "velocity": 72
    },
    {
      "time": 253333,
      "note": 38,
      "velocity": 72
    },
    {
      "time": 259999,
      "note": 58,
      "velocity": 72
    },
    {
      "time": 260333,
      "note": 58,
      "velocity": 72
    },
    {
      "time": 260666,
      "note": 58,
      "velocity": 72
    },
    {
      "time": 260999,
      "note": 58,
      "velocity": 72
    },
    {
      "time": 261333,
      "note": 58,
      "velocity": 72
    },
    {
      "time": 261666,
      "note": 58,
      "velocity": 72
    },
    {
      "time": 261999,
      "note": 58,
      "velocity": 72
    },
    {
      "time": 262333,
      "note": 58,
      "velocity": 72
    },
    {
      "time": 262666,
      "note": 60,
      "velocity": 72
    },
    {
      "time": 265333,
      "note": 58,
      "velocity": 72
    },
    {
      "time": 265666,
      "note": 58,
      "velocity": 72
    },
    {
      "time": 265999,
      "note": 58,
      "velocity": 72
    },
    {
      "time": 266333,
      "note": 58,
      "velocity": 72
    },
    {
      "time": 266666,
      "note": 58,
      "velocity": 72
    },
    {
      "time": 270666,
      "note": 58,
      "velocity": 72
    },
    {
      "time": 270999,
      "note": 58,
      "velocity": 72
    },
    {
      "time": 271333,
      "note": 58,
      "velocity": 72
    },
    {
      "time": 271666,
      "note": 58,
      "velocity": 72
    },
    {
      "time": 271999,
      "note": 58,
      "velocity": 72
    },
    {
      "time": 272333,
      "note": 58,
      "velocity": 72
    },
    {
      "time": 272666,
      "note": 58,
      "velocity": 72
    },
    {
      "time": 272999,
      "note": 58,
      "velocity": 72
    },
    {
      "time": 273333,
      "note": 60,
      "velocity": 72
    },
    {
      "time": 275999,
      "note": 58,
      "velocity": 72
    },
    {
      "time": 276333,
      "note": 58,
      "velocity": 72
    },
    {
      "time": 276666,
      "note": 58,
      "velocity": 72
    },
    {
      "time": 276999,
      "note": 58,
      "velocity": 72
    },
    {
      "time": 277333,
      "note": 37,
      "velocity": 72
    },
    {
      "time": 282666,
      "note": 60,
      "velocity": 72
    },
    {
      "time": 287999,
      "note": 37,
      "velocity": 72
    },
    {
      "time": 293333,
      "note": 60,
      "velocity": 72
    },
    {
      "time": 298666,
      "note": 37,
      "velocity": 72
    },
    {
      "time": 303999,
      "note": 37,
      "velocity": 72
    },
    {
      "time": 319999,
      "note": 60,
      "velocity": 72
    }
  ],
  "stats": {
    "total_events": 117,
    "duration_ms": 319999,
    "avg_velocity": 72,
    "note_range": "37-60"
  }
}