{
  "track_id": "cat_sleep_01",
  "haptic_enabled": true,
  "bpm": 115.0,
  "events": [
    {
      "time": 0,
      "note": 60,
      "velocity": 1
    },
    {
      "time": 2086,
      "note": 60,
      "velocity": 1
    },
    {
      "time": 4173,
      "note": 60,
      "velocity": 1
    },
    {
      "time": 6260,
      "note": 60,
      "velocity": 1
    },
    {
      "time": 8347,
      "note": 60,
      "velocity": 1
    },
    {
      "time": 10434,
      "note": 59,
      "velocity": 1
    },
    {
      "time": 11478,
      "note": 60,
      "velocity": 1
    },
    {
      "time": 12521,
      "note": 60,
      "velocity": 1
    },
    {
      "time": 14608,
      "note": 59,
      "velocity": 1
    },
    {
      "time": 15652,
      "note": 60,
      "velocity": 1
    },
    {
      "time": 16695,
      "note": 60,
      "velocity": 9
    },
    {
      "time": 18260,
      "note": 60,
      "velocity": 9
    },
    {
      "time": 18782,
      "note": 60,
      "velocity": 9
    },
    {
      "time": 20347,
      "note": 60,
      "velocity": 9
    },
    {
      "time": 20869,
      "note": 60,
      "velocity": 9
    },
    {
      "time": 22434,
      "note": 60,
      "velocity": 9
    },
    {
      "time": 22956,
      "note": 60,
      "velocity": 9
    },
    {
      "time": 24521,
      "note": 60,
      "velocity": 9
    },
    {
      "time": 25043,
      "note": 60,
      "velocity": 9
    },
    {
      "time": 26608,
      "note": 60,
      "velocity": 9
    },
    {
      "time": 27130,
      "note": 60,
      "velocity": 9
    },
    {
      "time": 28173,
      "note": 60,
      "velocity": 9
    },
    {
      "time": 29217,
      "note": 60,
      "velocity": 9
    },
    {
      "time": 30260,
      "note": 58,
      "velocity": 9
    },
    {
      "time": 31304,
      "note": 60,
      "velocity": 9
    },
    {
      "time": 32347,
      "note": 60,
      "velocity": 17
    },
    {
      "time": 33391,
      "note": 57,
      "velocity": 26
    },
    {
      "time": 35478,
      "note": 60,
      "velocity": 26
    },
    {
      "time": 37565,
      "note": 60,
      "velocity": 26
    },
    {
      "time": 39652,
      "note": 60,
      "velocity": 26
    },
    {
      "time": 41739,
      "note": 60,
      "velocity": 26
    },
    {
      "time": 43826,
      "note": 59,
      "velocity": 26
    },
    {
      "time": 44869,
      "note": 60,
      "velocity": 26
    },
    {
      "time": 45913,
      "note": 60,
      "velocity": 26
    },
    {
      "time": 47999,
      "note": 59,
      "velocity": 26
    },
    {
      "time": 49043,
      "note": 60,
      "velocity": 10
    },
    {
      "time": 50086,
      "note": 60,
      "velocity": 1
    },
    {
      "time": 52173,
      "note": 59,
      "velocity": 1
    },
    {
      "time": 53217,
      "note": 60,
      "velocity": 1
    },
    {
      "time": 54260,
      "note": 60,
      "velocity": 1
    },
    {
      "time": 56347,
      "note": 59,
      "velocity": 1
    },
    {
      "time": 57391,
      "note": 60,
      "velocity": 1
    },
    {
      "time": 58434,
      "note": 60,
      "velocity": 13
    },
    {
      "time": 60521,
      "note": 60,
      "velocity": 13
    },
    {
      "time": 62608,
      "note": 60,
      "velocity": 13
    },
    {
      "time": 64695,
      "note": 60,
      "velocity": 13
    },
    {
      "time": 66782,
      "note": 60,
      "velocity": 13
    },
    {
      "time": 68869,
      "note": 59,
      "velocity": 13
    },
    {
      "time": 69913,
      "note": 60,
      "velocity": 13
    },
    {
      "time": 70956,
      "note": 60,
      "velocity": 13
    },
    {
      "time": 73043,
      "note": 59,
      "velocity": 13
    },
    {
      "time": 74086,
      "note": 60,
      "velocity": 21
    },
    {
      "time": 75130,
      "note": 60,
      "velocity": 30
    },
    {
      "time": 76695,
      "note": 60,
      "velocity": 30
    },
    {
      "time": 77217,
      "note": 60,
      "velocity": 30
    },
    {
      "time": 78782,
      "note": 60,
      "velocity": 30
    },
    {
      "time": 79304,
      "note": 60,
      "velocity": 30
    },
    {
      "time": 80869,
      "note": 60,
      "velocity": 30
    },
    {
      "time": 81391,
      "note": 60,
      "velocity": 30
    },
    {
      "time": 82956,
      "note": 60,
      "velocity": 30
    },
    {
      "time": 83478,
      "note": 60,
      "velocity": 30
    },
    {
      "time": 85043,
      "note": 60,
      "velocity": 30
    },
    {
      "time": 85565,
      "note": 60,
      "velocity": 30
    },
    {
      "time": 86608,
      "note": 60,
      "velocity": 30
    },
    {
      "time": 87652,
      "note": 60,
      "velocity": 30
    },
    {
      "time": 88695,
      "note": 58,
      "velocity": 30
    },
    {
      "time": 89739,
      "note": 60,
      "velocity": 30
    },
    {
      "time": 90782,
      "note": 60,
      "velocity": 14
    },
    {
      "time": 91826,
      "note": 60,
      "velocity": 1
    },
    {
      "time": 93913,
      "note": 60,
      "velocity": 1
    },
    {
      "time": 95999,
      "note": 60,
      "velocity": 1
    },
    {
      "time": 98086,
      "note": 60,
      "velocity": 1
    },
    {
      "time": 100173,
      "note": 60,
      "velocity": 1
    },
    {
      "time": 102260,
      "note": 59,
      "velocity": 1
    },
    {
      "time": 103304,
      "note": 60,
      "velocity": 1
    },
    {
      "time": 104347,
      "note": 60,
      "velocity": 1
    },
    {
      "time": 106434,
      "note": 59,
      "velocity": 1
    },
    {
      "time": 107478,
      "note": 60,
      "velocity": 7
    },
    {
      "time": 108521,
      "note": 60,
      "velocity": 16
    },
    {
      "time": 110086,
      "note": 60,
      "velocity": 16
    },
    {
      "time": 110608,
      "note": 60,
      "velocity": 16
    },
    {
      "time": 112173,
      "note": 60,
      "velocity": 16
    },
    {
      "time": 112695,
      "note": 60,
      "velocity": 16
    },
    {
      "time": 114260,
      "note": 60,
      "velocity": 16
    },
    {
      "time": 114782,
      "note": 60,
      "velocity": 16
    },
    {
      "time": 116347,
      "note": 60,
      "velocity": 16
    },
    {
      "time": 116869,
      "note": 60,
      "velocity": 16
    },
    {
      "time": 118434,
      "note": 60,
      "velocity": 16
    },
    {
      "time": 118956,
      "note": 60,
      "velocity": 16
    },
    {
      "time": 119999,
      "note": 60,
      "velocity": 16
    },
    {
      "time": 121043,
      "note": 60,
      "velocity": 16
    },
    {
      "time": 122086,
      "note": 58,
      "velocity": 16
    },
    {
      "time": 123130,
      "note": 60,
      "velocity": 16
    },
    {
      "time": 124173,
      "note": 60,
      "velocity": 25
    },
    {
      "time": 125217,
      "note": 60,
      "velocity": 33
    },
    {
      "time": 127304,
      "note": 60,
      "velocity": 33
    },
    {
      "time": 129391,
      "note": 60,
      "velocity": 33
    },
    {
      "time": 131478,
      "note": 60,
      "velocity": 33
    },
    {
      "time": 133565,
      "note": 60,
      "velocity": 33
    },
    {
      "time": 135652,
      "note": 59,
      "velocity": 33
    },
    {
      "time": 136695,
      "note": 60,
      "velocity": 33
    },
    {
      "time": 137739,
      "note": 60,
      "velocity": 33
    },
    {
      "time": 139826,
      "note": 59,
      "velocity": 33
    },
    {
      "time": 140869,
      "note": 60,
      "velocity": 18
    },
    {
      "time": 141913,
      "note": 60,
      "velocity": 2
    },
    {
      "time": 143999,
      "note": 60,
      "velocity": 2
    },
    {
      "time": 146086,
      "note": 60,
      "velocity": 2
    },
    {
      "time": 148173,
      "note": 60,
      "velocity": 2
    },
    {
      "time": 150260,
      "note": 60,
      "velocity": 2
    },
    {
      "time": 152347,
      "note": 59,
      "velocity": 2
    },
    {
      "time": 153391,
      "note": 60,
      "velocity": 2
    },
    {
      "time": 154434,
      "note": 60,
      "velocity": 2
    },
    {
      "time": 156521,
      "note": 59,
      "velocity": 2
    },
    {
      "time": 157565,
      "note": 60,
      "velocity": 11
    },
    {
      "time": 158608,
      "note": 60,
      "velocity": 19
    },
    {
      "time": 160173,
      "note": 60,
      "velocity": 19
    },
    {
      "time": 160695,
      "note": 60,
      "velocity": 19
    },
    {
      "time": 162260,
      "note": 60,
      "velocity": 19
    },
    {
      "time": 162782,
      "note": 60,
      "velocity": 19
    },
    {
      "time": 164347,
      "note": 60,
      "velocity": 19
    },
    {
      "time": 164869,
      "note": 60,
      "velocity": 19
    },
    {
      "time": 166434,
      "note": 60,
      "velocity": 19
    },
    {
      "time": 166956,
      "note": 60,
      "velocity": 19
    },
    {
      "time": 168521,
      "note": 60,
      "velocity": 19
    },
    {
      "time": 169043,
      "note": 60,
      "velocity": 19
    },
    {
      "time": 170086,
      "note": 60,
      "velocity": 19
    },
    {
      "time": 171130,
      "note": 60,
      "velocity": 19
    },
    {
      "time": 172173,
      "note": 58,
      "velocity": 19
    },
    {
      "time": 173217,
      "note": 60,
      "velocity": 19
    },
    {
      "time": 174260,
      "note": 60,
      "velocity": 28
    },
    {
      "time": 175304,
      "note": 60,
      "velocity": 37
    },
    {
      "time": 177391,
      "note": 60,
      "velocity": 37
    },
    {
      "time": 179478,
      "note": 60,
      "velocity": 37
    },
    {
      "time": 181565,
      "note": 60,
      "velocity": 37
    },
    {
      "time": 183652,
      "note": 60,
      "velocity": 37
    },
    {
      "time": 185739,
      "note": 59,
      "velocity": 37
    },
    {
      "time": 186782,
      "note": 60,
      "velocity": 37
    },
    {
      "time": 187826,
      "note": 60,
      "velocity": 37
    },
    {
      "time": 189912,
      "note": 59,
      "velocity": 37
    },
    {
      "time": 190956,
      "note": 60,
      "velocity": 22
    },
    {
      "time": 191999,
      "note": 60,
      "velocity": 6
    },
    {
      "time": 194086,
      "note": 59,
      "velocity": 6
    },
    {
      "time": 195130,
      "note": 60,
      "velocity": 6
    },
    {
      "time": 196173,
      "note": 60,
      "velocity": 23
    },
    {
      "time": 198260,
      "note": 60,
      "velocity": 23
    },
    {
      "time": 200347,
      "note": 60,
      "velocity": 23
    },
    {
      "time": 202434,
      "note": 60,
      "velocity": 23
    },
    {
      "time": 204521,
      "note": 60,
      "velocity": 23
    },
    {
      "time": 206608,
      "note": 59,
      "velocity": 23
    },
    {
      "time": 207652,
      "note": 60,
      "velocity": 23
    },
    {
      "time": 208695,
      "note": 60,
      "velocity": 23
    },
    {
      "time": 210782,
      "note": 59,
      "velocity": 23
    },
    {
      "time": 211826,
      "note": 60,
      "velocity": 31
    },
    {
      "time": 212869,
      "note": 60,
      "velocity": 40
    },
    {
      "time": 214434,
      "note": 60,
      "velocity": 40
    },
    {
      "time": 214956,
      "note": 60,
      "velocity": 40
    },
    {
      "time": 216521,
      "note": 60,
      "velocity": 40
    },
    {
      "time": 217043,
      "note": 60,
      "velocity": 40
    },
    {
      "time": 218608,
      "note": 60,
      "velocity": 40
    },
    {
      "time": 219130,
      "note": 60,
      "velocity": 40
    },
    {
      "time": 220695,
      "note": 60,
      "velocity": 40
    },
    {
      "time": 221217,
      "note": 60,
      "velocity": 40
    },
    {
      "time": 222782,
      "note": 60,
      "velocity": 40
    },
    {
      "time": 223304,
      "note": 60,
      "velocity": 40
    },
    {
      "time": 224347,
      "note": 60,
      "velocity": 40
    },
    {
      "time": 225391,
      "note": 60,
      "velocity": 40
    },
    {
      "time": 226434,
      "note": 58,
      "velocity": 40
    },
    {
      "time": 227478,
      "note": 60,
      "velocity": 40
    },
    {
      "time": 228521,
      "note": 60,
      "velocity": 22
    },
    {
      "time": 229565,
      "note": 59,
      "velocity": 5
    },
    {
      "time": 231652,
      "note": 57,
      "velocity": 5
    },
    {
      "time": 232695,
      "note": 59,
      "velocity": 5
    },
    {
      "time": 233739,
      "note": 59,
      "velocity": 5
    },
    {
      "time": 235826,
      "note": 57,
      "velocity": 5
    },
    {
      "time": 236869,
      "note": 59,
      "velocity": 5
    },
    {
      "time": 237912,
      "note": 55,
      "velocity": 20
    },
    {
      "time": 239999,
      "note": 59,
      "velocity": 20
    },
    {
      "time": 242086,
      "note": 55,
      "velocity": 20
    },
    {
      "time": 244173,
      "note": 55,
      "velocity": 20
    },
    {
      "time": 246260,
      "note": 59,
      "velocity": 20
    },
    {
      "time": 248347,
      "note": 57,
      "velocity": 20
    },
    {
      "time": 249391,
      "note": 59,
      "velocity": 20
    },
    {
      "time": 250434,
      "note": 59,
      "velocity": 20
    },
    {
      "time": 252521,
      "note": 57,
      "velocity": 20
    },
    {
      "time": 253565,
      "note": 59,
      "velocity": 27
    },
    {
      "time": 254608,
      "note": 59,
      "velocity": 34
    },
    {
      "time": 256173,
      "note": 57,
      "velocity": 34
    },
    {
      "time": 256695,
      "note": 59,
      "velocity": 34
    },
    {
      "time": 258260,
      "note": 60,
      "velocity": 34
    },
    {
      "time": 258782,
      "note": 59,
      "velocity": 34
    },
    {
      "time": 260347,
      "note": 57,
      "velocity": 34
    },
    {
      "time": 260869,
      "note": 59,
      "velocity": 34
    },
    {
      "time": 262434,
      "note": 60,
      "velocity": 34
    },
    {
      "time": 262956,
      "note": 60,
      "velocity": 34
    },
    {
      "time": 264521,
      "note": 59,
      "velocity": 34
    },
    {
      "time": 265043,
      "note": 57,
      "velocity": 34
    },
    {
      "time": 266086,
      "note": 60,
      "velocity": 34
    },
    {
      "time": 267130,
      "note": 57,
      "velocity": 34
    },
    {
      "time": 268173,
      "note": 59,
      "velocity": 34
    },
    {
      "time": 269217,
      "note": 60,
      "velocity": 34
    },
    {
      "time": 270260,
      "note": 57,
      "velocity": 17
    },
    {
      "time": 271304,
      "note": 60,
      "velocity": 1
    },
    {
      "time": 273391,
      "note": 59,
      "velocity": 1
    },
    {
      "time": 274434,
      "note": 60,
      "velocity": 1
    },
    {
      "time": 275478,
      "note": 60,
      "velocity": 20
    },
    {
      "time": 277565,
      "note": 60,
      "velocity": 20
    },
    {
      "time": 279652,
      "note": 60,
      "velocity": 20
    },
    {
      "time": 281739,
      "note": 60,
      "velocity": 20
    },
    {
      "time": 283826,
      "note": 60,
      "velocity": 20
    },
    {
      "time": 285912,
      "note": 59,
      "velocity": 20
    },
    {
      "time": 286956,
      "note": 60,
      "velocity": 20
    },
    {
      "time": 287999,
      "note": 60,
      "velocity": 20
    },
    {
      "time": 290086,
      "note": 59,
      "velocity": 20
    },
    {
      "time": 291130,
      "note": 60,
      "velocity": 19
    },
    {
      "time": 292173,
      "note": 60,
      "velocity": 18
    },
    {
      "time": 293739,
      "note": 60,
      "velocity": 18
    },
    {
      "time": 294260,
      "note": 60,
      "velocity": 18
    },
    {
      "time": 295826,
      "note": 60,
      "velocity": 18
    },
    {
      "time": 296347,
      "note": 60,
      "velocity": 18
    },
    {
      "time": 297912,
      "note": 60,
      "velocity": 18
    },
    {
      "time": 298434,
      "note": 60,
      "velocity": 18
    },
    {
      "time": 299999,
      "note": 60,
      "velocity": 18
    },
    {
      "time": 300521,
      "note": 60,
      "velocity": 18
    },
    {
      "time": 302086,
      "note": 60,
      "velocity": 18
    },
    {
      "time": 302608,
      "note": 60,
      "velocity": 18
    },
    {
      "time": 303652,
      "note": 60,
      "velocity": 18
    },
    {
      "time": 304695,
      "note": 60,
      "velocity": 18
    },
    {
      "time": 305739,
      "note": 58,
      "velocity": 18
    },
    {
      "time": 306782,
      "note": 60,
      "velocity": 18
    },
    {
      "time": 307826,
      "note": 60,
      "velocity": 7
    },
    {
      "time": 308869,
      "note": 60,
      "velocity": 1
    },
    {
      "time": 310956,
      "note": 59,
      "velocity": 1
    },
    {
      "time": 311999,
      "note": 60,
      "velocity": 1
    },
    {
      "time": 313043,
      "note": 60,
      "velocity": 1
    },
    {
      "time": 315130,
      "note": 59,
      "velocity": 1
    },
    {
      "time": 316173,
      "note": 60,
      "velocity": 1
    },
    {
      "time": 317217,
      "note": 52,
      "velocity": 1
    }
  ],
  "stats": {
    "total_events": 237,
    "duration_ms": 317217,
    "avg_velocity": 19,
    "note_range": "52-60"
  }
}