{
  "track_id": "cat_energy_04",
  "haptic_enabled": true,
  "bpm": 125.0,
  "events": [
    {
      "time": 0,
      "note": 56,
      "velocity": 1
    },
    {
      "time": 960,
      "note": 59,
      "velocity": 1
    },
    {
      "time": 1920,
      "note": 59,
      "velocity": 1
    },
    {
      "time": 2880,
      "note": 56,
      "velocity": 1
    },
    {
      "time": 5760,
      "note": 37,
      "velocity": 50
    },
    {
      "time": 7680,
      "note": 37,
      "velocity": 50
    },
    {
      "time": 9600,
      "note": 37,
      "velocity": 50
    },
    {
      "time": 11520,
      "note": 59,
      "velocity": 50
    },
    {
      "time": 12480,
      "note": 57,
      "velocity": 50
    },
    {
      "time": 13440,
      "note": 56,
      "velocity": 50
    },
    {
      "time": 14400,
      "note": 56,
      "velocity": 50
    },
    {
      "time": 15360,
      "note": 56,
      "velocity": 50
    },
    {
      "time": 16320,
      "note": 56,
      "velocity": 39
    },
    {
      "time": 17280,
      "note": 56,
      "velocity": 29
    },
    {
      "time": 18240,
      "note": 56,
      "velocity": 19
    },
    {
      "time": 22080,
      "note": 38,
      "velocity": 8
    },
    {
      "time": 23040,
      "note": 38,
      "velocity": 8
    },
    {
      "time": 25920,
      "note": 38,
      "velocity": 8
    },
    {
      "time": 29760,
      "note": 37,
      "velocity": 8
    },
    {
      "time": 36480,
      "note": 37,
      "velocity": 7
    },
    {
      "time": 38400,
      "note": 37,
      "velocity": 7
    },
    {
      "time": 40320,
      "note": 37,
      "velocity": 7
    },
    {
      "time": 42240,
      "note": 59,
      "velocity": 7
    },
    {
      "time": 43200,
      "note": 57,
      "velocity": 7
    },
    {
      "time": 44160,
      "note": 59,
      "velocity": 7
    },
    {
      "time": 45120,
      "note": 56,
      "velocity": 7
    },
    {
      "time": 46080,
      "note": 56,
      "velocity": 7
    },
    {
      "time": 47040,
      "note": 59,
      "velocity": 22
    },
    {
      "time": 48000,
      "note": 59,
      "velocity": 36
    },
    {
      "time": 48960,
      "note": 56,
      "velocity": 51
    },
    {
      "time": 52800,
      "note": 38,
      "velocity": 65
    },
    {
      "time": 53760,
      "note": 38,
      "velocity": 65
    },
    {
      "time": 56640,
      "note": 38,
      "velocity": 65
    },
    {
      "time": 60480,
      "note": 37,
      "velocity": 65
    },
    {
      "time": 67200,
      "note": 37,
      "velocity": 24
    },
    {
      "time": 69120,
      "note": 37,
      "velocity": 24
    },
    {
      "time": 71040,
      "note": 37,
      "velocity": 24
    },
    {
      "time": 72960,
      "note": 59,
      "velocity": 24
    },
    {
      "time": 73920,
      "note": 57,
      "velocity": 24
    },
    {
      "time": 74880,
      "note": 59,
      "velocity": 24
    },
    {
      "time": 75840,
      "note": 56,
      "velocity": 24
    },
    {
      "time": 76800,
      "note": 56,
      "velocity": 24
    },
    {
      "time": 77760,
      "note": 59,
      "velocity": 23
    },
    {
      "time": 78720,
      "note": 59,
      "velocity": 23
    },
    {
      "time": 79680,
      "note": 56,
      "velocity": 23
    },
    {
      "time": 82560,
      "note": 37,
      "velocity": 22
    },
    {
      "time": 84480,
      "note": 37,
      "velocity": 22
    },
    {
      "time": 86400,
      "note": 37,
      "velocity": 22
    },
    {
      "time": 88320,
      "note": 59,
      "velocity": 22
    },
    {
      "time": 89280,
      "note": 57,
      "velocity": 22
    },
    {
      "time": 91200,
      "note": 56,
      "velocity": 22
    },
    {
      "time": 92160,
      "note": 37,
      "velocity": 22
    },
    {
      "time": 93120,
      "note": 59,
      "velocity": 37
    },
    {
      "time": 94080,
      "note": 59,
      "velocity": 51
    },
    {
      "time": 95040,
      "note": 37,
      "velocity": 65
    },
    {
      "time": 98880,
      "note": 38,
      "velocity": 80
    },
    {
      "time": 99840,
      "note": 38,
      "velocity": 80
    },
    {
      "time": 102720,
      "note": 38,
      "velocity": 80
    },
    {
      "time": 106560,
      "note": 37,
      "velocity": 80
    },
    {
      "time": 113280,
      "note": 37,
      "velocity": 39
    },
    {
      "time": 115200,
      "note": 37,
      "velocity": 39
    },
    {
      "time": 117120,
      "note": 37,
      "velocity": 39
    },
    {
      "time": 119040,
      "note": 59,
      "velocity": 39
    },
    {
      "time": 120000,
      "note": 57,
      "velocity": 39
    },
    {
      "time": 120960,
      "note": 59,
      "velocity": 39
    },
    {
      "time": 121920,
      "note": 37,
      "velocity": 39
    },
    {
      "time": 122400,
      "note": 56,
      "velocity": 39
    },
    {
      "time": 122880,
      "note": 56,
      "velocity": 39
    },
    {
      "time": 124320,
      "note": 59,
      "velocity": 38
    },
    {
      "time": 125280,
      "note": 59,
      "velocity": 38
    },
    {
      "time": 125760,
      "note": 56,
      "velocity": 37
    },
    {
      "time": 126720,
      "note": 59,
      "velocity": 37
    },
    {
      "time": 127680,
      "note": 57,
      "velocity": 37
    },
    {
      "time": 128640,
      "note": 56,
      "velocity": 37
    },
    {
      "time": 129600,
      "note": 56,
      "velocity": 37
    },
    {
      "time": 130560,
      "note": 56,
      "velocity": 37
    },
    {
      "time": 131520,
      "note": 56,
      "velocity": 37
    },
    {
      "time": 132480,
      "note": 56,
      "velocity": 37
    },
    {
      "time": 133440,
      "note": 56,
      "velocity": 66
    },
    {
      "time": 137280,
      "note": 37,
      "velocity": 95
    },
    {
      "time": 139200,
      "note": 37,
      "velocity": 95
    },
    {
      "time": 141120,
      "note": 37,
      "velocity": 95
    },
    {
      "time": 142080,
      "note": 59,
      "velocity": 95
    },
    {
      "time": 143040,
      "note": 57,
      "velocity": 95
    },
    {
      "time": 144000,
      "note": 59,
      "velocity": 95
    },
    {
      "time": 144960,
      "note": 56,
      "velocity": 95
    },
    {
      "time": 146400,
      "note": 56,
      "velocity": 90
    },
    {
      "time": 146880,
      "note": 59,
      "velocity": 85
    },
    {
      "time": 147840,
      "note": 59,
      "velocity": 75
    },
    {
      "time": 148080,
      "note": 59,
      "velocity": 72
    },
    {
      "time": 148320,
      "note": 59,
      "velocity": 70
    },
    {
      "time": 148560,
      "note": 59,
      "velocity": 67
    },
    {
      "time": 148800,
      "note": 37,
      "velocity": 65
    },
    {
      "time": 149280,
      "note": 56,
      "velocity": 60
    },
    {
      "time": 152640,
      "note": 38,
      "velocity": 55
    },
    {
      "time": 153600,
      "note": 38,
      "velocity": 55
    },
    {
      "time": 156480,
      "note": 38,
      "velocity": 55
    },
    {
      "time": 160320,
      "note": 37,
      "velocity": 55
    },
    {
      "time": 165120,
      "note": 59,
      "velocity": 52
    },
    {
      "time": 166080,
      "note": 57,
      "velocity": 52
    },
    {
      "time": 167040,
      "note": 56,
      "velocity": 52
    },
    {
      "time": 168000,
      "note": 56,
      "velocity": 52
    },
    {
      "time": 168960,
      "note": 56,
      "velocity": 52
    },
    {
      "time": 169920,
      "note": 56,
      "velocity": 52
    },
    {
      "time": 170880,
      "note": 56,
      "velocity": 52
    },
    {
      "time": 171840,
      "note": 56,
      "velocity": 81
    },
    {
      "time": 180480,
      "note": 59,
      "velocity": 111
    },
    {
      "time": 182080,
      "note": 57,
      "velocity": 111
    },
    {
      "time": 182400,
      "note": 59,
      "velocity": 111
    },
    {
      "time": 183360,
      "note": 56,
      "velocity": 111
    },
    {
      "time": 184320,
      "note": 40,
      "velocity": 111
    },
    {
      "time": 184640,
      "note": 56,
      "velocity": 107
    },
    {
      "time": 185280,
      "note": 40,
      "velocity": 99
    },
    {
      "time": 186240,
      "note": 57,
      "velocity": 87
    },
    {
      "time": 187200,
      "note": 56,
      "velocity": 76
    },
    {
      "time": 191040,
      "note": 38,
      "velocity": 64
    },
    {
      "time": 192000,
      "note": 38,
      "velocity": 64
    },
    {
      "time": 194880,
      "note": 38,
      "velocity": 64
    },
    {
      "time": 198720,
      "note": 37,
      "velocity": 64
    },
    {
      "time": 203520,
      "note": 60,
      "velocity": 49
    },
    {
      "time": 204480,
      "note": 60,
      "velocity": 49
    },
    {
      "time": 205440,
      "note": 59,
      "velocity": 49
    },
    {
      "time": 206400,
      "note": 60,
      "velocity": 49
    },
    {
      "time": 207360,
      "note": 59,
      "velocity": 49
    },
    {
      "time": 208320,
      "note": 60,
      "velocity": 49
    },
    {
      "time": 209280,
      "note": 59,
      "velocity": 49
    },
    {
      "time": 210240,
      "note": 60,
      "velocity": 49
    },
    {
      "time": 211200,
      "note": 57,
      "velocity": 49
    },
    {
      "time": 212160,
      "note": 60,
      "velocity": 49
    },
    {
      "time": 213120,
      "note": 59,
      "velocity": 49
    },
    {
      "time": 214080,
      "note": 59,
      "velocity": 49
    },
    {
      "time": 215040,
      "note": 59,
      "velocity": 49
    },
    {
      "time": 216000,
      "note": 59,
      "velocity": 60
    },
    {
      "time": 216960,
      "note": 59,
      "velocity": 71
    },
    {
      "time": 217920,
      "note": 59,
      "velocity": 83
    },
    {
      "time": 218880,
      "note": 36,
      "velocity": 94
    },
    {
      "time": 219840,
      "note": 60,
      "velocity": 94
    },
    {
      "time": 220800,
      "note": 36,
      "velocity": 94
    },
    {
      "time": 221760,
      "note": 40,
      "velocity": 94
    },
    {
      "time": 222720,
      "note": 40,
      "velocity": 94
    },
    {
      "time": 223680,
      "note": 60,
      "velocity": 94
    },
    {
      "time": 224640,
      "note": 60,
      "velocity": 94
    },
    {
      "time": 225600,
      "note": 59,
      "velocity": 94
    },
    {
      "time": 226560,
      "note": 60,
      "velocity": 94
    },
    {
      "time": 227520,
      "note": 36,
      "velocity": 94
    },
    {
      "time": 228480,
      "note": 60,
      "velocity": 94
    },
    {
      "time": 229440,
      "note": 59,
      "velocity": 94
    },
    {
      "time": 230400,
      "note": 60,
      "velocity": 94
    },
    {
      "time": 231360,
      "note": 60,
      "velocity": 80
    },
    {
      "time": 232320,
      "note": 60,
      "velocity": 66
    },
    {
      "time": 233280,
      "note": 36,
      "velocity": 53
    },
    {
      "time": 234240,
      "note": 60,
      "velocity": 39
    },
    {
      "time": 235200,
      "note": 60,
      "velocity": 39
    },
    {
      "time": 236160,
      "note": 59,
      "velocity": 39
    },
    {
      "time": 237120,
      "note": 60,
      "velocity": 39
    },
    {
      "time": 238080,
      "note": 59,
      "velocity": 39
    },
    {
      "time": 239040,
      "note": 60,
      "velocity": 39
    },
    {
      "time": 240000,
      "note": 59,
      "velocity": 39
    },
    {
      "time": 240960,
      "note": 60,
      "velocity": 39
    },
    {
      "time": 241920,
      "note": 57,
      "velocity": 39
    },
    {
      "time": 242880,
      "note": 60,
      "velocity": 39
    },
    {
      "time": 244800,
      "note": 40,
      "velocity": 39
    },
    {
      "time": 245760,
      "note": 40,
      "velocity": 39
    },
    {
      "time": 248640,
      "note": 55,
      "velocity": 27
    },
    {
      "time": 249600,
      "note": 59,
      "velocity": 24
    },
    {
      "time": 250560,
      "note": 57,
      "velocity": 24
    },
    {
      "time": 251520,
      "note": 56,
      "velocity": 24
    },
    {
      "time": 252480,
      "note": 56,
      "velocity": 24
    },
    {
      "time": 253440,
      "note": 56,
      "velocity": 24
    },
    {
      "time": 254400,
      "note": 56,
      "velocity": 24
    },
    {
      "time": 255360,
      "note": 56,
      "velocity": 24
    },
    {
      "time": 256320,
      "note": 56,
      "velocity": 37
    },
    {
      "time": 259200,
      "note": 37,
      "velocity": 51
    },
    {
      "time": 261120,
      "note": 37,
      "velocity": 51
    },
    {
      "time": 263040,
      "note": 37,
      "velocity": 51
    },
    {
      "time": 264960,
      "note": 59,
      "velocity": 51
    },
    {
      "time": 266240,
      "note": 57,
      "velocity": 51
    },
    {
      "time": 266720,
      "note": 57,
      "velocity": 51
    },
    {
      "time": 267040,
      "note": 59,
      "velocity": 51
    },
    {
      "time": 267200,
      "note": 59,
      "velocity": 51
    },
    {
      "time": 267520,
      "note": 59,
      "velocity": 51
    },
    {
      "time": 267680,
      "note": 59,
      "velocity": 51
    },
    {
      "time": 267840,
      "note": 56,
      "velocity": 51
    },
    {
      "time": 268160,
      "note": 56,
      "velocity": 51
    },
    {
      "time": 268480,
      "note": 56,
      "velocity": 51
    },
    {
      "time": 268800,
      "note": 56,
      "velocity": 51
    },
    {
      "time": 269920,
      "note": 59,
      "velocity": 58
    },
    {
      "time": 270080,
      "note": 59,
      "velocity": 59
    },
    {
      "time": 270400,
      "note": 59,
      "velocity": 60
    },
    {
      "time": 270560,
      "note": 59,
      "velocity": 61
    },
    {
      "time": 270720,
      "note": 59,
      "velocity": 62
    },
    {
      "time": 271680,
      "note": 56,
      "velocity": 68
    },
    {
      "time": 275520,
      "note": 38,
      "velocity": 74
    },
    {
      "time": 276480,
      "note": 38,
      "velocity": 74
    },
    {
      "time": 279360,
      "note": 38,
      "velocity": 74
    },
    {
      "time": 283200,
      "note": 37,
      "velocity": 74
    },
    {
      "time": 289920,
      "note": 37,
      "velocity": 6
    },
    {
      "time": 291840,
      "note": 37,
      "velocity": 6
    },
    {
      "time": 293760,
      "note": 37,
      "velocity": 6
    },
    {
      "time": 295680,
      "note": 59,
      "velocity": 6
    },
    {
      "time": 296640,
      "note": 57,
      "velocity": 6
    },
    {
      "time": 297600,
      "note": 59,
      "velocity": 6
    },
    {
      "time": 298560,
      "note": 56,
      "velocity": 6
    },
    {
      "time": 299520,
      "note": 56,
      "velocity": 6
    },
    {
      "time": 300480,
      "note": 59,
      "velocity": 6
    },
    {
      "time": 301440,
      "note": 59,
      "velocity": 6
    },
    {
      "time": 302400,
      "note": 56,
      "velocity": 6
    },
    {
      "time": 303360,
      "note": 57,
      "velocity": 6
    }
  ],
  "stats": {
    "total_events": 208,
    "duration_ms": 303360,
    "avg_velocity": 49,
    "note_range": "36-60"
  }
}