{
  "track_id": "cat_senior_07",
  "haptic_enabled": true,
  "bpm": 45.0,
  "events": [
    {
      "time": 1333,
      "note": 59,
      "velocity": 1
    },
    {
      "time": 2666,
      "note": 58,
      "velocity": 1
    },
    {
      "time": 5333,
      "note": 58,
      "velocity": 1
    },
    {
      "time": 10666,
      "note": 56,
      "velocity": 1
    },
    {
      "time": 15999,
      "note": 58,
      "velocity": 1
    },
    {
      "time": 21333,
      "note": 58,
      "velocity": 1
    },
    {
      "time": 23999,
      "note": 56,
      "velocity": 1
    },
    {
      "time": 26666,
      "note": 58,
      "velocity": 1
    },
    {
      "time": 29333,
      "note": 58,
      "velocity": 1
    },
    {
      "time": 31999,
      "note": 58,
      "velocity": 1
    },
    {
      "time": 34666,
      "note": 56,
      "velocity": 1
    },
    {
      "time": 37333,
      "note": 58,
      "velocity": 1
    },
    {
      "time": 39999,
      "note": 58,
      "velocity": 1
    },
    {
      "time": 42666,
      "note": 39,
      "velocity": 72
    },
    {
      "time": 46666,
      "note": 37,
      "velocity": 72
    },
    {
      "time": 47999,
      "note": 59,
      "velocity": 7
    },
    {
      "time": 53333,
      "note": 58,
      "velocity": 7
    },
    {
      "time": 57333,
      "note": 56,
      "velocity": 7
    },
    {
      "time": 58666,
      "note": 58,
      "velocity": 7
    },
    {
      "time": 62666,
      "note": 59,
      "velocity": 7
    },
    {
      "time": 63999,
      "note": 59,
      "velocity": 7
    },
    {
      "time": 66666,
      "note": 58,
      "velocity": 7
    },
    {
      "time": 69333,
      "note": 58,
      "velocity": 7
    },
    {
      "time": 71999,
      "note": 59,
      "velocity": 7
    },
    {
      "time": 74666,
      "note": 59,
      "velocity": 7
    },
    {
      "time": 77333,
      "note": 58,
      "velocity": 7
    },
    {
      "time": 79999,
      "note": 58,
      "velocity": 7
    },
    {
      "time": 82666,
      "note": 59,
      "velocity": 16
    },
    {
      "time": 85333,
      "note": 59,
      "velocity": 24
    },
    {
      "time": 86666,
      "note": 58,
      "velocity": 24
    },
    {
      "time": 87999,
      "note": 58,
      "velocity": 24
    },
    {
      "time": 89333,
      "note": 56,
      "velocity": 24
    },
    {
      "time": 90666,
      "note": 56,
      "velocity": 24
    },
    {
      "time": 94666,
      "note": 54,
      "velocity": 24
    },
    {
      "time": 95999,
      "note": 54,
      "velocity": 24
    },
    {
      "time": 97333,
      "note": 54,
      "velocity": 24
    },
    {
      "time": 98666,
      "note": 54,
      "velocity": 24
    },
    {
      "time": 99999,
      "note": 54,
      "velocity": 24
    },
    {
      "time": 101333,
      "note": 51,
      "velocity": 24
    },
    {
      "time": 105333,
      "note": 51,
      "velocity": 24
    },
    {
      "time": 106666,
      "note": 51,
      "velocity": 24
    },
    {
      "time": 110666,
      "note": 49,
      "velocity": 24
    },
    {
      "time": 111999,
      "note": 49,
      "velocity": 24
    },
    {
      "time": 114666,
      "note": 51,
      "velocity": 24
    },
    {
      "time": 117333,
      "note": 51,
      "velocity": 24
    },
    {
      "time": 119999,
      "note": 49,
      "velocity": 24
    },
    {
      "time": 122666,
      "note": 49,
      "velocity": 24
    },
    {
      "time": 127999,
      "note": 59,
      "velocity": 40
    },
    {
      "time": 129333,
      "note": 58,
      "velocity": 40
    },
    {
      "time": 130666,
      "note": 58,
      "velocity": 40
    },
    {
      "time": 131999,
      "note": 56,
      "velocity": 40
    },
    {
      "time": 133333,
      "note": 56,
      "velocity": 40
    },
    {
      "time": 137333,
      "note": 54,
      "velocity": 40
    },
    {
      "time": 138666,
      "note": 54,
      "velocity": 40
    },
    {
      "time": 139999,
      "note": 54,
      "velocity": 40
    },
    {
      "time": 141333,
      "note": 54,
      "velocity": 40
    },
    {
      "time": 142666,
      "note": 54,
      "velocity": 40
    },
    {
      "time": 143999,
      "note": 51,
      "velocity": 40
    },
    {
      "time": 147999,
      "note": 51,
      "velocity": 40
    },
    {
      "time": 149333,
      "note": 51,
      "velocity": 40
    },
    {
      "time": 153333,
      "note": 49,
      "velocity": 40
    },
    {
      "time": 154666,
      "note": 49,
      "velocity": 40
    },
    {
      "time": 157333,
      "note": 51,
      "velocity": 40
    },
    {
      "time": 159999,
      "note": 51,
      "velocity": 40
    },
    {
      "time": 162666,
      "note": 49,
      "velocity": 40
    },
    {
      "time": 165333,
      "note": 49,
      "velocity": 40
    },
    {
      "time": 170666,
      "note": 58,
      "velocity": 7
    },
    {
      "time": 173333,
      "note": 56,
      "velocity": 7
    },
    {
      "time": 175999,
      "note": 58,
      "velocity": 7
    },
    {
      "time": 178666,
      "note": 58,
      "velocity": 7
    },
    {
      "time": 181333,
      "note": 58,
      "velocity": 7
    },
    {
      "time": 183999,
      "note": 56,
      "velocity": 7
    },
    {
      "time": 186666,
      "note": 58,
      "velocity": 7
    },
    {
      "time": 189333,
      "note": 58,
      "velocity": 7
    },
    {
      "time": 193333,
      "note": 59,
      "velocity": 19
    },
    {
      "time": 194666,
      "note": 58,
      "velocity": 19
    },
    {
      "time": 197333,
      "note": 58,
      "velocity": 19
    },
    {
      "time": 202666,
      "note": 56,
      "velocity": 19
    },
    {
      "time": 207999,
      "note": 58,
      "velocity": 19
    },
    {
      "time": 213333,
      "note": 58,
      "velocity": 19
    },
    {
      "time": 215999,
      "note": 56,
      "velocity": 19
    },
    {
      "time": 218666,
      "note": 58,
      "velocity": 19
    },
    {
      "time": 221333,
      "note": 58,
      "velocity": 19
    },
    {
      "time": 223999,
      "note": 58,
      "velocity": 19
    },
    {
      "time": 226666,
      "note": 56,
      "velocity": 19
    },
    {
      "time": 229333,
      "note": 58,
      "velocity": 19
    },
    {
      "time": 231999,
      "note": 58,
      "velocity": 22
    },
    {
      "time": 234666,
      "note": 39,
      "velocity": 72
    },
    {
      "time": 238666,
      "note": 37,
      "velocity": 72
    },
    {
      "time": 239999,
      "note": 59,
      "velocity": 25
    },
    {
      "time": 245333,
      "note": 58,
      "velocity": 25
    },
    {
      "time": 249333,
      "note": 56,
      "velocity": 25
    },
    {
      "time": 250666,
      "note": 58,
      "velocity": 25
    },
    {
      "time": 254666,
      "note": 59,
      "velocity": 25
    },
    {
      "time": 255999,
      "note": 59,
      "velocity": 25
    },
    {
      "time": 258666,
      "note": 58,
      "velocity": 25
    },
    {
      "time": 261333,
      "note": 58,
      "velocity": 25
    },
    {
      "time": 263999,
      "note": 59,
      "velocity": 25
    },
    {
      "time": 266666,
      "note": 59,
      "velocity": 25
    },
    {
      "time": 269333,
      "note": 58,
      "velocity": 25
    },
    {
      "time": 271999,
      "note": 58,
      "velocity": 25
    },
    {
      "time": 274666,
      "note": 59,
      "velocity": 28
    },
    {
      "time": 277333,
      "note": 59,
      "velocity": 31
    },
    {
      "time": 278666,
      "note": 58,
      "velocity": 31
    },
    {
      "time": 279999,
      "note": 58,
      "velocity": 31
    },
    {
      "time": 281333,
      "note": 56,
      "velocity": 31
    },
    {
      "time": 282666,
      "note": 56,
      "velocity": 31
    },
    {
      "time": 286666,
      "note": 54,
      "velocity": 31
    },
    {
      "time": 287999,
      "note": 54,
      "velocity": 31
    },
    {
      "time": 289333,
      "note": 54,
      "velocity": 31
    },
    {
      "time": 290666,
      "note": 54,
      "velocity": 31
    },
    {
      "time": 291999,
      "note": 54,
      "velocity": 31
    },
    {
      "time": 293333,
      "note": 51,
      "velocity": 31
    },
    {
      "time": 297333,
      "note": 51,
      "velocity": 31
    },
    {
      "time": 298666,
      "note": 51,
      "velocity": 31
    },
    {
      "time": 302666,
      "note": 49,
      "velocity": 31
    },
    {
      "time": 303999,
      "note": 49,
      "velocity": 31
    },
    {
      "time": 306666,
      "note": 51,
      "velocity": 31
    },
    {
      "time": 309333,
      "note": 51,
      "velocity": 31
    },
    {
      "time": 311999,
      "note": 49,
      "velocity": 31
    },
    {
      "time": 314666,
      "note": 49,
      "velocity": 31
    },
    {
      "time": 319999,
      "note": 49,
      "velocity": 31
    }
  ],
  "stats": {
    "total_events": 122,
    "duration_ms": 319999,
    "avg_velocity": 24,
    "note_range": "37-59"
  }
}