{
  "track_id": "cat_sleep_03",
  "haptic_enabled": true,
  "bpm": 45.0,
  "events": [
    {
      "time": 0,
      "note": 60,
      "velocity": 8
    },
    {
      "time": 2666,
      "note": 58,
      "velocity": 8
    },
    {
      "time": 5333,
      "note": 60,
      "velocity": 8
    },
    {
      "time": 7999,
      "note": 37,
      "velocity": 72
    },
    {
      "time": 10666,
      "note": 60,
      "velocity": 8
    },
    {
      "time": 11999,
      "note": 60,
      "velocity": 8
    },
    {
      "time": 13333,
      "note": 37,
      "velocity": 72
    },
    {
      "time": 15999,
      "note": 39,
      "velocity": 72
    },
    {
      "time": 18666,
      "note": 60,
      "velocity": 8
    },
    {
      "time": 21333,
      "note": 60,
      "velocity": 8
    },
    {
      "time": 23999,
      "note": 37,
      "velocity": 72
    },
    {
      "time": 26666,
      "note": 39,
      "velocity": 72
    },
    {
      "time": 29333,
      "note": 60,
      "velocity": 8
    },
    {
      "time": 31999,
      "note": 60,
      "velocity": 8
    },
    {
      "time": 34666,
      "note": 58,
      "velocity": 8
    },
    {
      "time": 37333,
      "note": 60,
      "velocity": 8
    },
    {
      "time": 39999,
      "note": 37,
      "velocity": 72
    },
    {
      "time": 42666,
      "note": 60,
      "velocity": 8
    },
    {
      "time": 45333,
      "note": 58,
      "velocity": 8
    },
    {
      "time": 47999,
      "note": 60,
      "velocity": 8
    },
    {
      "time": 50666,
      "note": 37,
      "velocity": 72
    },
    {
      "time": 53333,
      "note": 60,
      "velocity": 8
    },
    {
      "time": 57333,
      "note": 58,
      "velocity": 8
    },
    {
      "time": 58666,
      "note": 58,
      "velocity": 8
    },
    {
      "time": 61333,
      "note": 56,
      "velocity": 8
    },
    {
      "time": 63999,
      "note": 56,
      "velocity": 8
    },
    {
      "time": 66666,
      "note": 56,
      "velocity": 8
    },
    {
      "time": 67999,
      "note": 55,
      "velocity": 8
    },
    {
      "time": 69333,
      "note": 53,
      "velocity": 8
    },
    {
      "time": 71999,
      "note": 51,
      "velocity": 8
    },
    {
      "time": 74666,
      "note": 51,
      "velocity": 8
    },
    {
      "time": 77333,
      "note": 51,
      "velocity": 8
    },
    {
      "time": 79999,
      "note": 53,
      "velocity": 8
    },
    {
      "time": 82666,
      "note": 55,
      "velocity": 8
    },
    {
      "time": 85333,
      "note": 55,
      "velocity": 8
    },
    {
      "time": 87999,
      "note": 56,
      "velocity": 8
    },
    {
      "time": 90666,
      "note": 55,
      "velocity": 8
    },
    {
      "time": 93333,
      "note": 56,
      "velocity": 8
    },
    {
      "time": 95999,
      "note": 60,
      "velocity": 8
    },
    {
      "time": 98666,
      "note": 58,
      "velocity": 8
    },
    {
      "time": 101333,
      "note": 60,
      "velocity": 8
    },
    {
      "time": 103999,
      "note": 37,
      "velocity": 72
    },
    {
      "time": 106666,
      "note": 60,
      "velocity": 8
    },
    {
      "time": 109333,
      "note": 58,
      "velocity": 8
    },
    {
      "time": 111999,
      "note": 60,
      "velocity": 8
    },
    {
      "time": 114666,
      "note": 37,
      "velocity": 72
    },
    {
      "time": 117333,
      "note": 60,
      "velocity": 8
    },
    {
      "time": 118666,
      "note": 60,
      "velocity": 8
    },
    {
      "time": 119999,
      "note": 37,
      "velocity": 72
    },
    {
      "time": 122666,
      "note": 39,
      "velocity": 72
    },
    {
      "time": 125333,
      "note": 60,
      "velocity": 8
    },
    {
      "time": 127999,
      "note": 60,
      "velocity": 8
    },
    {
      "time": 130666,
      "note": 37,
      "velocity": 72
    },
    {
      "time": 133333,
      "note": 39,
      "velocity": 72
    },
    {
      "time": 135999,
      "note": 60,
      "velocity": 8
    },
    {
      "time": 138666,
      "note": 60,
      "velocity": 8
    },
    {
      "time": 141333,
      "note": 58,
      "velocity": 8
    },
    {
      "time": 143999,
      "note": 60,
      "velocity": 8
    },
    {
      "time": 146666,
      "note": 37,
      "velocity": 72
    },
    {
      "time": 149333,
      "note": 60,
      "velocity": 8
    },
    {
      "time": 151999,
      "note": 58,
      "velocity": 8
    },
    {
      "time": 154666,
      "note": 60,
      "velocity": 8
    },
    {
      "time": 157333,
      "note": 37,
      "velocity": 72
    },
    {
      "time": 159999,
      "note": 60,
      "velocity": 8
    },
    {
      "time": 163999,
      "note": 58,
      "velocity": 8
    },
    {
      "time": 165333,
      "note": 58,
      "velocity": 8
    },
    {
      "time": 167999,
      "note": 56,
      "velocity": 8
    },
    {
      "time": 170666,
      "note": 56,
      "velocity": 8
    },
    {
      "time": 173333,
      "note": 56,
      "velocity": 8
    },
    {
      "time": 174666,
      "note": 55,
      "velocity": 8
    },
    {
      "time": 175999,
      "note": 53,
      "velocity": 8
    },
    {
      "time": 178666,
      "note": 51,
      "velocity": 8
    },
    {
      "time": 181333,
      "note": 51,
      "velocity": 8
    },
    {
      "time": 183999,
      "note": 51,
      "velocity": 8
    },
    {
      "time": 186666,
      "note": 53,
      "velocity": 8
    },
    {
      "time": 189333,
      "note": 55,
      "velocity": 8
    },
    {
      "time": 191999,
      "note": 55,
      "velocity": 8
    },
    {
      "time": 194666,
      "note": 56,
      "velocity": 8
    },
    {
      "time": 197333,
      "note": 55,
      "velocity": 8
    },
    {
      "time": 199999,
      "note": 56,
      "velocity": 8
    },
    {
      "time": 202666,
      "note": 60,
      "velocity": 8
    },
    {
      "time": 205333,
      "note": 58,
      "velocity": 8
    },
    {
      "time": 207999,
      "note": 60,
      "velocity": 8
    },
    {
      "time": 210666,
      "note": 37,
      "velocity": 72
    },
    {
      "time": 213333,
      "note": 60,
      "velocity": 8
    },
    {
      "time": 215999,
      "note": 58,
      "velocity": 8
    },
    {
      "time": 218666,
      "note": 60,
      "velocity": 8
    },
    {
      "time": 221333,
      "note": 37,
      "velocity": 72
    },
    {
      "time": 223999,
      "note": 60,
      "velocity": 8
    },
    {
      "time": 225333,
      "note": 60,
      "velocity": 8
    },
    {
      "time": 226666,
      "note": 37,
      "velocity": 72
    },
    {
      "time": 229333,
      "note": 39,
      "velocity": 72
    },
    {
      "time": 231999,
      "note": 60,
      "velocity": 8
    },
    {
      "time": 234666,
      "note": 60,
      "velocity": 8
    },
    {
      "time": 237333,
      "note": 37,
      "velocity": 72
    },
    {
      "time": 239999,
      "note": 39,
      "velocity": 72
    },
    {
      "time": 242666,
      "note": 60,
      "velocity": 8
    },
    {
      "time": 245333,
      "note": 60,
      "velocity": 8
    },
    {
      "time": 247999,
      "note": 58,
      "velocity": 8
    },
    {
      "time": 250666,
      "note": 60,
      "velocity": 8
    },
    {
      "time": 253333,
      "note": 37,
      "velocity": 72
    },
    {
      "time": 255999,
      "note": 60,
      "velocity": 8
    },
    {
      "time": 258666,
      "note": 58,
      "velocity": 8
    },
    {
      "time": 261333,
      "note": 60,
      "velocity": 8
    },
    {
      "time": 263999,
      "note": 37,
      "velocity": 72
    },
    {
      "time": 266666,
      "note": 60,
      "velocity": 8
    },
    {
      "time": 270666,
      "note": 58,
      "velocity": 8
    },
    {
      "time": 271999,
      "note": 58,
      "velocity": 8
    },
    {
      "time": 274666,
      "note": 56,
      "velocity": 8
    },
    {
      "time": 277333,
      "note": 56,
      "velocity": 8
    },
    {
      "time": 279999,
      "note": 56,
      "velocity": 8
    },
    {
      "time": 281333,
      "note": 55,
      "velocity": 8
    },
    {
      "time": 282666,
      "note": 53,
      "velocity": 8
    },
    {
      "time": 285333,
      "note": 51,
      "velocity": 8
    },
    {
      "time": 287999,
      "note": 51,
      "velocity": 8
    },
    {
      "time": 290666,
      "note": 51,
      "velocity": 8
    },
    {
      "time": 293333,
      "note": 53,
      "velocity": 8
    },
    {
      "time": 295999,
      "note": 55,
      "velocity": 8
    },
    {
      "time": 298666,
      "note": 55,
      "velocity": 8
    },
    {
      "time": 301333,
      "note": 56,
      "velocity": 8
    },
    {
      "time": 303999,
      "note": 55,
      "velocity": 8
    },
    {
      "time": 306666,
      "note": 56,
      "velocity": 8
    },
    {
      "time": 309333,
      "note": 56,
      "velocity": 8
    }
  ],
  "stats": {
    "total_events": 123,
    "duration_ms": 309333,
    "avg_velocity": 20,
    "note_range": "37-60"
  }
}