{
  "track_id": "cat_senior_04",
  "haptic_enabled": true,
  "bpm": 45.0,
  "events": [
    {
      "time": 0,
      "note": 39,
      "velocity": 72
    },
    {
      "time": 2666,
      "note": 59,
      "velocity": 1
    },
    {
      "time": 5333,
      "note": 37,
      "velocity": 72
    },
    {
      "time": 7999,
      "note": 59,
      "velocity": 1
    },
    {
      "time": 10666,
      "note": 58,
      "velocity": 1
    },
    {
      "time": 13333,
      "note": 56,
      "velocity": 1
    },
    {
      "time": 15999,
      "note": 56,
      "velocity": 1
    },
    {
      "time": 18666,
      "note": 59,
      "velocity": 1
    },
    {
      "time": 21333,
      "note": 59,
      "velocity": 1
    },
    {
      "time": 23999,
      "note": 37,
      "velocity": 72
    },
    {
      "time": 26666,
      "note": 59,
      "velocity": 1
    },
    {
      "time": 29333,
      "note": 58,
      "velocity": 1
    },
    {
      "time": 31999,
      "note": 59,
      "velocity": 1
    },
    {
      "time": 34666,
      "note": 37,
      "velocity": 72
    },
    {
      "time": 37333,
      "note": 59,
      "velocity": 1
    },
    {
      "time": 39999,
      "note": 58,
      "velocity": 2
    },
    {
      "time": 42666,
      "note": 39,
      "velocity": 72
    },
    {
      "time": 45333,
      "note": 59,
      "velocity": 12
    },
    {
      "time": 47999,
      "note": 37,
      "velocity": 72
    },
    {
      "time": 50666,
      "note": 59,
      "velocity": 12
    },
    {
      "time": 53333,
      "note": 58,
      "velocity": 12
    },
    {
      "time": 55999,
      "note": 56,
      "velocity": 12
    },
    {
      "time": 58666,
      "note": 56,
      "velocity": 12
    },
    {
      "time": 61333,
      "note": 59,
      "velocity": 12
    },
    {
      "time": 63999,
      "note": 59,
      "velocity": 12
    },
    {
      "time": 66666,
      "note": 37,
      "velocity": 72
    },
    {
      "time": 69333,
      "note": 59,
      "velocity": 12
    },
    {
      "time": 71999,
      "note": 58,
      "velocity": 12
    },
    {
      "time": 74666,
      "note": 59,
      "velocity": 12
    },
    {
      "time": 77333,
      "note": 37,
      "velocity": 72
    },
    {
      "time": 79999,
      "note": 59,
      "velocity": 12
    },
    {
      "time": 82666,
      "note": 58,
      "velocity": 22
    },
    {
      "time": 85333,
      "note": 39,
      "velocity": 72
    },
    {
      "time": 87999,
      "note": 59,
      "velocity": 33
    },
    {
      "time": 89333,
      "note": 58,
      "velocity": 33
    },
    {
      "time": 90666,
      "note": 58,
      "velocity": 33
    },
    {
      "time": 91999,
      "note": 59,
      "velocity": 33
    },
    {
      "time": 93333,
      "note": 58,
      "velocity": 33
    },
    {
      "time": 95999,
      "note": 58,
      "velocity": 33
    },
    {
      "time": 98666,
      "note": 59,
      "velocity": 33
    },
    {
      "time": 99999,
      "note": 58,
      "velocity": 33
    },
    {
      "time": 101333,
      "note": 58,
      "velocity": 33
    },
    {
      "time": 102666,
      "note": 58,
      "velocity": 33
    },
    {
      "time": 105333,
      "note": 56,
      "velocity": 33
    },
    {
      "time": 106666,
      "note": 58,
      "velocity": 33
    },
    {
      "time": 109333,
      "note": 56,
      "velocity": 33
    },
    {
      "time": 111999,
      "note": 58,
      "velocity": 33
    },
    {
      "time": 114666,
      "note": 56,
      "velocity": 33
    },
    {
      "time": 117333,
      "note": 58,
      "velocity": 33
    },
    {
      "time": 119999,
      "note": 56,
      "velocity": 33
    },
    {
      "time": 122666,
      "note": 58,
      "velocity": 33
    },
    {
      "time": 125333,
      "note": 56,
      "velocity": 18
    },
    {
      "time": 127999,
      "note": 39,
      "velocity": 72
    },
    {
      "time": 130666,
      "note": 59,
      "velocity": 3
    },
    {
      "time": 133333,
      "note": 37,
      "velocity": 72
    },
    {
      "time": 135999,
      "note": 59,
      "velocity": 3
    },
    {
      "time": 138666,
      "note": 58,
      "velocity": 3
    },
    {
      "time": 141333,
      "note": 56,
      "velocity": 3
    },
    {
      "time": 143999,
      "note": 56,
      "velocity": 3
    },
    {
      "time": 146666,
      "note": 59,
      "velocity": 3
    },
    {
      "time": 149333,
      "note": 59,
      "velocity": 3
    },
    {
      "time": 151999,
      "note": 37,
      "velocity": 72
    },
    {
      "time": 154666,
      "note": 59,
      "velocity": 3
    },
    {
      "time": 157333,
      "note": 58,
      "velocity": 3
    },
    {
      "time": 159999,
      "note": 59,
      "velocity": 3
    },
    {
      "time": 162666,
      "note": 37,
      "velocity": 72
    },
    {
      "time": 165333,
      "note": 59,
      "velocity": 3
    },
    {
      "time": 167999,
      "note": 58,
      "velocity": 13
    },
    {
      "time": 170666,
      "note": 39,
      "velocity": 72
    },
    {
      "time": 173333,
      "note": 59,
      "velocity": 23
    },
    {
      "time": 175999,
      "note": 37,
      "velocity": 72
    },
    {
      "time": 178666,
      "note": 59,
      "velocity": 23
    },
    {
      "time": 181333,
      "note": 58,
      "velocity": 23
    },
    {
      "time": 183999,
      "note": 56,
      "velocity": 23
    },
    {
      "time": 186666,
      "note": 56,
      "velocity": 23
    },
    {
      "time": 189333,
      "note": 59,
      "velocity": 23
    },
    {
      "time": 191999,
      "note": 59,
      "velocity": 23
    },
    {
      "time": 194666,
      "note": 37,
      "velocity": 72
    },
    {
      "time": 197333,
      "note": 59,
      "velocity": 23
    },
    {
      "time": 199999,
      "note": 58,
      "velocity": 23
    },
    {
      "time": 202666,
      "note": 59,
      "velocity": 23
    },
    {
      "time": 205333,
      "note": 37,
      "velocity": 72
    },
    {
      "time": 207999,
      "note": 59,
      "velocity": 23
    },
    {
      "time": 210666,
      "note": 58,
      "velocity": 31
    },
    {
      "time": 213333,
      "note": 39,
      "velocity": 72
    },
    {
      "time": 215999,
      "note": 59,
      "velocity": 40
    },
    {
      "time": 217333,
      "note": 58,
      "velocity": 40
    },
    {
      "time": 218666,
      "note": 58,
      "velocity": 40
    },
    {
      "time": 219999,
      "note": 59,
      "velocity": 40
    },
    {
      "time": 221333,
      "note": 58,
      "velocity": 40
    },
    {
      "time": 223999,
      "note": 58,
      "velocity": 40
    },
    {
      "time": 226666,
      "note": 59,
      "velocity": 40
    },
    {
      "time": 227999,
      "note": 58,
      "velocity": 40
    },
    {
      "time": 229333,
      "note": 58,
      "velocity": 40
    },
    {
      "time": 230666,
      "note": 58,
      "velocity": 40
    },
    {
      "time": 233333,
      "note": 56,
      "velocity": 40
    },
    {
      "time": 234666,
      "note": 58,
      "velocity": 40
    },
    {
      "time": 237333,
      "note": 56,
      "velocity": 40
    },
    {
      "time": 239999,
      "note": 58,
      "velocity": 40
    },
    {
      "time": 242666,
      "note": 56,
      "velocity": 40
    },
    {
      "time": 245333,
      "note": 58,
      "velocity": 40
    },
    {
      "time": 247999,
      "note": 56,
      "velocity": 40
    },
    {
      "time": 250666,
      "note": 58,
      "velocity": 40
    },
    {
      "time": 253333,
      "note": 56,
      "velocity": 20
    },
    {
      "time": 255999,
      "note": 59,
      "velocity": 1
    },
    {
      "time": 258666,
      "note": 37,
      "velocity": 72
    },
    {
      "time": 261333,
      "note": 59,
      "velocity": 1
    },
    {
      "time": 263999,
      "note": 58,
      "velocity": 1
    },
    {
      "time": 266666,
      "note": 59,
      "velocity": 1
    },
    {
      "time": 269333,
      "note": 37,
      "velocity": 72
    },
    {
      "time": 271999,
      "note": 59,
      "velocity": 1
    },
    {
      "time": 274666,
      "note": 58,
      "velocity": 1
    },
    {
      "time": 277333,
      "note": 39,
      "velocity": 72
    },
    {
      "time": 279999,
      "note": 59,
      "velocity": 28
    },
    {
      "time": 282666,
      "note": 37,
      "velocity": 72
    },
    {
      "time": 285333,
      "note": 59,
      "velocity": 28
    },
    {
      "time": 287999,
      "note": 58,
      "velocity": 28
    },
    {
      "time": 290666,
      "note": 56,
      "velocity": 28
    },
    {
      "time": 293333,
      "note": 56,
      "velocity": 28
    },
    {
      "time": 295999,
      "note": 59,
      "velocity": 28
    },
    {
      "time": 298666,
      "note": 59,
      "velocity": 28
    },
    {
      "time": 301333,
      "note": 37,
      "velocity": 72
    },
    {
      "time": 303999,
      "note": 59,
      "velocity": 28
    },
    {
      "time": 306666,
      "note": 58,
      "velocity": 28
    },
    {
      "time": 309333,
      "note": 59,
      "velocity": 28
    },
    {
      "time": 311999,
      "note": 37,
      "velocity": 72
    },
    {
      "time": 314666,
      "note": 59,
      "velocity": 28
    },
    {
      "time": 317333,
      "note": 58,
      "velocity": 28
    },
    {
      "time": 319999,
      "note": 58,
      "velocity": 28
    }
  ],
  "stats": {
    "total_events": 129,
    "duration_ms": 319999,
    "avg_velocity": 31,
    "note_range": "37-59"
  }
}