{
  "track_id": "cat_senior_03",
  "haptic_enabled": true,
  "bpm": 45.0,
  "events": [
    {
      "time": 0,
      "note": 60,
      "velocity": 1
    },
    {
      "time": 1333,
      "note": 58,
      "velocity": 1
    },
    {
      "time": 2666,
      "note": 57,
      "velocity": 1
    },
    {
      "time": 3999,
      "note": 58,
      "velocity": 1
    },
    {
      "time": 5333,
      "note": 58,
      "velocity": 1
    },
    {
      "time": 7999,
      "note": 60,
      "velocity": 1
    },
    {
      "time": 10666,
      "note": 60,
      "velocity": 1
    },
    {
      "time": 11999,
      "note": 58,
      "velocity": 1
    },
    {
      "time": 13333,
      "note": 57,
      "velocity": 1
    },
    {
      "time": 14666,
      "note": 58,
      "velocity": 1
    },
    {
      "time": 15999,
      "note": 58,
      "velocity": 1
    },
    {
      "time": 18666,
      "note": 60,
      "velocity": 1
    },
    {
      "time": 22666,
      "note": 60,
      "velocity": 7
    },
    {
      "time": 26666,
      "note": 60,
      "velocity": 7
    },
    {
      "time": 31999,
      "note": 60,
      "velocity": 7
    },
    {
      "time": 37333,
      "note": 60,
      "velocity": 7
    },
    {
      "time": 42666,
      "note": 60,
      "velocity": 7
    },
    {
      "time": 43999,
      "note": 58,
      "velocity": 7
    },
    {
      "time": 45333,
      "note": 57,
      "velocity": 7
    },
    {
      "time": 46666,
      "note": 58,
      "velocity": 7
    },
    {
      "time": 47999,
      "note": 58,
      "velocity": 7
    },
    {
      "time": 50666,
      "note": 60,
      "velocity": 7
    },
    {
      "time": 53333,
      "note": 60,
      "velocity": 7
    },
    {
      "time": 54666,
      "note": 58,
      "velocity": 7
    },
    {
      "time": 55999,
      "note": 57,
      "velocity": 7
    },
    {
      "time": 57333,
      "note": 58,
      "velocity": 7
    },
    {
      "time": 58666,
      "note": 58,
      "velocity": 7
    },
    {
      "time": 61333,
      "note": 60,
      "velocity": 16
    },
    {
      "time": 69333,
      "note": 39,
      "velocity": 72
    },
    {
      "time": 73333,
      "note": 38,
      "velocity": 72
    },
    {
      "time": 74666,
      "note": 38,
      "velocity": 72
    },
    {
      "time": 79999,
      "note": 39,
      "velocity": 72
    },
    {
      "time": 83999,
      "note": 38,
      "velocity": 72
    },
    {
      "time": 85333,
      "note": 38,
      "velocity": 72
    },
    {
      "time": 89333,
      "note": 60,
      "velocity": 24
    },
    {
      "time": 90666,
      "note": 60,
      "velocity": 24
    },
    {
      "time": 93333,
      "note": 39,
      "velocity": 72
    },
    {
      "time": 95999,
      "note": 38,
      "velocity": 72
    },
    {
      "time": 99999,
      "note": 60,
      "velocity": 24
    },
    {
      "time": 101333,
      "note": 60,
      "velocity": 24
    },
    {
      "time": 103999,
      "note": 39,
      "velocity": 72
    },
    {
      "time": 106666,
      "note": 39,
      "velocity": 72
    },
    {
      "time": 109333,
      "note": 60,
      "velocity": 40
    },
    {
      "time": 111999,
      "note": 60,
      "velocity": 40
    },
    {
      "time": 114666,
      "note": 38,
      "velocity": 72
    },
    {
      "time": 119999,
      "note": 60,
      "velocity": 40
    },
    {
      "time": 122666,
      "note": 60,
      "velocity": 40
    },
    {
      "time": 125333,
      "note": 38,
      "velocity": 72
    },
    {
      "time": 127999,
      "note": 39,
      "velocity": 72
    },
    {
      "time": 138666,
      "note": 38,
      "velocity": 72
    },
    {
      "time": 149333,
      "note": 58,
      "velocity": 5
    },
    {
      "time": 150666,
      "note": 57,
      "velocity": 5
    },
    {
      "time": 151999,
      "note": 60,
      "velocity": 5
    },
    {
      "time": 153333,
      "note": 58,
      "velocity": 5
    },
    {
      "time": 154666,
      "note": 58,
      "velocity": 5
    },
    {
      "time": 157333,
      "note": 58,
      "velocity": 5
    },
    {
      "time": 159999,
      "note": 60,
      "velocity": 26
    },
    {
      "time": 161333,
      "note": 60,
      "velocity": 26
    },
    {
      "time": 165333,
      "note": 58,
      "velocity": 26
    },
    {
      "time": 170666,
      "note": 58,
      "velocity": 26
    },
    {
      "time": 175999,
      "note": 58,
      "velocity": 26
    },
    {
      "time": 181333,
      "note": 58,
      "velocity": 26
    },
    {
      "time": 182666,
      "note": 57,
      "velocity": 26
    },
    {
      "time": 183999,
      "note": 60,
      "velocity": 26
    },
    {
      "time": 185333,
      "note": 58,
      "velocity": 26
    },
    {
      "time": 186666,
      "note": 58,
      "velocity": 26
    },
    {
      "time": 189333,
      "note": 58,
      "velocity": 26
    },
    {
      "time": 191999,
      "note": 58,
      "velocity": 26
    },
    {
      "time": 193333,
      "note": 53,
      "velocity": 26
    },
    {
      "time": 194666,
      "note": 60,
      "velocity": 26
    },
    {
      "time": 195999,
      "note": 58,
      "velocity": 26
    },
    {
      "time": 197333,
      "note": 58,
      "velocity": 26
    },
    {
      "time": 199999,
      "note": 58,
      "velocity": 33
    },
    {
      "time": 207999,
      "note": 38,
      "velocity": 72
    },
    {
      "time": 211999,
      "note": 38,
      "velocity": 72
    },
    {
      "time": 213333,
      "note": 37,
      "velocity": 72
    },
    {
      "time": 218666,
      "note": 38,
      "velocity": 72
    },
    {
      "time": 222666,
      "note": 38,
      "velocity": 72
    },
    {
      "time": 223999,
      "note": 60,
      "velocity": 40
    },
    {
      "time": 227999,
      "note": 60,
      "velocity": 40
    },
    {
      "time": 228999,
      "note": 60,
      "velocity": 40
    },
    {
      "time": 229333,
      "note": 60,
      "velocity": 40
    },
    {
      "time": 231999,
      "note": 41,
      "velocity": 72
    },
    {
      "time": 234666,
      "note": 60,
      "velocity": 40
    },
    {
      "time": 238666,
      "note": 60,
      "velocity": 40
    },
    {
      "time": 239666,
      "note": 60,
      "velocity": 40
    },
    {
      "time": 239999,
      "note": 60,
      "velocity": 40
    },
    {
      "time": 242666,
      "note": 41,
      "velocity": 72
    },
    {
      "time": 245333,
      "note": 39,
      "velocity": 72
    },
    {
      "time": 247999,
      "note": 60,
      "velocity": 17
    },
    {
      "time": 250666,
      "note": 60,
      "velocity": 17
    },
    {
      "time": 253333,
      "note": 38,
      "velocity": 72
    },
    {
      "time": 258666,
      "note": 60,
      "velocity": 17
    },
    {
      "time": 261333,
      "note": 60,
      "velocity": 17
    },
    {
      "time": 263999,
      "note": 38,
      "velocity": 72
    },
    {
      "time": 266666,
      "note": 39,
      "velocity": 72
    },
    {
      "time": 277333,
      "note": 38,
      "velocity": 72
    },
    {
      "time": 287999,
      "note": 60,
      "velocity": 1
    },
    {
      "time": 289333,
      "note": 58,
      "velocity": 1
    },
    {
      "time": 290666,
      "note": 57,
      "velocity": 1
    },
    {
      "time": 291999,
      "note": 58,
      "velocity": 1
    },
    {
      "time": 293333,
      "note": 58,
      "velocity": 1
    },
    {
      "time": 295999,
      "note": 60,
      "velocity": 1
    },
    {
      "time": 298666,
      "note": 60,
      "velocity": 1
    },
    {
      "time": 299999,
      "note": 58,
      "velocity": 1
    },
    {
      "time": 301333,
      "note": 57,
      "velocity": 1
    },
    {
      "time": 302666,
      "note": 58,
      "velocity": 1
    },
    {
      "time": 303999,
      "note": 58,
      "velocity": 1
    },
    {
      "time": 306666,
      "note": 60,
      "velocity": 1
    },
    {
      "time": 309333,
      "note": 58,
      "velocity": 1
    }
  ],
  "stats": {
    "total_events": 110,
    "duration_ms": 309333,
    "avg_velocity": 29,
    "note_range": "37-60"
  }
}