{
  "track_id": "cat_separation_07",
  "haptic_enabled": true,
  "bpm": 65.0,
  "events": [
    {
      "time": 0,
      "note": 59,
      "velocity": 24
    },
    {
      "time": 923,
      "note": 57,
      "velocity": 24
    },
    {
      "time": 1846,
      "note": 59,
      "velocity": 24
    },
    {
      "time": 3692,
      "note": 59,
      "velocity": 24
    },
    {
      "time": 7384,
      "note": 58,
      "velocity": 24
    },
    {
      "time": 11076,
      "note": 59,
      "velocity": 24
    },
    {
      "time": 14769,
      "note": 59,
      "velocity": 56
    },
    {
      "time": 15692,
      "note": 59,
      "velocity": 56
    },
    {
      "time": 19384,
      "note": 59,
      "velocity": 56
    },
    {
      "time": 22153,
      "note": 58,
      "velocity": 56
    },
    {
      "time": 23076,
      "note": 57,
      "velocity": 56
    },
    {
      "time": 25846,
      "note": 57,
      "velocity": 56
    },
    {
      "time": 26769,
      "note": 59,
      "velocity": 56
    },
    {
      "time": 29538,
      "note": 59,
      "velocity": 56
    },
    {
      "time": 30461,
      "note": 57,
      "velocity": 56
    },
    {
      "time": 31384,
      "note": 59,
      "velocity": 56
    },
    {
      "time": 33230,
      "note": 59,
      "velocity": 56
    },
    {
      "time": 36923,
      "note": 58,
      "velocity": 56
    },
    {
      "time": 40615,
      "note": 59,
      "velocity": 56
    },
    {
      "time": 44307,
      "note": 59,
      "velocity": 56
    },
    {
      "time": 45230,
      "note": 59,
      "velocity": 56
    },
    {
      "time": 48923,
      "note": 59,
      "velocity": 56
    },
    {
      "time": 51692,
      "note": 58,
      "velocity": 56
    },
    {
      "time": 52615,
      "note": 57,
      "velocity": 56
    },
    {
      "time": 55384,
      "note": 57,
      "velocity": 56
    },
    {
      "time": 56307,
      "note": 59,
      "velocity": 56
    },
    {
      "time": 59076,
      "note": 59,
      "velocity": 56
    },
    {
      "time": 59999,
      "note": 57,
      "velocity": 56
    },
    {
      "time": 60923,
      "note": 59,
      "velocity": 56
    },
    {
      "time": 62769,
      "note": 59,
      "velocity": 56
    },
    {
      "time": 66461,
      "note": 58,
      "velocity": 56
    },
    {
      "time": 70153,
      "note": 59,
      "velocity": 56
    },
    {
      "time": 73846,
      "note": 58,
      "velocity": 4
    },
    {
      "time": 77538,
      "note": 59,
      "velocity": 4
    },
    {
      "time": 81230,
      "note": 59,
      "velocity": 20
    },
    {
      "time": 82153,
      "note": 59,
      "velocity": 20
    },
    {
      "time": 88615,
      "note": 58,
      "velocity": 20
    },
    {
      "time": 89538,
      "note": 54,
      "velocity": 20
    },
    {
      "time": 93230,
      "note": 59,
      "velocity": 20
    },
    {
      "time": 95999,
      "note": 59,
      "velocity": 20
    },
    {
      "time": 96922,
      "note": 54,
      "velocity": 20
    },
    {
      "time": 97846,
      "note": 59,
      "velocity": 20
    },
    {
      "time": 99692,
      "note": 59,
      "velocity": 20
    },
    {
      "time": 103384,
      "note": 58,
      "velocity": 20
    },
    {
      "time": 107076,
      "note": 59,
      "velocity": 20
    },
    {
      "time": 108922,
      "note": 42,
      "velocity": 20
    },
    {
      "time": 110769,
      "note": 59,
      "velocity": 20
    },
    {
      "time": 111692,
      "note": 59,
      "velocity": 20
    },
    {
      "time": 114461,
      "note": 57,
      "velocity": 20
    },
    {
      "time": 115384,
      "note": 55,
      "velocity": 20
    },
    {
      "time": 118153,
      "note": 56,
      "velocity": 20
    },
    {
      "time": 119076,
      "note": 58,
      "velocity": 20
    },
    {
      "time": 121846,
      "note": 58,
      "velocity": 20
    },
    {
      "time": 122769,
      "note": 58,
      "velocity": 20
    },
    {
      "time": 125538,
      "note": 58,
      "velocity": 20
    },
    {
      "time": 126461,
      "note": 57,
      "velocity": 20
    },
    {
      "time": 127384,
      "note": 59,
      "velocity": 20
    },
    {
      "time": 129230,
      "note": 59,
      "velocity": 20
    },
    {
      "time": 132922,
      "note": 60,
      "velocity": 20
    },
    {
      "time": 136615,
      "note": 59,
      "velocity": 20
    },
    {
      "time": 138461,
      "note": 47,
      "velocity": 20
    },
    {
      "time": 140307,
      "note": 60,
      "velocity": 24
    },
    {
      "time": 141230,
      "note": 60,
      "velocity": 24
    },
    {
      "time": 144922,
      "note": 60,
      "velocity": 24
    },
    {
      "time": 147692,
      "note": 60,
      "velocity": 24
    },
    {
      "time": 148615,
      "note": 59,
      "velocity": 24
    },
    {
      "time": 151384,
      "note": 57,
      "velocity": 24
    },
    {
      "time": 152307,
      "note": 60,
      "velocity": 24
    },
    {
      "time": 155076,
      "note": 60,
      "velocity": 24
    },
    {
      "time": 155999,
      "note": 59,
      "velocity": 24
    },
    {
      "time": 156922,
      "note": 59,
      "velocity": 24
    },
    {
      "time": 158769,
      "note": 59,
      "velocity": 24
    },
    {
      "time": 162461,
      "note": 59,
      "velocity": 24
    },
    {
      "time": 166153,
      "note": 59,
      "velocity": 24
    },
    {
      "time": 169845,
      "note": 60,
      "velocity": 40
    },
    {
      "time": 170769,
      "note": 60,
      "velocity": 40
    },
    {
      "time": 173538,
      "note": 57,
      "velocity": 40
    },
    {
      "time": 174461,
      "note": 60,
      "velocity": 40
    },
    {
      "time": 177230,
      "note": 60,
      "velocity": 40
    },
    {
      "time": 178153,
      "note": 59,
      "velocity": 40
    },
    {
      "time": 180922,
      "note": 57,
      "velocity": 40
    },
    {
      "time": 181845,
      "note": 60,
      "velocity": 40
    },
    {
      "time": 184615,
      "note": 60,
      "velocity": 40
    },
    {
      "time": 185538,
      "note": 59,
      "velocity": 40
    },
    {
      "time": 186461,
      "note": 59,
      "velocity": 40
    },
    {
      "time": 188307,
      "note": 59,
      "velocity": 40
    },
    {
      "time": 191999,
      "note": 59,
      "velocity": 40
    },
    {
      "time": 195692,
      "note": 59,
      "velocity": 40
    },
    {
      "time": 199384,
      "note": 57,
      "velocity": 40
    },
    {
      "time": 200307,
      "note": 60,
      "velocity": 40
    },
    {
      "time": 203076,
      "note": 59,
      "velocity": 40
    },
    {
      "time": 203999,
      "note": 57,
      "velocity": 40
    },
    {
      "time": 206769,
      "note": 60,
      "velocity": 40
    },
    {
      "time": 207692,
      "note": 60,
      "velocity": 40
    },
    {
      "time": 210461,
      "note": 59,
      "velocity": 40
    },
    {
      "time": 211384,
      "note": 60,
      "velocity": 40
    },
    {
      "time": 214153,
      "note": 60,
      "velocity": 40
    },
    {
      "time": 215076,
      "note": 59,
      "velocity": 40
    },
    {
      "time": 215999,
      "note": 60,
      "velocity": 40
    },
    {
      "time": 217845,
      "note": 60,
      "velocity": 40
    },
    {
      "time": 221538,
      "note": 59,
      "velocity": 40
    },
    {
      "time": 225230,
      "note": 60,
      "velocity": 40
    },
    {
      "time": 228922,
      "note": 59,
      "velocity": 1
    },
    {
      "time": 229845,
      "note": 59,
      "velocity": 1
    },
    {
      "time": 233538,
      "note": 59,
      "velocity": 1
    },
    {
      "time": 236307,
      "note": 58,
      "velocity": 1
    },
    {
      "time": 237230,
      "note": 57,
      "velocity": 1
    },
    {
      "time": 239999,
      "note": 57,
      "velocity": 1
    },
    {
      "time": 240922,
      "note": 59,
      "velocity": 1
    },
    {
      "time": 243692,
      "note": 59,
      "velocity": 1
    },
    {
      "time": 244615,
      "note": 57,
      "velocity": 1
    },
    {
      "time": 245538,
      "note": 59,
      "velocity": 1
    },
    {
      "time": 247384,
      "note": 59,
      "velocity": 1
    },
    {
      "time": 251076,
      "note": 58,
      "velocity": 1
    },
    {
      "time": 254768,
      "note": 59,
      "velocity": 1
    },
    {
      "time": 258461,
      "note": 59,
      "velocity": 56
    },
    {
      "time": 259384,
      "note": 59,
      "velocity": 56
    },
    {
      "time": 263076,
      "note": 59,
      "velocity": 56
    },
    {
      "time": 265845,
      "note": 58,
      "velocity": 56
    },
    {
      "time": 266768,
      "note": 57,
      "velocity": 56
    },
    {
      "time": 269538,
      "note": 57,
      "velocity": 56
    },
    {
      "time": 270461,
      "note": 59,
      "velocity": 56
    },
    {
      "time": 273230,
      "note": 59,
      "velocity": 56
    },
    {
      "time": 274153,
      "note": 57,
      "velocity": 56
    },
    {
      "time": 275076,
      "note": 59,
      "velocity": 56
    },
    {
      "time": 276922,
      "note": 59,
      "velocity": 56
    },
    {
      "time": 280615,
      "note": 58,
      "velocity": 56
    },
    {
      "time": 284307,
      "note": 59,
      "velocity": 56
    },
    {
      "time": 287999,
      "note": 59,
      "velocity": 24
    },
    {
      "time": 288922,
      "note": 59,
      "velocity": 24
    },
    {
      "time": 292615,
      "note": 59,
      "velocity": 24
    },
    {
      "time": 295384,
      "note": 58,
      "velocity": 24
    },
    {
      "time": 296307,
      "note": 57,
      "velocity": 24
    },
    {
      "time": 299076,
      "note": 57,
      "velocity": 24
    },
    {
      "time": 299999,
      "note": 59,
      "velocity": 24
    },
    {
      "time": 302768,
      "note": 59,
      "velocity": 24
    },
    {
      "time": 303692,
      "note": 57,
      "velocity": 24
    },
    {
      "time": 304615,
      "note": 59,
      "velocity": 24
    },
    {
      "time": 306461,
      "note": 59,
      "velocity": 24
    },
    {
      "time": 310153,
      "note": 58,
      "velocity": 24
    },
    {
      "time": 313845,
      "note": 59,
      "velocity": 24
    },
    {
      "time": 317538,
      "note": 54,
      "velocity": 24
    }
  ],
  "stats": {
    "total_events": 142,
    "duration_ms": 317538,
    "avg_velocity": 33,
    "note_range": "42-60"
  }
}