{
  "track_id": "cat_energy_08",
  "haptic_enabled": true,
  "bpm": 120.0,
  "events": [
    {
      "time": 0,
      "note": 59,
      "velocity": 1
    },
    {
      "time": 2000,
      "note": 60,
      "velocity": 1
    },
    {
      "time": 4000,
      "note": 59,
      "velocity": 1
    },
    {
      "time": 6000,
      "note": 60,
      "velocity": 1
    },
    {
      "time": 8000,
      "note": 38,
      "velocity": 72
    },
    {
      "time": 10000,
      "note": 60,
      "velocity": 1
    },
    {
      "time": 12000,
      "note": 38,
      "velocity": 72
    },
    {
      "time": 14000,
      "note": 59,
      "velocity": 1
    },
    {
      "time": 16000,
      "note": 59,
      "velocity": 72
    },
    {
      "time": 18000,
      "note": 60,
      "velocity": 72
    },
    {
      "time": 18500,
      "note": 36,
      "velocity": 72
    },
    {
      "time": 20000,
      "note": 59,
      "velocity": 72
    },
    {
      "time": 22000,
      "note": 60,
      "velocity": 72
    },
    {
      "time": 22500,
      "note": 36,
      "velocity": 72
    },
    {
      "time": 23500,
      "note": 36,
      "velocity": 72
    },
    {
      "time": 24000,
      "note": 38,
      "velocity": 72
    },
    {
      "time": 24500,
      "note": 38,
      "velocity": 72
    },
    {
      "time": 25000,
      "note": 38,
      "velocity": 72
    },
    {
      "time": 25500,
      "note": 38,
      "velocity": 72
    },
    {
      "time": 26000,
      "note": 60,
      "velocity": 72
    },
    {
      "time": 28000,
      "note": 38,
      "velocity": 72
    },
    {
      "time": 30000,
      "note": 59,
      "velocity": 72
    },
    {
      "time": 32000,
      "note": 59,
      "velocity": 8
    },
    {
      "time": 34000,
      "note": 60,
      "velocity": 8
    },
    {
      "time": 36000,
      "note": 59,
      "velocity": 8
    },
    {
      "time": 38000,
      "note": 60,
      "velocity": 8
    },
    {
      "time": 40000,
      "note": 57,
      "velocity": 8
    },
    {
      "time": 42000,
      "note": 60,
      "velocity": 8
    },
    {
      "time": 44000,
      "note": 57,
      "velocity": 8
    },
    {
      "time": 46000,
      "note": 59,
      "velocity": 8
    },
    {
      "time": 48000,
      "note": 59,
      "velocity": 72
    },
    {
      "time": 48750,
      "note": 38,
      "velocity": 72
    },
    {
      "time": 50000,
      "note": 60,
      "velocity": 72
    },
    {
      "time": 50250,
      "note": 40,
      "velocity": 72
    },
    {
      "time": 50500,
      "note": 36,
      "velocity": 72
    },
    {
      "time": 51250,
      "note": 36,
      "velocity": 72
    },
    {
      "time": 52000,
      "note": 59,
      "velocity": 72
    },
    {
      "time": 54000,
      "note": 60,
      "velocity": 72
    },
    {
      "time": 54250,
      "note": 36,
      "velocity": 72
    },
    {
      "time": 54500,
      "note": 36,
      "velocity": 72
    },
    {
      "time": 55500,
      "note": 36,
      "velocity": 72
    },
    {
      "time": 55750,
      "note": 40,
      "velocity": 72
    },
    {
      "time": 56000,
      "note": 38,
      "velocity": 72
    },
    {
      "time": 56500,
      "note": 38,
      "velocity": 72
    },
    {
      "time": 56750,
      "note": 38,
      "velocity": 72
    },
    {
      "time": 57000,
      "note": 38,
      "velocity": 72
    },
    {
      "time": 57500,
      "note": 38,
      "velocity": 72
    },
    {
      "time": 58000,
      "note": 60,
      "velocity": 72
    },
    {
      "time": 60000,
      "note": 38,
      "velocity": 72
    },
    {
      "time": 62000,
      "note": 59,
      "velocity": 72
    },
    {
      "time": 62750,
      "note": 38,
      "velocity": 72
    },
    {
      "time": 64000,
      "note": 59,
      "velocity": 26
    },
    {
      "time": 66000,
      "note": 60,
      "velocity": 26
    },
    {
      "time": 68000,
      "note": 59,
      "velocity": 26
    },
    {
      "time": 70000,
      "note": 60,
      "velocity": 26
    },
    {
      "time": 72000,
      "note": 38,
      "velocity": 72
    },
    {
      "time": 74000,
      "note": 60,
      "velocity": 26
    },
    {
      "time": 76000,
      "note": 54,
      "velocity": 26
    },
    {
      "time": 78000,
      "note": 59,
      "velocity": 26
    },
    {
      "time": 80000,
      "note": 59,
      "velocity": 72
    },
    {
      "time": 80750,
      "note": 38,
      "velocity": 72
    },
    {
      "time": 82000,
      "note": 60,
      "velocity": 72
    },
    {
      "time": 82250,
      "note": 40,
      "velocity": 72
    },
    {
      "time": 82500,
      "note": 36,
      "velocity": 72
    },
    {
      "time": 83250,
      "note": 36,
      "velocity": 72
    },
    {
      "time": 84000,
      "note": 59,
      "velocity": 72
    },
    {
      "time": 86000,
      "note": 60,
      "velocity": 72
    },
    {
      "time": 86250,
      "note": 36,
      "velocity": 72
    },
    {
      "time": 86500,
      "note": 36,
      "velocity": 72
    },
    {
      "time": 87500,
      "note": 36,
      "velocity": 72
    },
    {
      "time": 87750,
      "note": 40,
      "velocity": 72
    },
    {
      "time": 88000,
      "note": 38,
      "velocity": 72
    },
    {
      "time": 88500,
      "note": 38,
      "velocity": 72
    },
    {
      "time": 88750,
      "note": 38,
      "velocity": 72
    },
    {
      "time": 89000,
      "note": 38,
      "velocity": 72
    },
    {
      "time": 89500,
      "note": 38,
      "velocity": 72
    },
    {
      "time": 90000,
      "note": 60,
      "velocity": 72
    },
    {
      "time": 92000,
      "note": 38,
      "velocity": 72
    },
    {
      "time": 94000,
      "note": 59,
      "velocity": 72
    },
    {
      "time": 94750,
      "note": 38,
      "velocity": 72
    },
    {
      "time": 97000,
      "note": 59,
      "velocity": 43
    },
    {
      "time": 98000,
      "note": 36,
      "velocity": 72
    },
    {
      "time": 99000,
      "note": 60,
      "velocity": 43
    },
    {
      "time": 101000,
      "note": 59,
      "velocity": 43
    },
    {
      "time": 102000,
      "note": 36,
      "velocity": 72
    },
    {
      "time": 103000,
      "note": 60,
      "velocity": 43
    },
    {
      "time": 104000,
      "note": 38,
      "velocity": 72
    },
    {
      "time": 107000,
      "note": 60,
      "velocity": 43
    },
    {
      "time": 108000,
      "note": 38,
      "velocity": 72
    },
    {
      "time": 109000,
      "note": 54,
      "velocity": 43
    },
    {
      "time": 111000,
      "note": 59,
      "velocity": 43
    },
    {
      "time": 112000,
      "note": 59,
      "velocity": 72
    },
    {
      "time": 112750,
      "note": 38,
      "velocity": 72
    },
    {
      "time": 114000,
      "note": 60,
      "velocity": 72
    },
    {
      "time": 114250,
      "note": 40,
      "velocity": 72
    },
    {
      "time": 114500,
      "note": 36,
      "velocity": 72
    },
    {
      "time": 115250,
      "note": 36,
      "velocity": 72
    },
    {
      "time": 116000,
      "note": 59,
      "velocity": 72
    },
    {
      "time": 118000,
      "note": 60,
      "velocity": 72
    },
    {
      "time": 118250,
      "note": 36,
      "velocity": 72
    },
    {
      "time": 118500,
      "note": 36,
      "velocity": 72
    },
    {
      "time": 119500,
      "note": 36,
      "velocity": 72
    },
    {
      "time": 119750,
      "note": 40,
      "velocity": 72
    },
    {
      "time": 120000,
      "note": 38,
      "velocity": 72
    },
    {
      "time": 120500,
      "note": 38,
      "velocity": 72
    },
    {
      "time": 120750,
      "note": 38,
      "velocity": 72
    },
    {
      "time": 121000,
      "note": 38,
      "velocity": 72
    },
    {
      "time": 121500,
      "note": 38,
      "velocity": 72
    },
    {
      "time": 122000,
      "note": 60,
      "velocity": 72
    },
    {
      "time": 124000,
      "note": 38,
      "velocity": 72
    },
    {
      "time": 126000,
      "note": 59,
      "velocity": 72
    },
    {
      "time": 126750,
      "note": 38,
      "velocity": 72
    },
    {
      "time": 129125,
      "note": 55,
      "velocity": 61
    },
    {
      "time": 129375,
      "note": 55,
      "velocity": 61
    },
    {
      "time": 129625,
      "note": 55,
      "velocity": 61
    },
    {
      "time": 129875,
      "note": 55,
      "velocity": 61
    },
    {
      "time": 130000,
      "note": 36,
      "velocity": 72
    },
    {
      "time": 131375,
      "note": 55,
      "velocity": 61
    },
    {
      "time": 131875,
      "note": 55,
      "velocity": 61
    },
    {
      "time": 133375,
      "note": 55,
      "velocity": 61
    },
    {
      "time": 133875,
      "note": 55,
      "velocity": 61
    },
    {
      "time": 134000,
      "note": 36,
      "velocity": 72
    },
    {
      "time": 135125,
      "note": 55,
      "velocity": 61
    },
    {
      "time": 135250,
      "note": 60,
      "velocity": 61
    },
    {
      "time": 135375,
      "note": 55,
      "velocity": 61
    },
    {
      "time": 135625,
      "note": 55,
      "velocity": 61
    },
    {
      "time": 135750,
      "note": 60,
      "velocity": 61
    },
    {
      "time": 135875,
      "note": 55,
      "velocity": 61
    },
    {
      "time": 136000,
      "note": 38,
      "velocity": 72
    },
    {
      "time": 137375,
      "note": 54,
      "velocity": 61
    },
    {
      "time": 137875,
      "note": 54,
      "velocity": 61
    },
    {
      "time": 139125,
      "note": 57,
      "velocity": 61
    },
    {
      "time": 139375,
      "note": 60,
      "velocity": 61
    },
    {
      "time": 139625,
      "note": 60,
      "velocity": 61
    },
    {
      "time": 139875,
      "note": 60,
      "velocity": 61
    },
    {
      "time": 140000,
      "note": 38,
      "velocity": 72
    },
    {
      "time": 141375,
      "note": 54,
      "velocity": 61
    },
    {
      "time": 141875,
      "note": 54,
      "velocity": 61
    },
    {
      "time": 143125,
      "note": 55,
      "velocity": 61
    },
    {
      "time": 143250,
      "note": 59,
      "velocity": 61
    },
    {
      "time": 143375,
      "note": 55,
      "velocity": 61
    },
    {
      "time": 143625,
      "note": 55,
      "velocity": 61
    },
    {
      "time": 143875,
      "note": 55,
      "velocity": 61
    },
    {
      "time": 144000,
      "note": 59,
      "velocity": 72
    },
    {
      "time": 144750,
      "note": 38,
      "velocity": 72
    },
    {
      "time": 146000,
      "note": 60,
      "velocity": 72
    },
    {
      "time": 146250,
      "note": 40,
      "velocity": 72
    },
    {
      "time": 146500,
      "note": 36,
      "velocity": 72
    },
    {
      "time": 147250,
      "note": 36,
      "velocity": 72
    },
    {
      "time": 148000,
      "note": 59,
      "velocity": 72
    },
    {
      "time": 150000,
      "note": 60,
      "velocity": 72
    },
    {
      "time": 150250,
      "note": 36,
      "velocity": 72
    },
    {
      "time": 150500,
      "note": 36,
      "velocity": 72
    },
    {
      "time": 151500,
      "note": 36,
      "velocity": 72
    },
    {
      "time": 151750,
      "note": 40,
      "velocity": 72
    },
    {
      "time": 152000,
      "note": 38,
      "velocity": 72
    },
    {
      "time": 152500,
      "note": 38,
      "velocity": 72
    },
    {
      "time": 152750,
      "note": 38,
      "velocity": 72
    },
    {
      "time": 153000,
      "note": 38,
      "velocity": 72
    },
    {
      "time": 153500,
      "note": 38,
      "velocity": 72
    },
    {
      "time": 154000,
      "note": 60,
      "velocity": 72
    },
    {
      "time": 156000,
      "note": 38,
      "velocity": 72
    },
    {
      "time": 158000,
      "note": 59,
      "velocity": 72
    },
    {
      "time": 158750,
      "note": 38,
      "velocity": 72
    },
    {
      "time": 160000,
      "note": 37,
      "velocity": 72
    },
    {
      "time": 162000,
      "note": 59,
      "velocity": 74
    },
    {
      "time": 164000,
      "note": 37,
      "velocity": 72
    },
    {
      "time": 166000,
      "note": 57,
      "velocity": 74
    },
    {
      "time": 169125,
      "note": 54,
      "velocity": 78
    },
    {
      "time": 169375,
      "note": 54,
      "velocity": 78
    },
    {
      "time": 169625,
      "note": 54,
      "velocity": 78
    },
    {
      "time": 169875,
      "note": 54,
      "velocity": 78
    },
    {
      "time": 171375,
      "note": 55,
      "velocity": 78
    },
    {
      "time": 171500,
      "note": 38,
      "velocity": 72
    },
    {
      "time": 171875,
      "note": 55,
      "velocity": 78
    },
    {
      "time": 173375,
      "note": 54,
      "velocity": 78
    },
    {
      "time": 173875,
      "note": 54,
      "velocity": 78
    },
    {
      "time": 174000,
      "note": 38,
      "velocity": 72
    },
    {
      "time": 175125,
      "note": 55,
      "velocity": 78
    },
    {
      "time": 175250,
      "note": 59,
      "velocity": 78
    },
    {
      "time": 175375,
      "note": 55,
      "velocity": 78
    },
    {
      "time": 175500,
      "note": 43,
      "velocity": 72
    },
    {
      "time": 175625,
      "note": 55,
      "velocity": 78
    },
    {
      "time": 175750,
      "note": 59,
      "velocity": 78
    },
    {
      "time": 175875,
      "note": 55,
      "velocity": 78
    },
    {
      "time": 176000,
      "note": 40,
      "velocity": 72
    },
    {
      "time": 177375,
      "note": 57,
      "velocity": 78
    },
    {
      "time": 177875,
      "note": 57,
      "velocity": 78
    },
    {
      "time": 179125,
      "note": 55,
      "velocity": 78
    },
    {
      "time": 179375,
      "note": 59,
      "velocity": 78
    },
    {
      "time": 179625,
      "note": 59,
      "velocity": 78
    },
    {
      "time": 179875,
      "note": 59,
      "velocity": 78
    },
    {
      "time": 180000,
      "note": 40,
      "velocity": 72
    },
    {
      "time": 181375,
      "note": 57,
      "velocity": 78
    },
    {
      "time": 181875,
      "note": 57,
      "velocity": 78
    },
    {
      "time": 183125,
      "note": 54,
      "velocity": 78
    },
    {
      "time": 183250,
      "note": 57,
      "velocity": 78
    },
    {
      "time": 183375,
      "note": 54,
      "velocity": 78
    },
    {
      "time": 183625,
      "note": 54,
      "velocity": 78
    },
    {
      "time": 183875,
      "note": 54,
      "velocity": 79
    },
    {
      "time": 184750,
      "note": 38,
      "velocity": 72
    },
    {
      "time": 186000,
      "note": 59,
      "velocity": 72
    },
    {
      "time": 186250,
      "note": 38,
      "velocity": 72
    },
    {
      "time": 187000,
      "note": 59,
      "velocity": 72
    },
    {
      "time": 187500,
      "note": 59,
      "velocity": 72
    },
    {
      "time": 190000,
      "note": 59,
      "velocity": 72
    },
    {
      "time": 191000,
      "note": 59,
      "velocity": 72
    },
    {
      "time": 191500,
      "note": 59,
      "velocity": 72
    },
    {
      "time": 191750,
      "note": 38,
      "velocity": 72
    },
    {
      "time": 192000,
      "note": 37,
      "velocity": 72
    },
    {
      "time": 192500,
      "note": 37,
      "velocity": 72
    },
    {
      "time": 192750,
      "note": 37,
      "velocity": 72
    },
    {
      "time": 193000,
      "note": 37,
      "velocity": 72
    },
    {
      "time": 193500,
      "note": 37,
      "velocity": 72
    },
    {
      "time": 195000,
      "note": 59,
      "velocity": 72
    },
    {
      "time": 196000,
      "note": 37,
      "velocity": 72
    },
    {
      "time": 198750,
      "note": 38,
      "velocity": 72
    },
    {
      "time": 201125,
      "note": 54,
      "velocity": 88
    },
    {
      "time": 201375,
      "note": 54,
      "velocity": 88
    },
    {
      "time": 201625,
      "note": 54,
      "velocity": 88
    },
    {
      "time": 201875,
      "note": 54,
      "velocity": 88
    },
    {
      "time": 202000,
      "note": 38,
      "velocity": 72
    },
    {
      "time": 203375,
      "note": 55,
      "velocity": 88
    },
    {
      "time": 203500,
      "note": 38,
      "velocity": 72
    },
    {
      "time": 203875,
      "note": 55,
      "velocity": 88
    },
    {
      "time": 205375,
      "note": 54,
      "velocity": 88
    },
    {
      "time": 205875,
      "note": 54,
      "velocity": 88
    },
    {
      "time": 207125,
      "note": 55,
      "velocity": 88
    },
    {
      "time": 207250,
      "note": 59,
      "velocity": 88
    },
    {
      "time": 207375,
      "note": 55,
      "velocity": 88
    },
    {
      "time": 207500,
      "note": 43,
      "velocity": 72
    },
    {
      "time": 207625,
      "note": 55,
      "velocity": 88
    },
    {
      "time": 207750,
      "note": 59,
      "velocity": 88
    },
    {
      "time": 207875,
      "note": 55,
      "velocity": 88
    },
    {
      "time": 208000,
      "note": 40,
      "velocity": 72
    },
    {
      "time": 209375,
      "note": 57,
      "velocity": 88
    },
    {
      "time": 209875,
      "note": 57,
      "velocity": 88
    },
    {
      "time": 211125,
      "note": 55,
      "velocity": 88
    },
    {
      "time": 211375,
      "note": 59,
      "velocity": 88
    },
    {
      "time": 211625,
      "note": 59,
      "velocity": 88
    },
    {
      "time": 211875,
      "note": 59,
      "velocity": 88
    },
    {
      "time": 212000,
      "note": 40,
      "velocity": 72
    },
    {
      "time": 213375,
      "note": 57,
      "velocity": 88
    },
    {
      "time": 213875,
      "note": 57,
      "velocity": 88
    },
    {
      "time": 215125,
      "note": 54,
      "velocity": 88
    },
    {
      "time": 215250,
      "note": 57,
      "velocity": 88
    },
    {
      "time": 215375,
      "note": 54,
      "velocity": 88
    },
    {
      "time": 215625,
      "note": 54,
      "velocity": 88
    },
    {
      "time": 215875,
      "note": 54,
      "velocity": 88
    },
    {
      "time": 216750,
      "note": 38,
      "velocity": 72
    },
    {
      "time": 218000,
      "note": 59,
      "velocity": 72
    },
    {
      "time": 218250,
      "note": 38,
      "velocity": 72
    },
    {
      "time": 219000,
      "note": 59,
      "velocity": 72
    },
    {
      "time": 219500,
      "note": 59,
      "velocity": 72
    },
    {
      "time": 222000,
      "note": 59,
      "velocity": 72
    },
    {
      "time": 223000,
      "note": 59,
      "velocity": 72
    },
    {
      "time": 223500,
      "note": 59,
      "velocity": 72
    },
    {
      "time": 223750,
      "note": 38,
      "velocity": 72
    },
    {
      "time": 224000,
      "note": 37,
      "velocity": 72
    },
    {
      "time": 224500,
      "note": 37,
      "velocity": 72
    },
    {
      "time": 224750,
      "note": 37,
      "velocity": 72
    },
    {
      "time": 225000,
      "note": 37,
      "velocity": 72
    },
    {
      "time": 225500,
      "note": 37,
      "velocity": 72
    },
    {
      "time": 227000,
      "note": 59,
      "velocity": 72
    },
    {
      "time": 227125,
      "note": 59,
      "velocity": 72
    },
    {
      "time": 228000,
      "note": 37,
      "velocity": 72
    },
    {
      "time": 230750,
      "note": 38,
      "velocity": 72
    },
    {
      "time": 232000,
      "note": 38,
      "velocity": 72
    },
    {
      "time": 234000,
      "note": 59,
      "velocity": 96
    },
    {
      "time": 237125,
      "note": 55,
      "velocity": 101
    },
    {
      "time": 237375,
      "note": 55,
      "velocity": 101
    },
    {
      "time": 237625,
      "note": 55,
      "velocity": 101
    },
    {
      "time": 237875,
      "note": 55,
      "velocity": 101
    },
    {
      "time": 238000,
      "note": 40,
      "velocity": 72
    },
    {
      "time": 239375,
      "note": 60,
      "velocity": 101
    },
    {
      "time": 239500,
      "note": 40,
      "velocity": 72
    },
    {
      "time": 239875,
      "note": 60,
      "velocity": 101
    },
    {
      "time": 241375,
      "note": 59,
      "velocity": 101
    },
    {
      "time": 241875,
      "note": 59,
      "velocity": 101
    },
    {
      "time": 242000,
      "note": 36,
      "velocity": 72
    },
    {
      "time": 243125,
      "note": 55,
      "velocity": 101
    },
    {
      "time": 243250,
      "note": 60,
      "velocity": 101
    },
    {
      "time": 243375,
      "note": 55,
      "velocity": 101
    },
    {
      "time": 243500,
      "note": 43,
      "velocity": 72
    },
    {
      "time": 243625,
      "note": 55,
      "velocity": 101
    },
    {
      "time": 243750,
      "note": 60,
      "velocity": 101
    },
    {
      "time": 243875,
      "note": 55,
      "velocity": 101
    },
    {
      "time": 244000,
      "note": 38,
      "velocity": 72
    },
    {
      "time": 245375,
      "note": 54,
      "velocity": 101
    },
    {
      "time": 245875,
      "note": 57,
      "velocity": 101
    },
    {
      "time": 247125,
      "note": 57,
      "velocity": 101
    },
    {
      "time": 247375,
      "note": 60,
      "velocity": 101
    },
    {
      "time": 247625,
      "note": 60,
      "velocity": 101
    },
    {
      "time": 247875,
      "note": 60,
      "velocity": 101
    },
    {
      "time": 248000,
      "note": 38,
      "velocity": 72
    },
    {
      "time": 249375,
      "note": 57,
      "velocity": 101
    },
    {
      "time": 251125,
      "note": 55,
      "velocity": 101
    },
    {
      "time": 251250,
      "note": 59,
      "velocity": 101
    },
    {
      "time": 251375,
      "note": 55,
      "velocity": 101
    },
    {
      "time": 251625,
      "note": 55,
      "velocity": 101
    },
    {
      "time": 251875,
      "note": 55,
      "velocity": 101
    },
    {
      "time": 252750,
      "note": 38,
      "velocity": 72
    },
    {
      "time": 254000,
      "note": 60,
      "velocity": 72
    },
    {
      "time": 254250,
      "note": 40,
      "velocity": 72
    },
    {
      "time": 254500,
      "note": 36,
      "velocity": 72
    },
    {
      "time": 255000,
      "note": 60,
      "velocity": 72
    },
    {
      "time": 255250,
      "note": 36,
      "velocity": 72
    },
    {
      "time": 255500,
      "note": 60,
      "velocity": 72
    },
    {
      "time": 258000,
      "note": 60,
      "velocity": 72
    },
    {
      "time": 258250,
      "note": 36,
      "velocity": 72
    },
    {
      "time": 258500,
      "note": 36,
      "velocity": 72
    },
    {
      "time": 259000,
      "note": 60,
      "velocity": 72
    },
    {
      "time": 259500,
      "note": 60,
      "velocity": 72
    },
    {
      "time": 259750,
      "note": 40,
      "velocity": 72
    },
    {
      "time": 260000,
      "note": 38,
      "velocity": 72
    },
    {
      "time": 260500,
      "note": 38,
      "velocity": 72
    },
    {
      "time": 260750,
      "note": 38,
      "velocity": 72
    },
    {
      "time": 261000,
      "note": 38,
      "velocity": 72
    },
    {
      "time": 261500,
      "note": 38,
      "velocity": 72
    },
    {
      "time": 263000,
      "note": 60,
      "velocity": 72
    },
    {
      "time": 263125,
      "note": 60,
      "velocity": 72
    },
    {
      "time": 264000,
      "note": 38,
      "velocity": 72
    },
    {
      "time": 266750,
      "note": 38,
      "velocity": 72
    },
    {
      "time": 269000,
      "note": 55,
      "velocity": 72
    },
    {
      "time": 269250,
      "note": 55,
      "velocity": 72
    },
    {
      "time": 269500,
      "note": 55,
      "velocity": 72
    },
    {
      "time": 269750,
      "note": 55,
      "velocity": 72
    },
    {
      "time": 270000,
      "note": 40,
      "velocity": 72
    },
    {
      "time": 271000,
      "note": 60,
      "velocity": 72
    },
    {
      "time": 271500,
      "note": 60,
      "velocity": 72
    },
    {
      "time": 273000,
      "note": 59,
      "velocity": 72
    },
    {
      "time": 273500,
      "note": 59,
      "velocity": 72
    },
    {
      "time": 274000,
      "note": 36,
      "velocity": 72
    },
    {
      "time": 275000,
      "note": 55,
      "velocity": 72
    },
    {
      "time": 275125,
      "note": 60,
      "velocity": 72
    },
    {
      "time": 275250,
      "note": 55,
      "velocity": 72
    },
    {
      "time": 275500,
      "note": 55,
      "velocity": 72
    },
    {
      "time": 275625,
      "note": 60,
      "velocity": 72
    },
    {
      "time": 275750,
      "note": 55,
      "velocity": 72
    },
    {
      "time": 276000,
      "note": 38,
      "velocity": 72
    },
    {
      "time": 277000,
      "note": 57,
      "velocity": 72
    },
    {
      "time": 277500,
      "note": 54,
      "velocity": 72
    },
    {
      "time": 279000,
      "note": 60,
      "velocity": 72
    },
    {
      "time": 279250,
      "note": 60,
      "velocity": 72
    },
    {
      "time": 279500,
      "note": 60,
      "velocity": 72
    },
    {
      "time": 279750,
      "note": 57,
      "velocity": 72
    },
    {
      "time": 280000,
      "note": 38,
      "velocity": 72
    },
    {
      "time": 281500,
      "note": 57,
      "velocity": 72
    },
    {
      "time": 283000,
      "note": 55,
      "velocity": 72
    },
    {
      "time": 283250,
      "note": 55,
      "velocity": 72
    },
    {
      "time": 283500,
      "note": 55,
      "velocity": 72
    },
    {
      "time": 283625,
      "note": 59,
      "velocity": 72
    },
    {
      "time": 283750,
      "note": 55,
      "velocity": 72
    },
    {
      "time": 284000,
      "note": 59,
      "velocity": 81
    },
    {
      "time": 286000,
      "note": 60,
      "velocity": 81
    },
    {
      "time": 288000,
      "note": 59,
      "velocity": 81
    },
    {
      "time": 290000,
      "note": 60,
      "velocity": 81
    },
    {
      "time": 292000,
      "note": 38,
      "velocity": 72
    },
    {
      "time": 294000,
      "note": 60,
      "velocity": 81
    },
    {
      "time": 296000,
      "note": 38,
      "velocity": 72
    },
    {
      "time": 298000,
      "note": 59,
      "velocity": 81
    },
    {
      "time": 300000,
      "note": 57,
      "velocity": 51
    },
    {
      "time": 302000,
      "note": 60,
      "velocity": 51
    },
    {
      "time": 304000,
      "note": 57,
      "velocity": 51
    },
    {
      "time": 306000,
      "note": 59,
      "velocity": 51
    },
    {
      "time": 308000,
      "note": 59,
      "velocity": 51
    }
  ],
  "stats": {
    "total_events": 366,
    "duration_ms": 308000,
    "avg_velocity": 71,
    "note_range": "36-60"
  }
}