{
  "track_id": "cat_separation_02",
  "haptic_enabled": true,
  "bpm": 60.0,
  "events": [
    {
      "time": 4000,
      "note": 59,
      "velocity": 72
    },
    {
      "time": 12000,
      "note": 59,
      "velocity": 72
    },
    {
      "time": 16000,
      "note": 37,
      "velocity": 24
    },
    {
      "time": 24000,
      "note": 37,
      "velocity": 24
    },
    {
      "time": 28000,
      "note": 59,
      "velocity": 72
    },
    {
      "time": 36000,
      "note": 59,
      "velocity": 72
    },
    {
      "time": 44000,
      "note": 59,
      "velocity": 72
    },
    {
      "time": 48000,
      "note": 37,
      "velocity": 56
    },
    {
      "time": 56000,
      "note": 37,
      "velocity": 56
    },
    {
      "time": 60000,
      "note": 59,
      "velocity": 72
    },
    {
      "time": 68000,
      "note": 59,
      "velocity": 72
    },
    {
      "time": 76000,
      "note": 59,
      "velocity": 72
    },
    {
      "time": 80000,
      "note": 37,
      "velocity": 56
    },
    {
      "time": 88000,
      "note": 37,
      "velocity": 56
    },
    {
      "time": 92000,
      "note": 59,
      "velocity": 72
    },
    {
      "time": 96000,
      "note": 37,
      "velocity": 4
    },
    {
      "time": 104000,
      "note": 37,
      "velocity": 4
    },
    {
      "time": 108000,
      "note": 59,
      "velocity": 72
    },
    {
      "time": 116000,
      "note": 59,
      "velocity": 72
    },
    {
      "time": 118000,
      "note": 59,
      "velocity": 72
    },
    {
      "time": 124000,
      "note": 59,
      "velocity": 72
    },
    {
      "time": 126000,
      "note": 59,
      "velocity": 72
    },
    {
      "time": 128000,
      "note": 37,
      "velocity": 20
    },
    {
      "time": 136000,
      "note": 37,
      "velocity": 20
    },
    {
      "time": 140000,
      "note": 59,
      "velocity": 72
    },
    {
      "time": 144000,
      "note": 57,
      "velocity": 72
    },
    {
      "time": 148000,
      "note": 59,
      "velocity": 72
    },
    {
      "time": 148500,
      "note": 54,
      "velocity": 72
    },
    {
      "time": 149000,
      "note": 59,
      "velocity": 72
    },
    {
      "time": 149500,
      "note": 59,
      "velocity": 72
    },
    {
      "time": 150500,
      "note": 59,
      "velocity": 72
    },
    {
      "time": 151000,
      "note": 59,
      "velocity": 72
    },
    {
      "time": 151500,
      "note": 59,
      "velocity": 72
    },
    {
      "time": 152000,
      "note": 58,
      "velocity": 72
    },
    {
      "time": 156000,
      "note": 60,
      "velocity": 72
    },
    {
      "time": 156500,
      "note": 55,
      "velocity": 72
    },
    {
      "time": 157000,
      "note": 60,
      "velocity": 72
    },
    {
      "time": 157500,
      "note": 55,
      "velocity": 72
    },
    {
      "time": 158000,
      "note": 60,
      "velocity": 72
    },
    {
      "time": 158500,
      "note": 55,
      "velocity": 72
    },
    {
      "time": 159000,
      "note": 60,
      "velocity": 72
    },
    {
      "time": 159500,
      "note": 55,
      "velocity": 72
    },
    {
      "time": 160000,
      "note": 56,
      "velocity": 72
    },
    {
      "time": 164000,
      "note": 57,
      "velocity": 72
    },
    {
      "time": 168000,
      "note": 60,
      "velocity": 72
    },
    {
      "time": 172000,
      "note": 59,
      "velocity": 72
    },
    {
      "time": 176000,
      "note": 59,
      "velocity": 72
    },
    {
      "time": 180000,
      "note": 59,
      "velocity": 72
    },
    {
      "time": 184000,
      "note": 60,
      "velocity": 72
    },
    {
      "time": 188000,
      "note": 57,
      "velocity": 72
    },
    {
      "time": 192500,
      "note": 60,
      "velocity": 72
    },
    {
      "time": 193500,
      "note": 60,
      "velocity": 72
    },
    {
      "time": 194500,
      "note": 60,
      "velocity": 72
    },
    {
      "time": 195500,
      "note": 60,
      "velocity": 72
    },
    {
      "time": 196500,
      "note": 57,
      "velocity": 72
    },
    {
      "time": 197500,
      "note": 57,
      "velocity": 72
    },
    {
      "time": 198500,
      "note": 57,
      "velocity": 72
    },
    {
      "time": 199500,
      "note": 57,
      "velocity": 72
    },
    {
      "time": 201500,
      "note": 59,
      "velocity": 72
    },
    {
      "time": 202000,
      "note": 59,
      "velocity": 72
    },
    {
      "time": 202500,
      "note": 59,
      "velocity": 72
    },
    {
      "time": 204000,
      "note": 60,
      "velocity": 72
    },
    {
      "time": 208000,
      "note": 59,
      "velocity": 72
    },
    {
      "time": 212000,
      "note": 59,
      "velocity": 72
    },
    {
      "time": 216000,
      "note": 58,
      "velocity": 72
    },
    {
      "time": 220000,
      "note": 60,
      "velocity": 72
    },
    {
      "time": 224000,
      "note": 60,
      "velocity": 72
    },
    {
      "time": 225000,
      "note": 60,
      "velocity": 72
    },
    {
      "time": 226000,
      "note": 60,
      "velocity": 72
    },
    {
      "time": 227000,
      "note": 60,
      "velocity": 72
    },
    {
      "time": 228000,
      "note": 57,
      "velocity": 72
    },
    {
      "time": 230000,
      "note": 57,
      "velocity": 72
    },
    {
      "time": 232000,
      "note": 55,
      "velocity": 72
    },
    {
      "time": 232500,
      "note": 58,
      "velocity": 72
    },
    {
      "time": 233000,
      "note": 58,
      "velocity": 72
    },
    {
      "time": 235000,
      "note": 58,
      "velocity": 72
    },
    {
      "time": 235500,
      "note": 58,
      "velocity": 72
    },
    {
      "time": 236000,
      "note": 58,
      "velocity": 72
    },
    {
      "time": 240000,
      "note": 60,
      "velocity": 72
    },
    {
      "time": 244000,
      "note": 38,
      "velocity": 40
    },
    {
      "time": 248000,
      "note": 37,
      "velocity": 1
    },
    {
      "time": 256000,
      "note": 37,
      "velocity": 1
    },
    {
      "time": 260000,
      "note": 59,
      "velocity": 72
    },
    {
      "time": 268000,
      "note": 59,
      "velocity": 72
    },
    {
      "time": 276000,
      "note": 59,
      "velocity": 72
    },
    {
      "time": 280000,
      "note": 37,
      "velocity": 56
    },
    {
      "time": 288000,
      "note": 37,
      "velocity": 56
    },
    {
      "time": 292000,
      "note": 59,
      "velocity": 72
    },
    {
      "time": 296000,
      "note": 37,
      "velocity": 24
    },
    {
      "time": 304000,
      "note": 37,
      "velocity": 24
    },
    {
      "time": 308000,
      "note": 59,
      "velocity": 72
    },
    {
      "time": 312000,
      "note": 52,
      "velocity": 72
    }
  ],
  "stats": {
    "total_events": 92,
    "duration_ms": 312000,
    "avg_velocity": 64,
    "note_range": "37-60"
  }
}