{
  "track_id": "cat_senior_08",
  "haptic_enabled": true,
  "bpm": 45.0,
  "events": [
    {
      "time": 2666,
      "note": 38,
      "velocity": 72
    },
    {
      "time": 5333,
      "note": 60,
      "velocity": 72
    },
    {
      "time": 10666,
      "note": 60,
      "velocity": 72
    },
    {
      "time": 13333,
      "note": 38,
      "velocity": 72
    },
    {
      "time": 15999,
      "note": 60,
      "velocity": 72
    },
    {
      "time": 18666,
      "note": 60,
      "velocity": 72
    },
    {
      "time": 21333,
      "note": 60,
      "velocity": 72
    },
    {
      "time": 26666,
      "note": 60,
      "velocity": 72
    },
    {
      "time": 31999,
      "note": 60,
      "velocity": 72
    },
    {
      "time": 37333,
      "note": 60,
      "velocity": 72
    },
    {
      "time": 45333,
      "note": 38,
      "velocity": 72
    },
    {
      "time": 47999,
      "note": 60,
      "velocity": 72
    },
    {
      "time": 53333,
      "note": 60,
      "velocity": 72
    },
    {
      "time": 55999,
      "note": 38,
      "velocity": 72
    },
    {
      "time": 58666,
      "note": 60,
      "velocity": 72
    },
    {
      "time": 61333,
      "note": 60,
      "velocity": 72
    },
    {
      "time": 67999,
      "note": 60,
      "velocity": 72
    },
    {
      "time": 69333,
      "note": 60,
      "velocity": 72
    },
    {
      "time": 78666,
      "note": 60,
      "velocity": 72
    },
    {
      "time": 79999,
      "note": 60,
      "velocity": 72
    },
    {
      "time": 85333,
      "note": 60,
      "velocity": 72
    },
    {
      "time": 90666,
      "note": 60,
      "velocity": 72
    },
    {
      "time": 95999,
      "note": 60,
      "velocity": 72
    },
    {
      "time": 101333,
      "note": 60,
      "velocity": 72
    },
    {
      "time": 106666,
      "note": 60,
      "velocity": 72
    },
    {
      "time": 109333,
      "note": 60,
      "velocity": 72
    },
    {
      "time": 111999,
      "note": 60,
      "velocity": 72
    },
    {
      "time": 114666,
      "note": 60,
      "velocity": 72
    },
    {
      "time": 117333,
      "note": 60,
      "velocity": 72
    },
    {
      "time": 119999,
      "note": 60,
      "velocity": 72
    },
    {
      "time": 127999,
      "note": 60,
      "velocity": 72
    },
    {
      "time": 133333,
      "note": 60,
      "velocity": 72
    },
    {
      "time": 138666,
      "note": 60,
      "velocity": 72
    },
    {
      "time": 143999,
      "note": 60,
      "velocity": 72
    },
    {
      "time": 151999,
      "note": 38,
      "velocity": 72
    },
    {
      "time": 162666,
      "note": 38,
      "velocity": 72
    },
    {
      "time": 165333,
      "note": 60,
      "velocity": 72
    },
    {
      "time": 194666,
      "note": 38,
      "velocity": 72
    },
    {
      "time": 205333,
      "note": 38,
      "velocity": 72
    },
    {
      "time": 207999,
      "note": 60,
      "velocity": 72
    },
    {
      "time": 213333,
      "note": 55,
      "velocity": 72
    },
    {
      "time": 218666,
      "note": 60,
      "velocity": 72
    },
    {
      "time": 229333,
      "note": 60,
      "velocity": 72
    },
    {
      "time": 250666,
      "note": 60,
      "velocity": 72
    },
    {
      "time": 255999,
      "note": 60,
      "velocity": 72
    },
    {
      "time": 258666,
      "note": 60,
      "velocity": 72
    },
    {
      "time": 261333,
      "note": 60,
      "velocity": 72
    },
    {
      "time": 263999,
      "note": 60,
      "velocity": 72
    },
    {
      "time": 266666,
      "note": 60,
      "velocity": 72
    },
    {
      "time": 269333,
      "note": 60,
      "velocity": 72
    },
    {
      "time": 277333,
      "note": 60,
      "velocity": 72
    },
    {
      "time": 282666,
      "note": 60,
      "velocity": 72
    },
    {
      "time": 287999,
      "note": 60,
      "velocity": 72
    },
    {
      "time": 293333,
      "note": 60,
      "velocity": 72
    },
    {
      "time": 301333,
      "note": 38,
      "velocity": 72
    },
    {
      "time": 303999,
      "note": 60,
      "velocity": 72
    },
    {
      "time": 309333,
      "note": 60,
      "velocity": 72
    },
    {
      "time": 311999,
      "note": 38,
      "velocity": 72
    },
    {
      "time": 314666,
      "note": 60,
      "velocity": 72
    },
    {
      "time": 317333,
      "note": 60,
      "velocity": 72
    },
    {
      "time": 319999,
      "note": 57,
      "velocity": 72
    }
  ],
  "stats": {
    "total_events": 61,
    "duration_ms": 319999,
    "avg_velocity": 72,
    "note_range": "38-60"
  }
}