{
  "track_id": "energy_06",
  "haptic_enabled": true,
  "bpm": 130.0,
  "events": [
    {
      "time": 0,
      "note": 36,
      "velocity": 56
    },
    {
      "time": 3692,
      "note": 36,
      "velocity": 56
    },
    {
      "time": 5538,
      "note": 36,
      "velocity": 56
    },
    {
      "time": 7384,
      "note": 41,
      "velocity": 56
    },
    {
      "time": 8769,
      "note": 46,
      "velocity": 56
    },
    {
      "time": 9230,
      "note": 44,
      "velocity": 56
    },
    {
      "time": 11076,
      "note": 46,
      "velocity": 56
    },
    {
      "time": 11999,
      "note": 44,
      "velocity": 57
    },
    {
      "time": 12923,
      "note": 44,
      "velocity": 58
    },
    {
      "time": 14769,
      "note": 36,
      "velocity": 61
    },
    {
      "time": 17076,
      "note": 39,
      "velocity": 61
    },
    {
      "time": 18461,
      "note": 60,
      "velocity": 61
    },
    {
      "time": 20307,
      "note": 58,
      "velocity": 61
    },
    {
      "time": 20769,
      "note": 58,
      "velocity": 61
    },
    {
      "time": 22153,
      "note": 58,
      "velocity": 61
    },
    {
      "time": 22615,
      "note": 60,
      "velocity": 61
    },
    {
      "time": 23999,
      "note": 60,
      "velocity": 61
    },
    {
      "time": 24461,
      "note": 58,
      "velocity": 61
    },
    {
      "time": 25846,
      "note": 60,
      "velocity": 61
    },
    {
      "time": 29999,
      "note": 36,
      "velocity": 67
    },
    {
      "time": 33692,
      "note": 36,
      "velocity": 67
    },
    {
      "time": 35076,
      "note": 36,
      "velocity": 67
    },
    {
      "time": 36923,
      "note": 41,
      "velocity": 67
    },
    {
      "time": 38307,
      "note": 46,
      "velocity": 67
    },
    {
      "time": 38769,
      "note": 44,
      "velocity": 67
    },
    {
      "time": 41076,
      "note": 46,
      "velocity": 66
    },
    {
      "time": 41999,
      "note": 44,
      "velocity": 63
    },
    {
      "time": 42461,
      "note": 44,
      "velocity": 62
    },
    {
      "time": 44307,
      "note": 46,
      "velocity": 57
    },
    {
      "time": 45230,
      "note": 44,
      "velocity": 57
    },
    {
      "time": 46153,
      "note": 44,
      "velocity": 57
    },
    {
      "time": 47999,
      "note": 36,
      "velocity": 62
    },
    {
      "time": 51692,
      "note": 36,
      "velocity": 62
    },
    {
      "time": 53538,
      "note": 36,
      "velocity": 62
    },
    {
      "time": 55384,
      "note": 41,
      "velocity": 62
    },
    {
      "time": 56769,
      "note": 46,
      "velocity": 62
    },
    {
      "time": 57230,
      "note": 44,
      "velocity": 62
    },
    {
      "time": 59076,
      "note": 46,
      "velocity": 62
    },
    {
      "time": 59999,
      "note": 44,
      "velocity": 64
    },
    {
      "time": 60923,
      "note": 44,
      "velocity": 65
    },
    {
      "time": 62769,
      "note": 36,
      "velocity": 68
    },
    {
      "time": 65076,
      "note": 39,
      "velocity": 68
    },
    {
      "time": 66461,
      "note": 60,
      "velocity": 68
    },
    {
      "time": 68307,
      "note": 58,
      "velocity": 68
    },
    {
      "time": 68769,
      "note": 58,
      "velocity": 68
    },
    {
      "time": 70153,
      "note": 58,
      "velocity": 68
    },
    {
      "time": 70615,
      "note": 60,
      "velocity": 68
    },
    {
      "time": 71999,
      "note": 60,
      "velocity": 68
    },
    {
      "time": 72461,
      "note": 58,
      "velocity": 68
    },
    {
      "time": 73846,
      "note": 60,
      "velocity": 68
    },
    {
      "time": 77538,
      "note": 46,
      "velocity": 58
    },
    {
      "time": 78461,
      "note": 44,
      "velocity": 58
    },
    {
      "time": 79384,
      "note": 44,
      "velocity": 58
    },
    {
      "time": 81230,
      "note": 36,
      "velocity": 64
    },
    {
      "time": 84922,
      "note": 36,
      "velocity": 64
    },
    {
      "time": 86769,
      "note": 36,
      "velocity": 64
    },
    {
      "time": 88615,
      "note": 41,
      "velocity": 64
    },
    {
      "time": 89999,
      "note": 46,
      "velocity": 64
    },
    {
      "time": 90461,
      "note": 44,
      "velocity": 64
    },
    {
      "time": 92307,
      "note": 46,
      "velocity": 64
    },
    {
      "time": 93230,
      "note": 44,
      "velocity": 65
    },
    {
      "time": 94153,
      "note": 44,
      "velocity": 66
    },
    {
      "time": 95999,
      "note": 36,
      "velocity": 69
    },
    {
      "time": 98307,
      "note": 39,
      "velocity": 69
    },
    {
      "time": 99692,
      "note": 60,
      "velocity": 69
    },
    {
      "time": 101538,
      "note": 58,
      "velocity": 69
    },
    {
      "time": 101999,
      "note": 58,
      "velocity": 69
    },
    {
      "time": 103384,
      "note": 58,
      "velocity": 69
    },
    {
      "time": 103846,
      "note": 60,
      "velocity": 69
    },
    {
      "time": 105230,
      "note": 60,
      "velocity": 69
    },
    {
      "time": 105692,
      "note": 58,
      "velocity": 69
    },
    {
      "time": 107076,
      "note": 60,
      "velocity": 69
    },
    {
      "time": 110769,
      "note": 41,
      "velocity": 59
    },
    {
      "time": 112153,
      "note": 46,
      "velocity": 59
    },
    {
      "time": 112615,
      "note": 44,
      "velocity": 59
    },
    {
      "time": 114461,
      "note": 46,
      "velocity": 59
    },
    {
      "time": 115384,
      "note": 44,
      "velocity": 59
    },
    {
      "time": 116307,
      "note": 44,
      "velocity": 59
    },
    {
      "time": 118153,
      "note": 36,
      "velocity": 65
    },
    {
      "time": 121846,
      "note": 36,
      "velocity": 65
    },
    {
      "time": 123692,
      "note": 36,
      "velocity": 65
    },
    {
      "time": 125538,
      "note": 41,
      "velocity": 65
    },
    {
      "time": 126922,
      "note": 46,
      "velocity": 65
    },
    {
      "time": 127384,
      "note": 44,
      "velocity": 65
    },
    {
      "time": 129230,
      "note": 46,
      "velocity": 65
    },
    {
      "time": 130153,
      "note": 44,
      "velocity": 66
    },
    {
      "time": 131076,
      "note": 44,
      "velocity": 68
    },
    {
      "time": 132922,
      "note": 36,
      "velocity": 70
    },
    {
      "time": 135230,
      "note": 39,
      "velocity": 70
    },
    {
      "time": 136615,
      "note": 60,
      "velocity": 70
    },
    {
      "time": 138461,
      "note": 58,
      "velocity": 70
    },
    {
      "time": 138922,
      "note": 58,
      "velocity": 70
    },
    {
      "time": 140307,
      "note": 58,
      "velocity": 70
    },
    {
      "time": 140769,
      "note": 60,
      "velocity": 70
    },
    {
      "time": 142153,
      "note": 60,
      "velocity": 70
    },
    {
      "time": 142615,
      "note": 58,
      "velocity": 70
    },
    {
      "time": 143999,
      "note": 60,
      "velocity": 70
    },
    {
      "time": 147692,
      "note": 46,
      "velocity": 60
    },
    {
      "time": 148615,
      "note": 44,
      "velocity": 60
    },
    {
      "time": 149538,
      "note": 44,
      "velocity": 60
    },
    {
      "time": 151384,
      "note": 36,
      "velocity": 66
    },
    {
      "time": 155076,
      "note": 36,
      "velocity": 66
    },
    {
      "time": 156922,
      "note": 36,
      "velocity": 66
    },
    {
      "time": 158769,
      "note": 41,
      "velocity": 66
    },
    {
      "time": 160153,
      "note": 46,
      "velocity": 66
    },
    {
      "time": 160615,
      "note": 44,
      "velocity": 66
    },
    {
      "time": 162461,
      "note": 46,
      "velocity": 66
    },
    {
      "time": 163384,
      "note": 44,
      "velocity": 67
    },
    {
      "time": 164307,
      "note": 44,
      "velocity": 69
    },
    {
      "time": 166153,
      "note": 36,
      "velocity": 72
    },
    {
      "time": 168461,
      "note": 39,
      "velocity": 72
    },
    {
      "time": 169845,
      "note": 60,
      "velocity": 72
    },
    {
      "time": 171692,
      "note": 58,
      "velocity": 72
    },
    {
      "time": 172153,
      "note": 58,
      "velocity": 72
    },
    {
      "time": 173538,
      "note": 58,
      "velocity": 72
    },
    {
      "time": 173999,
      "note": 60,
      "velocity": 72
    },
    {
      "time": 175384,
      "note": 60,
      "velocity": 72
    },
    {
      "time": 175845,
      "note": 58,
      "velocity": 72
    },
    {
      "time": 177230,
      "note": 60,
      "velocity": 72
    },
    {
      "time": 180922,
      "note": 41,
      "velocity": 61
    },
    {
      "time": 182307,
      "note": 46,
      "velocity": 61
    },
    {
      "time": 182769,
      "note": 44,
      "velocity": 61
    },
    {
      "time": 184615,
      "note": 46,
      "velocity": 61
    },
    {
      "time": 185538,
      "note": 44,
      "velocity": 61
    },
    {
      "time": 186461,
      "note": 44,
      "velocity": 61
    },
    {
      "time": 188307,
      "note": 36,
      "velocity": 66
    },
    {
      "time": 191999,
      "note": 36,
      "velocity": 66
    },
    {
      "time": 193845,
      "note": 36,
      "velocity": 66
    },
    {
      "time": 195692,
      "note": 41,
      "velocity": 66
    },
    {
      "time": 197076,
      "note": 46,
      "velocity": 66
    },
    {
      "time": 197538,
      "note": 44,
      "velocity": 66
    },
    {
      "time": 199384,
      "note": 46,
      "velocity": 66
    },
    {
      "time": 200307,
      "note": 44,
      "velocity": 68
    },
    {
      "time": 201230,
      "note": 44,
      "velocity": 69
    },
    {
      "time": 203076,
      "note": 36,
      "velocity": 71
    },
    {
      "time": 205384,
      "note": 39,
      "velocity": 71
    },
    {
      "time": 206769,
      "note": 60,
      "velocity": 71
    },
    {
      "time": 208615,
      "note": 58,
      "velocity": 71
    },
    {
      "time": 209076,
      "note": 58,
      "velocity": 71
    },
    {
      "time": 210461,
      "note": 58,
      "velocity": 71
    },
    {
      "time": 210922,
      "note": 60,
      "velocity": 71
    },
    {
      "time": 212307,
      "note": 60,
      "velocity": 71
    },
    {
      "time": 212769,
      "note": 58,
      "velocity": 71
    },
    {
      "time": 214153,
      "note": 60,
      "velocity": 71
    },
    {
      "time": 225230,
      "note": 39,
      "velocity": 60
    },
    {
      "time": 226615,
      "note": 44,
      "velocity": 60
    },
    {
      "time": 227076,
      "note": 42,
      "velocity": 60
    },
    {
      "time": 228922,
      "note": 44,
      "velocity": 60
    },
    {
      "time": 229845,
      "note": 42,
      "velocity": 61
    },
    {
      "time": 230769,
      "note": 42,
      "velocity": 62
    },
    {
      "time": 234922,
      "note": 37,
      "velocity": 65
    },
    {
      "time": 238615,
      "note": 37,
      "velocity": 65
    },
    {
      "time": 254768,
      "note": 39,
      "velocity": 70
    },
    {
      "time": 256153,
      "note": 44,
      "velocity": 70
    },
    {
      "time": 256615,
      "note": 42,
      "velocity": 70
    },
    {
      "time": 258461,
      "note": 44,
      "velocity": 70
    },
    {
      "time": 259384,
      "note": 42,
      "velocity": 67
    },
    {
      "time": 260307,
      "note": 42,
      "velocity": 64
    },
    {
      "time": 262153,
      "note": 41,
      "velocity": 58
    },
    {
      "time": 263538,
      "note": 46,
      "velocity": 58
    },
    {
      "time": 263999,
      "note": 44,
      "velocity": 58
    },
    {
      "time": 265845,
      "note": 46,
      "velocity": 58
    },
    {
      "time": 266768,
      "note": 44,
      "velocity": 58
    },
    {
      "time": 267692,
      "note": 44,
      "velocity": 58
    },
    {
      "time": 269538,
      "note": 36,
      "velocity": 65
    },
    {
      "time": 273230,
      "note": 36,
      "velocity": 65
    },
    {
      "time": 275076,
      "note": 36,
      "velocity": 65
    },
    {
      "time": 276922,
      "note": 41,
      "velocity": 65
    },
    {
      "time": 278307,
      "note": 46,
      "velocity": 65
    },
    {
      "time": 278768,
      "note": 44,
      "velocity": 65
    },
    {
      "time": 280615,
      "note": 46,
      "velocity": 65
    },
    {
      "time": 281538,
      "note": 44,
      "velocity": 65
    },
    {
      "time": 282461,
      "note": 44,
      "velocity": 65
    },
    {
      "time": 284307,
      "note": 36,
      "velocity": 64
    },
    {
      "time": 286615,
      "note": 39,
      "velocity": 64
    },
    {
      "time": 287999,
      "note": 60,
      "velocity": 64
    },
    {
      "time": 289845,
      "note": 58,
      "velocity": 64
    },
    {
      "time": 290307,
      "note": 58,
      "velocity": 64
    },
    {
      "time": 291692,
      "note": 58,
      "velocity": 64
    },
    {
      "time": 292153,
      "note": 60,
      "velocity": 64
    },
    {
      "time": 293538,
      "note": 60,
      "velocity": 64
    },
    {
      "time": 293999,
      "note": 58,
      "velocity": 64
    },
    {
      "time": 295384,
      "note": 60,
      "velocity": 64
    },
    {
      "time": 299076,
      "note": 36,
      "velocity": 57
    },
    {
      "time": 302768,
      "note": 36,
      "velocity": 57
    },
    {
      "time": 304615,
      "note": 36,
      "velocity": 57
    },
    {
      "time": 306461,
      "note": 41,
      "velocity": 57
    },
    {
      "time": 307845,
      "note": 46,
      "velocity": 57
    },
    {
      "time": 308307,
      "note": 44,
      "velocity": 57
    },
    {
      "time": 310153,
      "note": 46,
      "velocity": 57
    },
    {
      "time": 311076,
      "note": 44,
      "velocity": 57
    },
    {
      "time": 311999,
      "note": 44,
      "velocity": 57
    },
    {
      "time": 313845,
      "note": 51,
      "velocity": 57
    }
  ],
  "stats": {
    "total_events": 193,
    "duration_ms": 313845,
    "avg_velocity": 64,
    "note_range": "36-60"
  }
}