{
  "track_id": "senior_02",
  "haptic_enabled": true,
  "bpm": 60.0,
  "events": [
    {
      "time": 0,
      "note": 56,
      "velocity": 1
    },
    {
      "time": 4000,
      "note": 59,
      "velocity": 1
    },
    {
      "time": 8000,
      "note": 59,
      "velocity": 1
    },
    {
      "time": 12000,
      "note": 58,
      "velocity": 1
    },
    {
      "time": 16000,
      "note": 59,
      "velocity": 1
    },
    {
      "time": 20000,
      "note": 58,
      "velocity": 1
    },
    {
      "time": 24000,
      "note": 56,
      "velocity": 1
    },
    {
      "time": 28000,
      "note": 56,
      "velocity": 1
    },
    {
      "time": 32000,
      "note": 56,
      "velocity": 1
    },
    {
      "time": 36000,
      "note": 59,
      "velocity": 1
    },
    {
      "time": 40000,
      "note": 39,
      "velocity": 4
    },
    {
      "time": 48000,
      "note": 39,
      "velocity": 4
    },
    {
      "time": 56000,
      "note": 37,
      "velocity": 4
    },
    {
      "time": 60000,
      "note": 39,
      "velocity": 4
    },
    {
      "time": 64000,
      "note": 37,
      "velocity": 4
    },
    {
      "time": 68000,
      "note": 59,
      "velocity": 4
    },
    {
      "time": 72000,
      "note": 59,
      "velocity": 1
    },
    {
      "time": 76000,
      "note": 58,
      "velocity": 1
    },
    {
      "time": 80000,
      "note": 59,
      "velocity": 1
    },
    {
      "time": 84000,
      "note": 58,
      "velocity": 1
    },
    {
      "time": 88000,
      "note": 56,
      "velocity": 1
    },
    {
      "time": 92000,
      "note": 56,
      "velocity": 1
    },
    {
      "time": 96000,
      "note": 56,
      "velocity": 1
    },
    {
      "time": 100000,
      "note": 59,
      "velocity": 1
    },
    {
      "time": 104000,
      "note": 39,
      "velocity": 1
    },
    {
      "time": 112000,
      "note": 39,
      "velocity": 1
    },
    {
      "time": 120000,
      "note": 37,
      "velocity": 1
    },
    {
      "time": 124000,
      "note": 39,
      "velocity": 1
    },
    {
      "time": 128000,
      "note": 37,
      "velocity": 1
    },
    {
      "time": 132000,
      "note": 59,
      "velocity": 1
    },
    {
      "time": 136000,
      "note": 59,
      "velocity": 7
    },
    {
      "time": 140000,
      "note": 58,
      "velocity": 7
    },
    {
      "time": 144000,
      "note": 59,
      "velocity": 7
    },
    {
      "time": 148000,
      "note": 58,
      "velocity": 7
    },
    {
      "time": 152000,
      "note": 56,
      "velocity": 7
    },
    {
      "time": 156000,
      "note": 56,
      "velocity": 7
    },
    {
      "time": 160000,
      "note": 56,
      "velocity": 7
    },
    {
      "time": 164000,
      "note": 59,
      "velocity": 7
    },
    {
      "time": 168000,
      "note": 60,
      "velocity": 1
    },
    {
      "time": 172000,
      "note": 58,
      "velocity": 1
    },
    {
      "time": 176000,
      "note": 58,
      "velocity": 3
    },
    {
      "time": 180000,
      "note": 60,
      "velocity": 3
    },
    {
      "time": 184000,
      "note": 58,
      "velocity": 3
    },
    {
      "time": 188000,
      "note": 60,
      "velocity": 3
    },
    {
      "time": 192000,
      "note": 60,
      "velocity": 3
    },
    {
      "time": 196000,
      "note": 58,
      "velocity": 3
    },
    {
      "time": 200000,
      "note": 60,
      "velocity": 3
    },
    {
      "time": 204000,
      "note": 58,
      "velocity": 3
    },
    {
      "time": 208000,
      "note": 37,
      "velocity": 8
    },
    {
      "time": 216000,
      "note": 37,
      "velocity": 8
    },
    {
      "time": 224000,
      "note": 60,
      "velocity": 8
    },
    {
      "time": 228000,
      "note": 37,
      "velocity": 8
    },
    {
      "time": 232000,
      "note": 60,
      "velocity": 8
    },
    {
      "time": 236000,
      "note": 58,
      "velocity": 8
    },
    {
      "time": 240000,
      "note": 56,
      "velocity": 1
    },
    {
      "time": 244000,
      "note": 56,
      "velocity": 1
    },
    {
      "time": 248000,
      "note": 56,
      "velocity": 1
    },
    {
      "time": 252000,
      "note": 59,
      "velocity": 1
    },
    {
      "time": 256000,
      "note": 59,
      "velocity": 1
    },
    {
      "time": 260000,
      "note": 58,
      "velocity": 1
    },
    {
      "time": 264000,
      "note": 59,
      "velocity": 1
    },
    {
      "time": 268000,
      "note": 58,
      "velocity": 1
    },
    {
      "time": 272000,
      "note": 56,
      "velocity": 1
    },
    {
      "time": 276000,
      "note": 56,
      "velocity": 1
    },
    {
      "time": 280000,
      "note": 56,
      "velocity": 1
    },
    {
      "time": 284000,
      "note": 59,
      "velocity": 1
    },
    {
      "time": 288000,
      "note": 39,
      "velocity": 4
    },
    {
      "time": 296000,
      "note": 39,
      "velocity": 4
    },
    {
      "time": 304000,
      "note": 37,
      "velocity": 4
    },
    {
      "time": 308000,
      "note": 39,
      "velocity": 4
    },
    {
      "time": 312000,
      "note": 37,
      "velocity": 4
    },
    {
      "time": 316000,
      "note": 59,
      "velocity": 4
    },
    {
      "time": 320000,
      "note": 58,
      "velocity": 4
    }
  ],
  "stats": {
    "total_events": 73,
    "duration_ms": 320000,
    "avg_velocity": 3,
    "note_range": "37-60"
  }
}