{
  "track_id": "sleep_02",
  "haptic_enabled": true,
  "bpm": 60.0,
  "events": [
    {
      "time": 0,
      "note": 59,
      "velocity": 1
    },
    {
      "time": 1000,
      "note": 59,
      "velocity": 1
    },
    {
      "time": 3000,
      "note": 60,
      "velocity": 1
    },
    {
      "time": 4000,
      "note": 59,
      "velocity": 1
    },
    {
      "time": 7000,
      "note": 59,
      "velocity": 1
    },
    {
      "time": 8000,
      "note": 57,
      "velocity": 1
    },
    {
      "time": 9000,
      "note": 59,
      "velocity": 1
    },
    {
      "time": 11000,
      "note": 60,
      "velocity": 1
    },
    {
      "time": 12000,
      "note": 59,
      "velocity": 1
    },
    {
      "time": 15000,
      "note": 59,
      "velocity": 1
    },
    {
      "time": 16000,
      "note": 59,
      "velocity": 1
    },
    {
      "time": 18000,
      "note": 60,
      "velocity": 1
    },
    {
      "time": 20000,
      "note": 59,
      "velocity": 1
    },
    {
      "time": 22000,
      "note": 57,
      "velocity": 1
    },
    {
      "time": 24000,
      "note": 59,
      "velocity": 1
    },
    {
      "time": 28000,
      "note": 59,
      "velocity": 1
    },
    {
      "time": 30000,
      "note": 57,
      "velocity": 6
    },
    {
      "time": 32000,
      "note": 59,
      "velocity": 11
    },
    {
      "time": 35000,
      "note": 57,
      "velocity": 11
    },
    {
      "time": 36000,
      "note": 57,
      "velocity": 11
    },
    {
      "time": 38000,
      "note": 55,
      "velocity": 11
    },
    {
      "time": 40000,
      "note": 55,
      "velocity": 11
    },
    {
      "time": 42000,
      "note": 54,
      "velocity": 11
    },
    {
      "time": 44000,
      "note": 57,
      "velocity": 11
    },
    {
      "time": 46000,
      "note": 55,
      "velocity": 11
    },
    {
      "time": 48000,
      "note": 57,
      "velocity": 11
    },
    {
      "time": 50000,
      "note": 60,
      "velocity": 11
    },
    {
      "time": 52000,
      "note": 60,
      "velocity": 11
    },
    {
      "time": 54000,
      "note": 59,
      "velocity": 11
    },
    {
      "time": 56000,
      "note": 57,
      "velocity": 11
    },
    {
      "time": 58000,
      "note": 60,
      "velocity": 16
    },
    {
      "time": 60000,
      "note": 60,
      "velocity": 21
    },
    {
      "time": 62000,
      "note": 59,
      "velocity": 25
    },
    {
      "time": 64000,
      "note": 59,
      "velocity": 30
    },
    {
      "time": 65000,
      "note": 59,
      "velocity": 30
    },
    {
      "time": 66000,
      "note": 40,
      "velocity": 30
    },
    {
      "time": 67000,
      "note": 60,
      "velocity": 30
    },
    {
      "time": 68000,
      "note": 59,
      "velocity": 30
    },
    {
      "time": 71000,
      "note": 59,
      "velocity": 30
    },
    {
      "time": 72000,
      "note": 57,
      "velocity": 30
    },
    {
      "time": 73000,
      "note": 59,
      "velocity": 30
    },
    {
      "time": 74000,
      "note": 40,
      "velocity": 30
    },
    {
      "time": 75000,
      "note": 60,
      "velocity": 30
    },
    {
      "time": 76000,
      "note": 59,
      "velocity": 30
    },
    {
      "time": 79000,
      "note": 59,
      "velocity": 30
    },
    {
      "time": 80000,
      "note": 59,
      "velocity": 30
    },
    {
      "time": 81000,
      "note": 40,
      "velocity": 30
    },
    {
      "time": 82000,
      "note": 60,
      "velocity": 30
    },
    {
      "time": 84000,
      "note": 59,
      "velocity": 30
    },
    {
      "time": 86000,
      "note": 57,
      "velocity": 30
    },
    {
      "time": 88000,
      "note": 59,
      "velocity": 30
    },
    {
      "time": 92000,
      "note": 59,
      "velocity": 15
    },
    {
      "time": 94000,
      "note": 57,
      "velocity": 7
    },
    {
      "time": 96000,
      "note": 59,
      "velocity": 1
    },
    {
      "time": 100000,
      "note": 59,
      "velocity": 1
    },
    {
      "time": 102000,
      "note": 57,
      "velocity": 1
    },
    {
      "time": 104000,
      "note": 59,
      "velocity": 18
    },
    {
      "time": 105000,
      "note": 59,
      "velocity": 18
    },
    {
      "time": 107000,
      "note": 60,
      "velocity": 18
    },
    {
      "time": 108000,
      "note": 59,
      "velocity": 18
    },
    {
      "time": 111000,
      "note": 59,
      "velocity": 18
    },
    {
      "time": 112000,
      "note": 57,
      "velocity": 18
    },
    {
      "time": 113000,
      "note": 59,
      "velocity": 18
    },
    {
      "time": 115000,
      "note": 60,
      "velocity": 18
    },
    {
      "time": 116000,
      "note": 59,
      "velocity": 18
    },
    {
      "time": 119000,
      "note": 59,
      "velocity": 18
    },
    {
      "time": 120000,
      "note": 59,
      "velocity": 18
    },
    {
      "time": 122000,
      "note": 60,
      "velocity": 18
    },
    {
      "time": 124000,
      "note": 59,
      "velocity": 18
    },
    {
      "time": 126000,
      "note": 57,
      "velocity": 18
    },
    {
      "time": 128000,
      "note": 59,
      "velocity": 18
    },
    {
      "time": 132000,
      "note": 59,
      "velocity": 28
    },
    {
      "time": 134000,
      "note": 57,
      "velocity": 33
    },
    {
      "time": 136000,
      "note": 59,
      "velocity": 38
    },
    {
      "time": 139000,
      "note": 57,
      "velocity": 38
    },
    {
      "time": 140000,
      "note": 60,
      "velocity": 38
    },
    {
      "time": 141500,
      "note": 60,
      "velocity": 38
    },
    {
      "time": 142000,
      "note": 60,
      "velocity": 38
    },
    {
      "time": 142500,
      "note": 60,
      "velocity": 38
    },
    {
      "time": 144000,
      "note": 59,
      "velocity": 38
    },
    {
      "time": 144500,
      "note": 59,
      "velocity": 38
    },
    {
      "time": 146000,
      "note": 59,
      "velocity": 38
    },
    {
      "time": 146500,
      "note": 59,
      "velocity": 38
    },
    {
      "time": 147000,
      "note": 38,
      "velocity": 38
    },
    {
      "time": 148000,
      "note": 60,
      "velocity": 38
    },
    {
      "time": 148500,
      "note": 60,
      "velocity": 38
    },
    {
      "time": 150000,
      "note": 60,
      "velocity": 38
    },
    {
      "time": 151500,
      "note": 60,
      "velocity": 38
    },
    {
      "time": 152000,
      "note": 57,
      "velocity": 38
    },
    {
      "time": 153000,
      "note": 42,
      "velocity": 38
    },
    {
      "time": 154000,
      "note": 60,
      "velocity": 38
    },
    {
      "time": 156000,
      "note": 60,
      "velocity": 38
    },
    {
      "time": 157000,
      "note": 36,
      "velocity": 38
    },
    {
      "time": 158000,
      "note": 59,
      "velocity": 38
    },
    {
      "time": 160000,
      "note": 57,
      "velocity": 38
    },
    {
      "time": 161000,
      "note": 42,
      "velocity": 34
    },
    {
      "time": 162000,
      "note": 60,
      "velocity": 30
    },
    {
      "time": 163000,
      "note": 36,
      "velocity": 26
    },
    {
      "time": 164000,
      "note": 60,
      "velocity": 22
    },
    {
      "time": 166000,
      "note": 59,
      "velocity": 14
    },
    {
      "time": 168000,
      "note": 60,
      "velocity": 6
    },
    {
      "time": 172000,
      "note": 60,
      "velocity": 6
    },
    {
      "time": 174000,
      "note": 59,
      "velocity": 6
    },
    {
      "time": 176000,
      "note": 60,
      "velocity": 25
    },
    {
      "time": 177000,
      "note": 60,
      "velocity": 25
    },
    {
      "time": 179000,
      "note": 60,
      "velocity": 25
    },
    {
      "time": 180000,
      "note": 60,
      "velocity": 25
    },
    {
      "time": 183000,
      "note": 60,
      "velocity": 25
    },
    {
      "time": 184000,
      "note": 59,
      "velocity": 25
    },
    {
      "time": 185000,
      "note": 60,
      "velocity": 25
    },
    {
      "time": 187000,
      "note": 60,
      "velocity": 25
    },
    {
      "time": 188000,
      "note": 60,
      "velocity": 25
    },
    {
      "time": 191000,
      "note": 60,
      "velocity": 25
    },
    {
      "time": 192000,
      "note": 60,
      "velocity": 25
    },
    {
      "time": 194000,
      "note": 60,
      "velocity": 25
    },
    {
      "time": 196000,
      "note": 60,
      "velocity": 25
    },
    {
      "time": 198000,
      "note": 59,
      "velocity": 25
    },
    {
      "time": 200000,
      "note": 60,
      "velocity": 25
    },
    {
      "time": 204000,
      "note": 60,
      "velocity": 32
    },
    {
      "time": 206000,
      "note": 59,
      "velocity": 36
    },
    {
      "time": 208000,
      "note": 60,
      "velocity": 40
    },
    {
      "time": 211000,
      "note": 59,
      "velocity": 40
    },
    {
      "time": 213000,
      "note": 57,
      "velocity": 40
    },
    {
      "time": 214000,
      "note": 41,
      "velocity": 40
    },
    {
      "time": 215000,
      "note": 60,
      "velocity": 40
    },
    {
      "time": 215500,
      "note": 60,
      "velocity": 40
    },
    {
      "time": 217000,
      "note": 60,
      "velocity": 40
    },
    {
      "time": 217500,
      "note": 60,
      "velocity": 40
    },
    {
      "time": 219000,
      "note": 59,
      "velocity": 40
    },
    {
      "time": 219500,
      "note": 59,
      "velocity": 40
    },
    {
      "time": 221000,
      "note": 57,
      "velocity": 40
    },
    {
      "time": 222000,
      "note": 60,
      "velocity": 40
    },
    {
      "time": 223000,
      "note": 41,
      "velocity": 40
    },
    {
      "time": 224000,
      "note": 59,
      "velocity": 40
    },
    {
      "time": 226000,
      "note": 60,
      "velocity": 40
    },
    {
      "time": 227000,
      "note": 41,
      "velocity": 40
    },
    {
      "time": 229000,
      "note": 60,
      "velocity": 40
    },
    {
      "time": 231000,
      "note": 60,
      "velocity": 40
    },
    {
      "time": 233000,
      "note": 59,
      "velocity": 35
    },
    {
      "time": 234000,
      "note": 41,
      "velocity": 30
    },
    {
      "time": 235000,
      "note": 60,
      "velocity": 25
    },
    {
      "time": 236000,
      "note": 60,
      "velocity": 21
    },
    {
      "time": 237000,
      "note": 41,
      "velocity": 16
    },
    {
      "time": 238000,
      "note": 60,
      "velocity": 11
    },
    {
      "time": 240000,
      "note": 59,
      "velocity": 2
    },
    {
      "time": 244000,
      "note": 59,
      "velocity": 2
    },
    {
      "time": 246000,
      "note": 57,
      "velocity": 2
    },
    {
      "time": 248000,
      "note": 59,
      "velocity": 16
    },
    {
      "time": 249000,
      "note": 59,
      "velocity": 16
    },
    {
      "time": 251000,
      "note": 60,
      "velocity": 16
    },
    {
      "time": 252000,
      "note": 59,
      "velocity": 16
    },
    {
      "time": 255000,
      "note": 59,
      "velocity": 16
    },
    {
      "time": 256000,
      "note": 57,
      "velocity": 16
    },
    {
      "time": 257000,
      "note": 59,
      "velocity": 16
    },
    {
      "time": 259000,
      "note": 60,
      "velocity": 16
    },
    {
      "time": 260000,
      "note": 59,
      "velocity": 16
    },
    {
      "time": 263000,
      "note": 59,
      "velocity": 16
    },
    {
      "time": 264000,
      "note": 59,
      "velocity": 16
    },
    {
      "time": 266000,
      "note": 60,
      "velocity": 16
    },
    {
      "time": 268000,
      "note": 59,
      "velocity": 16
    },
    {
      "time": 270000,
      "note": 57,
      "velocity": 16
    },
    {
      "time": 272000,
      "note": 59,
      "velocity": 16
    },
    {
      "time": 276000,
      "note": 59,
      "velocity": 22
    },
    {
      "time": 278000,
      "note": 57,
      "velocity": 26
    },
    {
      "time": 280000,
      "note": 59,
      "velocity": 29
    },
    {
      "time": 283000,
      "note": 57,
      "velocity": 29
    },
    {
      "time": 285000,
      "note": 60,
      "velocity": 29
    },
    {
      "time": 286000,
      "note": 36,
      "velocity": 29
    },
    {
      "time": 287000,
      "note": 60,
      "velocity": 29
    },
    {
      "time": 289000,
      "note": 59,
      "velocity": 29
    },
    {
      "time": 290000,
      "note": 38,
      "velocity": 29
    },
    {
      "time": 291000,
      "note": 59,
      "velocity": 29
    },
    {
      "time": 293000,
      "note": 60,
      "velocity": 29
    },
    {
      "time": 294000,
      "note": 36,
      "velocity": 29
    },
    {
      "time": 295000,
      "note": 60,
      "velocity": 29
    },
    {
      "time": 296000,
      "note": 42,
      "velocity": 29
    },
    {
      "time": 297000,
      "note": 57,
      "velocity": 29
    },
    {
      "time": 298000,
      "note": 40,
      "velocity": 29
    },
    {
      "time": 299000,
      "note": 60,
      "velocity": 29
    },
    {
      "time": 300000,
      "note": 40,
      "velocity": 29
    },
    {
      "time": 301000,
      "note": 60,
      "velocity": 29
    },
    {
      "time": 303000,
      "note": 59,
      "velocity": 29
    },
    {
      "time": 304000,
      "note": 42,
      "velocity": 29
    },
    {
      "time": 305000,
      "note": 57,
      "velocity": 29
    },
    {
      "time": 306000,
      "note": 36,
      "velocity": 29
    },
    {
      "time": 307000,
      "note": 60,
      "velocity": 29
    },
    {
      "time": 308000,
      "note": 36,
      "velocity": 29
    },
    {
      "time": 309000,
      "note": 60,
      "velocity": 29
    },
    {
      "time": 311000,
      "note": 59,
      "velocity": 29
    },
    {
      "time": 312000,
      "note": 59,
      "velocity": 29
    }
  ],
  "stats": {
    "total_events": 190,
    "duration_ms": 312000,
    "avg_velocity": 23,
    "note_range": "36-60"
  }
}