{
  "track_id": "sleep_01",
  "haptic_enabled": true,
  "bpm": 60.0,
  "events": [
    {
      "time": 0,
      "note": 60,
      "velocity": 1
    },
    {
      "time": 4000,
      "note": 60,
      "velocity": 1
    },
    {
      "time": 8000,
      "note": 60,
      "velocity": 1
    },
    {
      "time": 10000,
      "note": 59,
      "velocity": 1
    },
    {
      "time": 12000,
      "note": 60,
      "velocity": 1
    },
    {
      "time": 16000,
      "note": 38,
      "velocity": 8
    },
    {
      "time": 18000,
      "note": 60,
      "velocity": 8
    },
    {
      "time": 20000,
      "note": 59,
      "velocity": 8
    },
    {
      "time": 22000,
      "note": 60,
      "velocity": 8
    },
    {
      "time": 24000,
      "note": 38,
      "velocity": 8
    },
    {
      "time": 26000,
      "note": 60,
      "velocity": 8
    },
    {
      "time": 28000,
      "note": 59,
      "velocity": 8
    },
    {
      "time": 30000,
      "note": 60,
      "velocity": 8
    },
    {
      "time": 32000,
      "note": 60,
      "velocity": 8
    },
    {
      "time": 36000,
      "note": 60,
      "velocity": 8
    },
    {
      "time": 40000,
      "note": 60,
      "velocity": 8
    },
    {
      "time": 42000,
      "note": 59,
      "velocity": 12
    },
    {
      "time": 44000,
      "note": 60,
      "velocity": 17
    },
    {
      "time": 48000,
      "note": 38,
      "velocity": 25
    },
    {
      "time": 50000,
      "note": 60,
      "velocity": 25
    },
    {
      "time": 52000,
      "note": 59,
      "velocity": 25
    },
    {
      "time": 54000,
      "note": 60,
      "velocity": 25
    },
    {
      "time": 56000,
      "note": 38,
      "velocity": 25
    },
    {
      "time": 58666,
      "note": 60,
      "velocity": 25
    },
    {
      "time": 59666,
      "note": 60,
      "velocity": 25
    },
    {
      "time": 60666,
      "note": 59,
      "velocity": 25
    },
    {
      "time": 61666,
      "note": 59,
      "velocity": 25
    },
    {
      "time": 62666,
      "note": 60,
      "velocity": 25
    },
    {
      "time": 63666,
      "note": 60,
      "velocity": 25
    },
    {
      "time": 64000,
      "note": 60,
      "velocity": 25
    },
    {
      "time": 68000,
      "note": 60,
      "velocity": 25
    },
    {
      "time": 72000,
      "note": 60,
      "velocity": 25
    },
    {
      "time": 74666,
      "note": 59,
      "velocity": 26
    },
    {
      "time": 75666,
      "note": 59,
      "velocity": 27
    },
    {
      "time": 76000,
      "note": 60,
      "velocity": 27
    },
    {
      "time": 80000,
      "note": 38,
      "velocity": 29
    },
    {
      "time": 82000,
      "note": 60,
      "velocity": 29
    },
    {
      "time": 84000,
      "note": 59,
      "velocity": 29
    },
    {
      "time": 86000,
      "note": 60,
      "velocity": 29
    },
    {
      "time": 88000,
      "note": 38,
      "velocity": 29
    },
    {
      "time": 90000,
      "note": 60,
      "velocity": 29
    },
    {
      "time": 92000,
      "note": 55,
      "velocity": 29
    },
    {
      "time": 94000,
      "note": 60,
      "velocity": 29
    },
    {
      "time": 96000,
      "note": 60,
      "velocity": 29
    },
    {
      "time": 97000,
      "note": 40,
      "velocity": 29
    },
    {
      "time": 98000,
      "note": 36,
      "velocity": 29
    },
    {
      "time": 100000,
      "note": 60,
      "velocity": 29
    },
    {
      "time": 101000,
      "note": 40,
      "velocity": 29
    },
    {
      "time": 102000,
      "note": 36,
      "velocity": 29
    },
    {
      "time": 104000,
      "note": 60,
      "velocity": 29
    },
    {
      "time": 106000,
      "note": 59,
      "velocity": 25
    },
    {
      "time": 108000,
      "note": 60,
      "velocity": 22
    },
    {
      "time": 112000,
      "note": 38,
      "velocity": 14
    },
    {
      "time": 114000,
      "note": 60,
      "velocity": 14
    },
    {
      "time": 114500,
      "note": 60,
      "velocity": 14
    },
    {
      "time": 115000,
      "note": 60,
      "velocity": 14
    },
    {
      "time": 115500,
      "note": 60,
      "velocity": 14
    },
    {
      "time": 116750,
      "note": 59,
      "velocity": 14
    },
    {
      "time": 117750,
      "note": 59,
      "velocity": 14
    },
    {
      "time": 118000,
      "note": 60,
      "velocity": 14
    },
    {
      "time": 120000,
      "note": 38,
      "velocity": 14
    },
    {
      "time": 122000,
      "note": 60,
      "velocity": 14
    },
    {
      "time": 124000,
      "note": 59,
      "velocity": 14
    },
    {
      "time": 126750,
      "note": 60,
      "velocity": 14
    },
    {
      "time": 127750,
      "note": 60,
      "velocity": 14
    },
    {
      "time": 128000,
      "note": 60,
      "velocity": 14
    },
    {
      "time": 132000,
      "note": 60,
      "velocity": 14
    },
    {
      "time": 136000,
      "note": 60,
      "velocity": 14
    },
    {
      "time": 138000,
      "note": 59,
      "velocity": 14
    },
    {
      "time": 138500,
      "note": 59,
      "velocity": 15
    },
    {
      "time": 139000,
      "note": 59,
      "velocity": 15
    },
    {
      "time": 139500,
      "note": 59,
      "velocity": 15
    },
    {
      "time": 140000,
      "note": 60,
      "velocity": 15
    },
    {
      "time": 144000,
      "note": 60,
      "velocity": 16
    },
    {
      "time": 146000,
      "note": 59,
      "velocity": 16
    },
    {
      "time": 148000,
      "note": 60,
      "velocity": 16
    },
    {
      "time": 153500,
      "note": 57,
      "velocity": 30
    },
    {
      "time": 154000,
      "note": 60,
      "velocity": 30
    },
    {
      "time": 157000,
      "note": 59,
      "velocity": 30
    },
    {
      "time": 157500,
      "note": 59,
      "velocity": 30
    },
    {
      "time": 158000,
      "note": 60,
      "velocity": 30
    },
    {
      "time": 161500,
      "note": 57,
      "velocity": 30
    },
    {
      "time": 162000,
      "note": 60,
      "velocity": 30
    },
    {
      "time": 164000,
      "note": 59,
      "velocity": 30
    },
    {
      "time": 166500,
      "note": 36,
      "velocity": 30
    },
    {
      "time": 167000,
      "note": 60,
      "velocity": 30
    },
    {
      "time": 167500,
      "note": 60,
      "velocity": 30
    },
    {
      "time": 168000,
      "note": 60,
      "velocity": 30
    },
    {
      "time": 172000,
      "note": 60,
      "velocity": 30
    },
    {
      "time": 176000,
      "note": 60,
      "velocity": 30
    },
    {
      "time": 176500,
      "note": 36,
      "velocity": 30
    },
    {
      "time": 177500,
      "note": 40,
      "velocity": 31
    },
    {
      "time": 178000,
      "note": 59,
      "velocity": 32
    },
    {
      "time": 178500,
      "note": 38,
      "velocity": 32
    },
    {
      "time": 179500,
      "note": 38,
      "velocity": 33
    },
    {
      "time": 180000,
      "note": 60,
      "velocity": 34
    },
    {
      "time": 184000,
      "note": 57,
      "velocity": 38
    },
    {
      "time": 186000,
      "note": 60,
      "velocity": 38
    },
    {
      "time": 186666,
      "note": 36,
      "velocity": 38
    },
    {
      "time": 188000,
      "note": 59,
      "velocity": 38
    },
    {
      "time": 190000,
      "note": 60,
      "velocity": 38
    },
    {
      "time": 194000,
      "note": 60,
      "velocity": 38
    },
    {
      "time": 194666,
      "note": 36,
      "velocity": 38
    },
    {
      "time": 198000,
      "note": 60,
      "velocity": 38
    },
    {
      "time": 204000,
      "note": 36,
      "velocity": 38
    },
    {
      "time": 210000,
      "note": 59,
      "velocity": 38
    },
    {
      "time": 212000,
      "note": 60,
      "velocity": 39
    },
    {
      "time": 216000,
      "note": 38,
      "velocity": 40
    },
    {
      "time": 218000,
      "note": 60,
      "velocity": 40
    },
    {
      "time": 218666,
      "note": 60,
      "velocity": 40
    },
    {
      "time": 219333,
      "note": 60,
      "velocity": 40
    },
    {
      "time": 220000,
      "note": 59,
      "velocity": 40
    },
    {
      "time": 220666,
      "note": 59,
      "velocity": 40
    },
    {
      "time": 221333,
      "note": 59,
      "velocity": 40
    },
    {
      "time": 222000,
      "note": 60,
      "velocity": 40
    },
    {
      "time": 222666,
      "note": 60,
      "velocity": 40
    },
    {
      "time": 223333,
      "note": 60,
      "velocity": 40
    },
    {
      "time": 224000,
      "note": 38,
      "velocity": 40
    },
    {
      "time": 226000,
      "note": 60,
      "velocity": 40
    },
    {
      "time": 226666,
      "note": 60,
      "velocity": 40
    },
    {
      "time": 227333,
      "note": 60,
      "velocity": 40
    },
    {
      "time": 228000,
      "note": 59,
      "velocity": 40
    },
    {
      "time": 228666,
      "note": 59,
      "velocity": 40
    },
    {
      "time": 229333,
      "note": 59,
      "velocity": 40
    },
    {
      "time": 230000,
      "note": 60,
      "velocity": 40
    },
    {
      "time": 230666,
      "note": 60,
      "velocity": 40
    },
    {
      "time": 231333,
      "note": 60,
      "velocity": 40
    },
    {
      "time": 232000,
      "note": 58,
      "velocity": 40
    },
    {
      "time": 236000,
      "note": 58,
      "velocity": 40
    },
    {
      "time": 240000,
      "note": 58,
      "velocity": 40
    },
    {
      "time": 240666,
      "note": 58,
      "velocity": 38
    },
    {
      "time": 241333,
      "note": 58,
      "velocity": 37
    },
    {
      "time": 242000,
      "note": 59,
      "velocity": 35
    },
    {
      "time": 242666,
      "note": 59,
      "velocity": 34
    },
    {
      "time": 243333,
      "note": 59,
      "velocity": 32
    },
    {
      "time": 244000,
      "note": 60,
      "velocity": 31
    },
    {
      "time": 248000,
      "note": 38,
      "velocity": 22
    },
    {
      "time": 250000,
      "note": 60,
      "velocity": 22
    },
    {
      "time": 252000,
      "note": 59,
      "velocity": 22
    },
    {
      "time": 254000,
      "note": 60,
      "velocity": 22
    },
    {
      "time": 256000,
      "note": 38,
      "velocity": 22
    },
    {
      "time": 258000,
      "note": 60,
      "velocity": 22
    },
    {
      "time": 260000,
      "note": 59,
      "velocity": 22
    },
    {
      "time": 262000,
      "note": 60,
      "velocity": 22
    },
    {
      "time": 267000,
      "note": 59,
      "velocity": 22
    },
    {
      "time": 271000,
      "note": 59,
      "velocity": 22
    },
    {
      "time": 272000,
      "note": 59,
      "velocity": 22
    },
    {
      "time": 274000,
      "note": 60,
      "velocity": 22
    },
    {
      "time": 279000,
      "note": 60,
      "velocity": 9
    },
    {
      "time": 280000,
      "note": 38,
      "velocity": 1
    },
    {
      "time": 282000,
      "note": 60,
      "velocity": 1
    },
    {
      "time": 284000,
      "note": 59,
      "velocity": 1
    },
    {
      "time": 286000,
      "note": 60,
      "velocity": 1
    },
    {
      "time": 288000,
      "note": 38,
      "velocity": 1
    },
    {
      "time": 290000,
      "note": 60,
      "velocity": 1
    },
    {
      "time": 292000,
      "note": 59,
      "velocity": 1
    },
    {
      "time": 294000,
      "note": 60,
      "velocity": 1
    },
    {
      "time": 296000,
      "note": 60,
      "velocity": 1
    },
    {
      "time": 300000,
      "note": 60,
      "velocity": 1
    },
    {
      "time": 304000,
      "note": 60,
      "velocity": 1
    },
    {
      "time": 306000,
      "note": 59,
      "velocity": 1
    },
    {
      "time": 308000,
      "note": 60,
      "velocity": 1
    },
    {
      "time": 312000,
      "note": 52,
      "velocity": 1
    }
  ],
  "stats": {
    "total_events": 163,
    "duration_ms": 312000,
    "avg_velocity": 23,
    "note_range": "36-60"
  }
}