{
  "track_id": "sleep_08",
  "haptic_enabled": true,
  "bpm": 60.0,
  "events": [
    {
      "time": 2000,
      "note": 60,
      "velocity": 8
    },
    {
      "time": 4000,
      "note": 60,
      "velocity": 8
    },
    {
      "time": 12000,
      "note": 60,
      "velocity": 8
    },
    {
      "time": 14000,
      "note": 39,
      "velocity": 8
    },
    {
      "time": 16000,
      "note": 39,
      "velocity": 8
    },
    {
      "time": 20000,
      "note": 60,
      "velocity": 8
    },
    {
      "time": 22000,
      "note": 39,
      "velocity": 8
    },
    {
      "time": 26000,
      "note": 60,
      "velocity": 8
    },
    {
      "time": 30000,
      "note": 60,
      "velocity": 8
    },
    {
      "time": 34000,
      "note": 60,
      "velocity": 8
    },
    {
      "time": 36000,
      "note": 60,
      "velocity": 8
    },
    {
      "time": 41000,
      "note": 38,
      "velocity": 8
    },
    {
      "time": 44000,
      "note": 60,
      "velocity": 8
    },
    {
      "time": 45000,
      "note": 41,
      "velocity": 8
    },
    {
      "time": 50000,
      "note": 38,
      "velocity": 8
    },
    {
      "time": 52000,
      "note": 60,
      "velocity": 8
    },
    {
      "time": 58000,
      "note": 60,
      "velocity": 8
    },
    {
      "time": 59000,
      "note": 38,
      "velocity": 8
    },
    {
      "time": 60000,
      "note": 38,
      "velocity": 8
    },
    {
      "time": 62000,
      "note": 60,
      "velocity": 8
    },
    {
      "time": 66000,
      "note": 60,
      "velocity": 8
    },
    {
      "time": 67000,
      "note": 38,
      "velocity": 8
    },
    {
      "time": 68000,
      "note": 60,
      "velocity": 8
    },
    {
      "time": 75000,
      "note": 38,
      "velocity": 8
    },
    {
      "time": 76000,
      "note": 38,
      "velocity": 8
    },
    {
      "time": 83000,
      "note": 38,
      "velocity": 8
    },
    {
      "time": 84000,
      "note": 38,
      "velocity": 8
    },
    {
      "time": 92000,
      "note": 60,
      "velocity": 8
    },
    {
      "time": 93000,
      "note": 39,
      "velocity": 8
    },
    {
      "time": 100000,
      "note": 39,
      "velocity": 8
    },
    {
      "time": 108000,
      "note": 39,
      "velocity": 8
    },
    {
      "time": 110000,
      "note": 60,
      "velocity": 8
    },
    {
      "time": 114000,
      "note": 60,
      "velocity": 8
    },
    {
      "time": 116000,
      "note": 58,
      "velocity": 8
    },
    {
      "time": 118000,
      "note": 60,
      "velocity": 8
    },
    {
      "time": 123000,
      "note": 60,
      "velocity": 8
    },
    {
      "time": 124000,
      "note": 60,
      "velocity": 8
    },
    {
      "time": 126000,
      "note": 58,
      "velocity": 8
    },
    {
      "time": 128000,
      "note": 58,
      "velocity": 8
    },
    {
      "time": 131000,
      "note": 57,
      "velocity": 8
    },
    {
      "time": 132000,
      "note": 55,
      "velocity": 8
    },
    {
      "time": 134000,
      "note": 53,
      "velocity": 8
    },
    {
      "time": 138000,
      "note": 60,
      "velocity": 8
    },
    {
      "time": 140000,
      "note": 60,
      "velocity": 8
    },
    {
      "time": 142000,
      "note": 41,
      "velocity": 8
    },
    {
      "time": 144000,
      "note": 41,
      "velocity": 8
    },
    {
      "time": 148000,
      "note": 60,
      "velocity": 8
    },
    {
      "time": 150000,
      "note": 41,
      "velocity": 8
    },
    {
      "time": 152000,
      "note": 60,
      "velocity": 8
    },
    {
      "time": 154000,
      "note": 60,
      "velocity": 8
    },
    {
      "time": 158000,
      "note": 60,
      "velocity": 8
    },
    {
      "time": 160000,
      "note": 60,
      "velocity": 8
    },
    {
      "time": 162000,
      "note": 60,
      "velocity": 8
    },
    {
      "time": 164000,
      "note": 60,
      "velocity": 8
    },
    {
      "time": 170000,
      "note": 60,
      "velocity": 8
    },
    {
      "time": 172000,
      "note": 60,
      "velocity": 8
    },
    {
      "time": 174000,
      "note": 41,
      "velocity": 8
    },
    {
      "time": 176000,
      "note": 41,
      "velocity": 8
    },
    {
      "time": 180000,
      "note": 60,
      "velocity": 8
    },
    {
      "time": 182000,
      "note": 41,
      "velocity": 8
    },
    {
      "time": 184000,
      "note": 60,
      "velocity": 8
    },
    {
      "time": 186000,
      "note": 60,
      "velocity": 8
    },
    {
      "time": 190000,
      "note": 60,
      "velocity": 8
    },
    {
      "time": 192000,
      "note": 60,
      "velocity": 8
    },
    {
      "time": 194000,
      "note": 60,
      "velocity": 8
    },
    {
      "time": 196000,
      "note": 60,
      "velocity": 8
    },
    {
      "time": 200000,
      "note": 60,
      "velocity": 8
    },
    {
      "time": 203000,
      "note": 60,
      "velocity": 8
    },
    {
      "time": 203750,
      "note": 60,
      "velocity": 8
    },
    {
      "time": 204000,
      "note": 60,
      "velocity": 8
    },
    {
      "time": 208000,
      "note": 60,
      "velocity": 8
    },
    {
      "time": 211000,
      "note": 60,
      "velocity": 8
    },
    {
      "time": 211750,
      "note": 60,
      "velocity": 8
    },
    {
      "time": 212000,
      "note": 60,
      "velocity": 8
    },
    {
      "time": 217000,
      "note": 60,
      "velocity": 8
    },
    {
      "time": 220000,
      "note": 60,
      "velocity": 8
    },
    {
      "time": 220750,
      "note": 60,
      "velocity": 8
    },
    {
      "time": 221000,
      "note": 41,
      "velocity": 8
    },
    {
      "time": 223000,
      "note": 60,
      "velocity": 8
    },
    {
      "time": 223750,
      "note": 60,
      "velocity": 8
    },
    {
      "time": 224000,
      "note": 60,
      "velocity": 8
    },
    {
      "time": 228000,
      "note": 41,
      "velocity": 8
    },
    {
      "time": 232000,
      "note": 60,
      "velocity": 8
    },
    {
      "time": 237000,
      "note": 38,
      "velocity": 8
    },
    {
      "time": 238000,
      "note": 43,
      "velocity": 8
    },
    {
      "time": 239000,
      "note": 40,
      "velocity": 8
    },
    {
      "time": 240000,
      "note": 60,
      "velocity": 8
    },
    {
      "time": 244000,
      "note": 58,
      "velocity": 8
    },
    {
      "time": 246000,
      "note": 60,
      "velocity": 8
    },
    {
      "time": 248000,
      "note": 41,
      "velocity": 8
    },
    {
      "time": 251000,
      "note": 43,
      "velocity": 8
    },
    {
      "time": 252000,
      "note": 58,
      "velocity": 8
    },
    {
      "time": 253000,
      "note": 38,
      "velocity": 8
    },
    {
      "time": 254000,
      "note": 60,
      "velocity": 8
    },
    {
      "time": 255000,
      "note": 36,
      "velocity": 8
    },
    {
      "time": 256000,
      "note": 57,
      "velocity": 8
    },
    {
      "time": 259000,
      "note": 60,
      "velocity": 8
    },
    {
      "time": 260000,
      "note": 58,
      "velocity": 8
    },
    {
      "time": 262000,
      "note": 60,
      "velocity": 8
    },
    {
      "time": 263000,
      "note": 41,
      "velocity": 8
    },
    {
      "time": 268000,
      "note": 60,
      "velocity": 8
    },
    {
      "time": 270000,
      "note": 39,
      "velocity": 8
    },
    {
      "time": 272000,
      "note": 39,
      "velocity": 8
    },
    {
      "time": 276000,
      "note": 60,
      "velocity": 8
    },
    {
      "time": 278000,
      "note": 39,
      "velocity": 8
    },
    {
      "time": 282000,
      "note": 60,
      "velocity": 8
    },
    {
      "time": 286000,
      "note": 60,
      "velocity": 8
    },
    {
      "time": 290000,
      "note": 60,
      "velocity": 8
    },
    {
      "time": 292000,
      "note": 60,
      "velocity": 8
    },
    {
      "time": 298000,
      "note": 60,
      "velocity": 8
    },
    {
      "time": 302000,
      "note": 60,
      "velocity": 8
    },
    {
      "time": 306000,
      "note": 60,
      "velocity": 8
    },
    {
      "time": 308000,
      "note": 60,
      "velocity": 8
    }
  ],
  "stats": {
    "total_events": 113,
    "duration_ms": 308000,
    "avg_velocity": 8,
    "note_range": "36-60"
  }
}