{
  "track_id": "sleep_06",
  "haptic_enabled": true,
  "bpm": 65.0,
  "events": [
    {
      "time": 0,
      "note": 60,
      "velocity": 8
    },
    {
      "time": 3692,
      "note": 59,
      "velocity": 8
    },
    {
      "time": 7384,
      "note": 60,
      "velocity": 8
    },
    {
      "time": 11076,
      "note": 60,
      "velocity": 8
    },
    {
      "time": 14769,
      "note": 60,
      "velocity": 8
    },
    {
      "time": 18461,
      "note": 60,
      "velocity": 8
    },
    {
      "time": 22153,
      "note": 60,
      "velocity": 8
    },
    {
      "time": 25846,
      "note": 60,
      "velocity": 8
    },
    {
      "time": 29538,
      "note": 60,
      "velocity": 8
    },
    {
      "time": 33230,
      "note": 59,
      "velocity": 8
    },
    {
      "time": 36923,
      "note": 60,
      "velocity": 8
    },
    {
      "time": 40615,
      "note": 60,
      "velocity": 8
    },
    {
      "time": 44307,
      "note": 60,
      "velocity": 8
    },
    {
      "time": 47999,
      "note": 60,
      "velocity": 8
    },
    {
      "time": 51692,
      "note": 60,
      "velocity": 8
    },
    {
      "time": 55384,
      "note": 60,
      "velocity": 8
    },
    {
      "time": 59076,
      "note": 60,
      "velocity": 8
    },
    {
      "time": 62769,
      "note": 60,
      "velocity": 8
    },
    {
      "time": 66461,
      "note": 60,
      "velocity": 8
    },
    {
      "time": 70153,
      "note": 60,
      "velocity": 8
    },
    {
      "time": 73846,
      "note": 59,
      "velocity": 8
    },
    {
      "time": 75692,
      "note": 60,
      "velocity": 8
    },
    {
      "time": 77538,
      "note": 59,
      "velocity": 8
    },
    {
      "time": 79384,
      "note": 60,
      "velocity": 8
    },
    {
      "time": 81230,
      "note": 60,
      "velocity": 8
    },
    {
      "time": 83076,
      "note": 60,
      "velocity": 8
    },
    {
      "time": 84922,
      "note": 60,
      "velocity": 8
    },
    {
      "time": 86769,
      "note": 59,
      "velocity": 8
    },
    {
      "time": 88615,
      "note": 60,
      "velocity": 8
    },
    {
      "time": 92307,
      "note": 59,
      "velocity": 8
    },
    {
      "time": 95999,
      "note": 60,
      "velocity": 8
    },
    {
      "time": 99692,
      "note": 60,
      "velocity": 8
    },
    {
      "time": 103384,
      "note": 60,
      "velocity": 8
    },
    {
      "time": 107076,
      "note": 60,
      "velocity": 8
    },
    {
      "time": 110769,
      "note": 60,
      "velocity": 8
    },
    {
      "time": 114461,
      "note": 60,
      "velocity": 8
    },
    {
      "time": 118153,
      "note": 60,
      "velocity": 8
    },
    {
      "time": 121846,
      "note": 59,
      "velocity": 8
    },
    {
      "time": 125538,
      "note": 60,
      "velocity": 8
    },
    {
      "time": 129230,
      "note": 60,
      "velocity": 8
    },
    {
      "time": 132922,
      "note": 60,
      "velocity": 8
    },
    {
      "time": 136615,
      "note": 60,
      "velocity": 8
    },
    {
      "time": 140307,
      "note": 60,
      "velocity": 8
    },
    {
      "time": 143999,
      "note": 60,
      "velocity": 8
    },
    {
      "time": 147692,
      "note": 60,
      "velocity": 8
    },
    {
      "time": 151384,
      "note": 60,
      "velocity": 8
    },
    {
      "time": 155076,
      "note": 60,
      "velocity": 8
    },
    {
      "time": 158769,
      "note": 60,
      "velocity": 8
    },
    {
      "time": 162461,
      "note": 59,
      "velocity": 8
    },
    {
      "time": 164307,
      "note": 60,
      "velocity": 8
    },
    {
      "time": 167076,
      "note": 59,
      "velocity": 8
    },
    {
      "time": 167999,
      "note": 60,
      "velocity": 8
    },
    {
      "time": 170769,
      "note": 60,
      "velocity": 8
    },
    {
      "time": 171692,
      "note": 60,
      "velocity": 8
    },
    {
      "time": 173538,
      "note": 60,
      "velocity": 8
    },
    {
      "time": 174461,
      "note": 40,
      "velocity": 8
    },
    {
      "time": 176307,
      "note": 59,
      "velocity": 8
    },
    {
      "time": 177230,
      "note": 59,
      "velocity": 8
    },
    {
      "time": 180922,
      "note": 57,
      "velocity": 8
    },
    {
      "time": 184615,
      "note": 59,
      "velocity": 8
    },
    {
      "time": 188307,
      "note": 60,
      "velocity": 8
    },
    {
      "time": 191999,
      "note": 59,
      "velocity": 8
    },
    {
      "time": 195692,
      "note": 55,
      "velocity": 8
    },
    {
      "time": 199384,
      "note": 55,
      "velocity": 8
    },
    {
      "time": 203076,
      "note": 55,
      "velocity": 8
    },
    {
      "time": 206769,
      "note": 59,
      "velocity": 8
    },
    {
      "time": 207692,
      "note": 59,
      "velocity": 8
    },
    {
      "time": 208615,
      "note": 59,
      "velocity": 8
    },
    {
      "time": 209538,
      "note": 59,
      "velocity": 8
    },
    {
      "time": 210461,
      "note": 57,
      "velocity": 8
    },
    {
      "time": 211384,
      "note": 57,
      "velocity": 8
    },
    {
      "time": 212307,
      "note": 57,
      "velocity": 8
    },
    {
      "time": 213230,
      "note": 57,
      "velocity": 8
    },
    {
      "time": 214153,
      "note": 59,
      "velocity": 8
    },
    {
      "time": 215076,
      "note": 59,
      "velocity": 8
    },
    {
      "time": 215999,
      "note": 59,
      "velocity": 8
    },
    {
      "time": 216922,
      "note": 59,
      "velocity": 8
    },
    {
      "time": 217845,
      "note": 60,
      "velocity": 8
    },
    {
      "time": 218769,
      "note": 60,
      "velocity": 8
    },
    {
      "time": 219692,
      "note": 60,
      "velocity": 8
    },
    {
      "time": 220615,
      "note": 60,
      "velocity": 8
    },
    {
      "time": 221538,
      "note": 59,
      "velocity": 8
    },
    {
      "time": 222461,
      "note": 59,
      "velocity": 8
    },
    {
      "time": 223384,
      "note": 59,
      "velocity": 8
    },
    {
      "time": 224307,
      "note": 59,
      "velocity": 8
    },
    {
      "time": 225230,
      "note": 59,
      "velocity": 8
    },
    {
      "time": 226153,
      "note": 59,
      "velocity": 8
    },
    {
      "time": 227076,
      "note": 59,
      "velocity": 8
    },
    {
      "time": 227999,
      "note": 59,
      "velocity": 8
    },
    {
      "time": 228922,
      "note": 60,
      "velocity": 8
    },
    {
      "time": 229845,
      "note": 60,
      "velocity": 8
    },
    {
      "time": 230769,
      "note": 60,
      "velocity": 8
    },
    {
      "time": 231692,
      "note": 60,
      "velocity": 8
    },
    {
      "time": 232615,
      "note": 59,
      "velocity": 8
    },
    {
      "time": 233538,
      "note": 59,
      "velocity": 8
    },
    {
      "time": 234461,
      "note": 59,
      "velocity": 8
    },
    {
      "time": 235384,
      "note": 59,
      "velocity": 8
    },
    {
      "time": 236307,
      "note": 60,
      "velocity": 8
    },
    {
      "time": 239999,
      "note": 59,
      "velocity": 8
    },
    {
      "time": 243692,
      "note": 60,
      "velocity": 8
    },
    {
      "time": 247384,
      "note": 59,
      "velocity": 8
    },
    {
      "time": 251538,
      "note": 57,
      "velocity": 8
    },
    {
      "time": 251999,
      "note": 57,
      "velocity": 8
    },
    {
      "time": 252461,
      "note": 57,
      "velocity": 8
    },
    {
      "time": 253384,
      "note": 59,
      "velocity": 8
    },
    {
      "time": 253845,
      "note": 59,
      "velocity": 8
    },
    {
      "time": 254307,
      "note": 59,
      "velocity": 8
    },
    {
      "time": 255230,
      "note": 57,
      "velocity": 8
    },
    {
      "time": 255692,
      "note": 57,
      "velocity": 8
    },
    {
      "time": 256153,
      "note": 57,
      "velocity": 8
    },
    {
      "time": 257076,
      "note": 60,
      "velocity": 8
    },
    {
      "time": 257538,
      "note": 60,
      "velocity": 8
    },
    {
      "time": 257999,
      "note": 60,
      "velocity": 8
    },
    {
      "time": 258922,
      "note": 60,
      "velocity": 8
    },
    {
      "time": 259384,
      "note": 60,
      "velocity": 8
    },
    {
      "time": 259845,
      "note": 60,
      "velocity": 8
    },
    {
      "time": 260768,
      "note": 59,
      "velocity": 8
    },
    {
      "time": 261230,
      "note": 59,
      "velocity": 8
    },
    {
      "time": 261692,
      "note": 59,
      "velocity": 8
    },
    {
      "time": 262153,
      "note": 38,
      "velocity": 8
    },
    {
      "time": 262615,
      "note": 59,
      "velocity": 8
    },
    {
      "time": 263076,
      "note": 59,
      "velocity": 8
    },
    {
      "time": 263538,
      "note": 59,
      "velocity": 8
    },
    {
      "time": 264461,
      "note": 57,
      "velocity": 8
    },
    {
      "time": 264922,
      "note": 57,
      "velocity": 8
    },
    {
      "time": 265384,
      "note": 57,
      "velocity": 8
    },
    {
      "time": 265845,
      "note": 60,
      "velocity": 8
    },
    {
      "time": 269538,
      "note": 60,
      "velocity": 8
    },
    {
      "time": 273230,
      "note": 36,
      "velocity": 8
    },
    {
      "time": 275076,
      "note": 60,
      "velocity": 8
    },
    {
      "time": 275999,
      "note": 60,
      "velocity": 8
    },
    {
      "time": 278768,
      "note": 59,
      "velocity": 8
    },
    {
      "time": 279692,
      "note": 59,
      "velocity": 8
    },
    {
      "time": 280615,
      "note": 36,
      "velocity": 8
    },
    {
      "time": 282461,
      "note": 60,
      "velocity": 8
    },
    {
      "time": 283384,
      "note": 60,
      "velocity": 8
    },
    {
      "time": 286153,
      "note": 60,
      "velocity": 8
    },
    {
      "time": 287076,
      "note": 60,
      "velocity": 8
    },
    {
      "time": 287999,
      "note": 36,
      "velocity": 8
    },
    {
      "time": 289845,
      "note": 60,
      "velocity": 8
    },
    {
      "time": 290768,
      "note": 60,
      "velocity": 8
    },
    {
      "time": 293538,
      "note": 60,
      "velocity": 8
    },
    {
      "time": 294461,
      "note": 60,
      "velocity": 8
    },
    {
      "time": 297230,
      "note": 60,
      "velocity": 8
    },
    {
      "time": 298153,
      "note": 60,
      "velocity": 8
    },
    {
      "time": 300922,
      "note": 60,
      "velocity": 8
    },
    {
      "time": 301845,
      "note": 60,
      "velocity": 8
    },
    {
      "time": 302768,
      "note": 60,
      "velocity": 8
    },
    {
      "time": 306461,
      "note": 60,
      "velocity": 8
    },
    {
      "time": 310153,
      "note": 60,
      "velocity": 8
    },
    {
      "time": 313845,
      "note": 60,
      "velocity": 8
    },
    {
      "time": 317538,
      "note": 52,
      "velocity": 8
    }
  ],
  "stats": {
    "total_events": 152,
    "duration_ms": 317538,
    "avg_velocity": 8,
    "note_range": "36-60"
  }
}