{
  "track_id": "sleep_04",
  "haptic_enabled": true,
  "bpm": 60.0,
  "events": [
    {
      "time": 0,
      "note": 39,
      "velocity": 8
    },
    {
      "time": 4000,
      "note": 60,
      "velocity": 8
    },
    {
      "time": 8000,
      "note": 58,
      "velocity": 8
    },
    {
      "time": 9000,
      "note": 58,
      "velocity": 8
    },
    {
      "time": 12000,
      "note": 58,
      "velocity": 8
    },
    {
      "time": 16000,
      "note": 58,
      "velocity": 8
    },
    {
      "time": 20000,
      "note": 60,
      "velocity": 8
    },
    {
      "time": 24000,
      "note": 58,
      "velocity": 8
    },
    {
      "time": 28000,
      "note": 60,
      "velocity": 8
    },
    {
      "time": 32000,
      "note": 60,
      "velocity": 8
    },
    {
      "time": 34000,
      "note": 58,
      "velocity": 8
    },
    {
      "time": 36000,
      "note": 60,
      "velocity": 8
    },
    {
      "time": 39000,
      "note": 58,
      "velocity": 8
    },
    {
      "time": 40000,
      "note": 58,
      "velocity": 8
    },
    {
      "time": 42000,
      "note": 58,
      "velocity": 8
    },
    {
      "time": 44000,
      "note": 60,
      "velocity": 8
    },
    {
      "time": 47000,
      "note": 58,
      "velocity": 8
    },
    {
      "time": 48000,
      "note": 58,
      "velocity": 8
    },
    {
      "time": 50000,
      "note": 58,
      "velocity": 8
    },
    {
      "time": 52000,
      "note": 60,
      "velocity": 8
    },
    {
      "time": 54000,
      "note": 60,
      "velocity": 8
    },
    {
      "time": 58000,
      "note": 39,
      "velocity": 8
    },
    {
      "time": 60000,
      "note": 39,
      "velocity": 8
    },
    {
      "time": 62000,
      "note": 60,
      "velocity": 8
    },
    {
      "time": 64000,
      "note": 39,
      "velocity": 8
    },
    {
      "time": 68000,
      "note": 60,
      "velocity": 8
    },
    {
      "time": 72000,
      "note": 58,
      "velocity": 8
    },
    {
      "time": 73000,
      "note": 58,
      "velocity": 8
    },
    {
      "time": 76000,
      "note": 58,
      "velocity": 8
    },
    {
      "time": 80000,
      "note": 58,
      "velocity": 8
    },
    {
      "time": 84000,
      "note": 60,
      "velocity": 8
    },
    {
      "time": 88000,
      "note": 58,
      "velocity": 8
    },
    {
      "time": 92000,
      "note": 60,
      "velocity": 8
    },
    {
      "time": 96000,
      "note": 58,
      "velocity": 8
    },
    {
      "time": 100000,
      "note": 60,
      "velocity": 8
    },
    {
      "time": 104000,
      "note": 58,
      "velocity": 8
    },
    {
      "time": 108000,
      "note": 60,
      "velocity": 8
    },
    {
      "time": 112000,
      "note": 39,
      "velocity": 8
    },
    {
      "time": 116000,
      "note": 60,
      "velocity": 8
    },
    {
      "time": 120000,
      "note": 58,
      "velocity": 8
    },
    {
      "time": 121000,
      "note": 58,
      "velocity": 8
    },
    {
      "time": 124000,
      "note": 58,
      "velocity": 8
    },
    {
      "time": 128000,
      "note": 58,
      "velocity": 8
    },
    {
      "time": 132000,
      "note": 60,
      "velocity": 8
    },
    {
      "time": 136000,
      "note": 58,
      "velocity": 8
    },
    {
      "time": 140000,
      "note": 60,
      "velocity": 8
    },
    {
      "time": 144000,
      "note": 60,
      "velocity": 8
    },
    {
      "time": 146000,
      "note": 58,
      "velocity": 8
    },
    {
      "time": 148000,
      "note": 60,
      "velocity": 8
    },
    {
      "time": 151000,
      "note": 58,
      "velocity": 8
    },
    {
      "time": 152000,
      "note": 58,
      "velocity": 8
    },
    {
      "time": 154000,
      "note": 58,
      "velocity": 8
    },
    {
      "time": 156000,
      "note": 60,
      "velocity": 8
    },
    {
      "time": 159000,
      "note": 58,
      "velocity": 8
    },
    {
      "time": 160000,
      "note": 58,
      "velocity": 8
    },
    {
      "time": 162000,
      "note": 58,
      "velocity": 8
    },
    {
      "time": 164000,
      "note": 60,
      "velocity": 8
    },
    {
      "time": 166000,
      "note": 60,
      "velocity": 8
    },
    {
      "time": 170000,
      "note": 39,
      "velocity": 8
    },
    {
      "time": 172000,
      "note": 39,
      "velocity": 8
    },
    {
      "time": 174000,
      "note": 60,
      "velocity": 8
    },
    {
      "time": 176000,
      "note": 39,
      "velocity": 8
    },
    {
      "time": 180000,
      "note": 60,
      "velocity": 8
    },
    {
      "time": 184000,
      "note": 58,
      "velocity": 8
    },
    {
      "time": 185000,
      "note": 58,
      "velocity": 8
    },
    {
      "time": 188000,
      "note": 58,
      "velocity": 8
    },
    {
      "time": 192000,
      "note": 58,
      "velocity": 8
    },
    {
      "time": 196000,
      "note": 60,
      "velocity": 8
    },
    {
      "time": 200000,
      "note": 58,
      "velocity": 8
    },
    {
      "time": 204000,
      "note": 60,
      "velocity": 8
    },
    {
      "time": 208000,
      "note": 60,
      "velocity": 8
    },
    {
      "time": 210000,
      "note": 58,
      "velocity": 8
    },
    {
      "time": 212000,
      "note": 60,
      "velocity": 8
    },
    {
      "time": 215000,
      "note": 58,
      "velocity": 8
    },
    {
      "time": 216000,
      "note": 58,
      "velocity": 8
    },
    {
      "time": 218000,
      "note": 58,
      "velocity": 8
    },
    {
      "time": 220000,
      "note": 60,
      "velocity": 8
    },
    {
      "time": 223000,
      "note": 58,
      "velocity": 8
    },
    {
      "time": 224000,
      "note": 58,
      "velocity": 8
    },
    {
      "time": 226000,
      "note": 58,
      "velocity": 8
    },
    {
      "time": 228000,
      "note": 60,
      "velocity": 8
    },
    {
      "time": 230000,
      "note": 60,
      "velocity": 8
    },
    {
      "time": 234000,
      "note": 39,
      "velocity": 8
    },
    {
      "time": 236000,
      "note": 39,
      "velocity": 8
    },
    {
      "time": 238000,
      "note": 60,
      "velocity": 8
    },
    {
      "time": 240000,
      "note": 39,
      "velocity": 8
    },
    {
      "time": 244000,
      "note": 60,
      "velocity": 8
    },
    {
      "time": 248000,
      "note": 58,
      "velocity": 8
    },
    {
      "time": 249000,
      "note": 58,
      "velocity": 8
    },
    {
      "time": 252000,
      "note": 58,
      "velocity": 8
    },
    {
      "time": 256000,
      "note": 58,
      "velocity": 8
    },
    {
      "time": 260000,
      "note": 60,
      "velocity": 8
    },
    {
      "time": 264000,
      "note": 58,
      "velocity": 8
    },
    {
      "time": 268000,
      "note": 60,
      "velocity": 8
    },
    {
      "time": 272000,
      "note": 60,
      "velocity": 8
    },
    {
      "time": 274000,
      "note": 58,
      "velocity": 8
    },
    {
      "time": 276000,
      "note": 60,
      "velocity": 8
    },
    {
      "time": 279000,
      "note": 58,
      "velocity": 8
    },
    {
      "time": 280000,
      "note": 58,
      "velocity": 8
    },
    {
      "time": 282000,
      "note": 58,
      "velocity": 8
    },
    {
      "time": 284000,
      "note": 60,
      "velocity": 8
    },
    {
      "time": 287000,
      "note": 58,
      "velocity": 8
    },
    {
      "time": 288000,
      "note": 58,
      "velocity": 8
    },
    {
      "time": 290000,
      "note": 58,
      "velocity": 8
    },
    {
      "time": 292000,
      "note": 60,
      "velocity": 8
    },
    {
      "time": 294000,
      "note": 60,
      "velocity": 8
    },
    {
      "time": 298000,
      "note": 39,
      "velocity": 8
    },
    {
      "time": 300000,
      "note": 39,
      "velocity": 8
    },
    {
      "time": 302000,
      "note": 60,
      "velocity": 8
    },
    {
      "time": 304000,
      "note": 58,
      "velocity": 8
    },
    {
      "time": 308000,
      "note": 60,
      "velocity": 8
    },
    {
      "time": 312000,
      "note": 58,
      "velocity": 8
    },
    {
      "time": 316000,
      "note": 60,
      "velocity": 8
    },
    {
      "time": 320000,
      "note": 55,
      "velocity": 8
    }
  ],
  "stats": {
    "total_events": 114,
    "duration_ms": 320000,
    "avg_velocity": 8,
    "note_range": "39-60"
  }
}