<svg version="1.1" xmlns="http://www.w3.org/2000/svg" viewBox="0 0 55.1 60">
  <style>.white{fill:#FFFFFF}</style>
  <g id="Cloud">
    <g id="Rain">
      <path class="white" d="M20.7,46.4c0,1.7-1.4,3.1-3.1,3.1s-3.1-1.4-3.1-3.1c0-1.7,3.1-7.8,3.1-7.8S20.7,44.7,20.7,46.4z"/>
      <path class="white" d="M31.4,46.4c0,1.7-1.4,3.1-3.1,3.1c-1.7,0-3.1-1.4-3.1-3.1c0-1.7,3.1-7.8,3.1-7.8S31.4,44.7,31.4,46.4z"/>
      <path class="white" d="M41.3,46.4c0,1.7-1.4,3.1-3.1,3.1c-1.7,0-3.1-1.4-3.1-3.1c0-1.7,3.1-7.8,3.1-7.8S41.3,44.7,41.3,46.4z"/>
    </g>
    <g id="White_cloud">
      <path class="white" d="M47.2,34.5H7.9c-4.3,0-7.9-3.5-7.9-7.9l0,0c0-4.3,3.5-7.9,7.9-7.9h39.4c4.3,0,7.9,3.5,7.9,7.9v0C55.1,30.9,51.6,34.5,47.2,34.5z"/>
      <circle class="white" cx="17.4" cy="17.3" r="9.3"/>
      <circle class="white" cx="34.5" cy="15.6" r="15.6"/>
    </g>
  </g>
</svg>
