<svg version="1.1" xmlns="http://www.w3.org/2000/svg" viewBox="0 0 45.1 47.6">
  <style>.yellow{fill:#FFEB3B}.st1{fill:none;stroke:#FFFFFF;stroke-width:2;stroke-miterlimit:10;}</style>
  <g id="Wind_Sun">
    <g id="Sun">
      <circle class="yellow" cx="27.1" cy="18.1" r="8.9"/>
      <g>
        <path class="yellow" d="M27.2,6.5L27.2,6.5c-0.4,0-0.6-0.3-0.6-0.6V0.6c0-0.3,0.3-0.6,0.6-0.6l0.1,0c0.3,0,0.6,0.3,0.6,0.6v5.4C27.7,6.2,27.5,6.5,27.2,6.5z"/>
        <path class="yellow" d="M27.2,29.5L27.2,29.5c-0.4,0-0.6,0.3-0.6,0.6v5.4c0,0.3,0.3,0.6,0.6,0.6h0.1c0.3,0,0.6-0.3,0.6-0.6v-5.4C27.7,29.8,27.5,29.5,27.2,29.5z"/>
        <path class="yellow" d="M15.6,18L15.6,18c0,0.4-0.3,0.6-0.6,0.6H9.7c-0.3,0-0.6-0.3-0.6-0.6V18c0-0.3,0.3-0.6,0.6-0.6h5.4C15.4,17.4,15.6,17.7,15.6,18z"/>
        <path class="yellow" d="M38.7,18L38.7,18c0,0.4,0.3,0.6,0.6,0.6h5.4c0.3,0,0.6-0.3,0.6-0.6V18c0-0.3-0.3-0.6-0.6-0.6h-5.4C38.9,17.4,38.7,17.7,38.7,18z"/>
      </g>
    </g>
    <g id="Wind">
      <path class="st1" d="M1.3,33.1h19.3c2.1,0,3.8-1.3,3.8-3v0v0c0-1.7-1.7-3-3.8-3h-2.1"/>
      <path class="st1" d="M2.4,42.4h18.2c2,0,3.6,0.9,3.6,2.1l0,0v0c0,1.2-1.6,2.1-3.6,2.1h-2"/>
      <line class="st1" x1="5.3" y1="36.3" x2="25.5" y2="36.3"/>
      <line class="st1" x1="0" y1="39.3" x2="27" y2="39.3"/>
    </g>
  </g>
</svg>
